<?xml version="1.0" encoding="utf-8"?>
<!-- Generator: Adobe Illustrator 23.0.3, SVG Export Plug-In . SVG Version: 6.00 Build 0)  -->
<svg version="1.1" id="Vrstva_1" xmlns="http://www.w3.org/2000/svg" xmlns:xlink="http://www.w3.org/1999/xlink" x="0px" y="0px"
	 viewBox="0 0 100 100" style="enable-background:new 0 0 100 100;" xml:space="preserve">
<style type="text/css">
	.st0{fill:#344A5A;}
	.st1{fill:#69C7E5;}
	.st2{fill:#43576A;}
	.st3{fill:#E2E0E2;}
	.st4{fill:#BEBFC2;}
</style>
<path class="st0" d="M0,31.94c2.58-0.35,5.17-0.7,7.41-1.01c1.3,1.75,2.19,2.96,3.08,4.17c-0.39,0.77-0.77,1.55-1.16,2.32
	c-3.1-0.78-6.22-1.56-9.33-2.35C0,34.03,0,32.99,0,31.94z"/>
<path class="st0" d="M89.43,35.15c0.91-1.21,1.82-2.42,3.15-4.19c2.22,0.29,4.82,0.64,7.41,0.98c0,1.04,0,2.08,0,3.12
	c-3.11,0.79-6.22,1.58-9.34,2.37C90.25,36.68,89.84,35.92,89.43,35.15z"/>
<path class="st1" d="M89.43,35.15c0.41,0.76,0.82,1.52,1.23,2.28c1.17,2.3,2.24,4.66,3.53,6.89c2.19,3.82,3.45,7.93,3.22,12.27
	c-0.27,5.04-0.94,10.07-1.7,15.07c-0.24,1.58-1.35,3.03-2.07,4.54c-2.11,0.51-4.19,1.17-6.32,1.49c-1.91,0.29-3.87,0.22-5.8,0.31
	c-9.07-0.01-18.14-0.05-27.2-0.01c-11.79,0.04-23.59,0.15-35.38,0.22c-3.96-0.37-7.91-0.75-11.87-1.12
	c-0.92-1.82-2.3-3.54-2.68-5.46c-0.88-4.44-1.5-8.96-1.83-13.48c-0.34-4.74,0.81-9.25,3.19-13.44c1.34-2.35,2.41-4.85,3.6-7.29
	c0.39-0.77,0.77-1.55,1.16-2.32c2.49-4.83,5.03-9.63,7.45-14.49c1.98-3.96,4.93-5.67,9.49-6.1c14.28-1.35,28.53-1.42,42.82-0.47
	c1.94,0.13,3.91,0.31,5.77,0.81c0.91,0.24,1.61,1.27,2.41,1.94c-1.77-0.09-3.53-0.24-5.3-0.27c-7.81-0.12-15.61-0.34-23.42-0.25
	c-8.96,0.1-17.92,0.48-27.34,0.75c-2.63,5.94-5.21,11.76-7.84,17.69c23.91,0,47.23,0,71.08,0c-0.7-1.71-1.14-2.89-1.66-4.04
	c-1.67-3.66-3.41-7.29-5.01-10.98c-0.36-0.83-0.29-1.84-0.41-2.77c0.92,0.96,2.09,1.78,2.72,2.9
	C84.06,24.89,86.72,30.04,89.43,35.15z M30.13,65.81c0,3.18,0,5.8,0,8.38c13.53,0,26.67,0,39.81,0c0-3.14,0-5.76,0-8.38
	C56.52,65.81,43.47,65.81,30.13,65.81z M33.14,58.15c11.03,0,21.84,0,32.82,0c0-1.36,0-2.46,0-3.79c-11.06,0-21.88,0-32.82,0
	C33.14,55.74,33.14,56.84,33.14,58.15z M28.64,57.61c-1.42-4.75-2.93-7.26-5.02-7.82c-4.87-1.31-9.8-2.43-14.72-3.56
	c-0.41-0.09-0.93,0.32-1.69,0.6c0,1.9-0.3,3.85,0.06,5.67c0.8,4,3.31,5.85,7.42,5.88c3.37,0.02,6.75,0.06,10.12-0.03
	C26,58.31,27.18,57.9,28.64,57.61z M92.45,46.27c-1.18,0.09-2.06,0.06-2.89,0.25c-3.66,0.84-7.3,1.74-10.94,2.61
	c-4.15,0.99-6.19,3.39-6.88,8.35c0.74,0.27,1.54,0.81,2.34,0.82c4.27,0.09,8.57,0.29,12.81-0.07c1.55-0.13,3.36-1.38,4.38-2.66
	C93.31,53.03,93.53,49.95,92.45,46.27z M86.68,73.38c2.44,0,4.5-1.97,4.57-4.37c0.07-2.36-1.95-4.47-4.37-4.56
	c-2.6-0.1-4.82,2.03-4.75,4.56C82.19,71.4,84.24,73.37,86.68,73.38z M18.27,69.18c-0.09-2.45-2.13-4.43-4.52-4.39
	c-2.56,0.04-4.6,2.3-4.41,4.89c0.18,2.42,2.32,4.32,4.71,4.18C16.48,73.71,18.35,71.64,18.27,69.18z"/>
<path class="st0" d="M7.06,77.1c3.96,0.37,7.91,0.75,11.87,1.12c-0.01,1.03-0.02,2.06-0.03,3.09c-0.06,4.77-0.48,5.18-5.39,5.28
	c-0.64,0.01-1.29,0.02-1.93,0c-3.89-0.11-4.53-0.7-4.62-4.48C6.91,80.44,7.02,78.77,7.06,77.1z"/>
<path class="st0" d="M81.51,78.01c1.94-0.09,3.9-0.02,5.8-0.31c2.13-0.33,4.22-0.98,6.32-1.49c0.05,1.94,0.13,3.88,0.13,5.82
	c0,0.76,0.07,1.74-0.34,2.26c-2.38,3.02-5.75,1.22-8.68,1.55c-1.86,0.21-2.89-1.02-3.07-2.79C81.52,81.38,81.56,79.69,81.51,78.01z"
	/>
<path class="st0" d="M78.53,16.92c0.13,0.93,0.05,1.95,0.41,2.77c1.61,3.69,3.35,7.32,5.01,10.98c0.52,1.15,0.96,2.33,1.66,4.04
	c-23.84,0-47.16,0-71.08,0c2.63-5.93,5.21-11.76,7.84-17.69c9.42-0.27,18.38-0.65,27.34-0.75c7.8-0.08,15.61,0.14,23.42,0.25
	c1.77,0.03,3.54,0.17,5.3,0.27L78.53,16.92z"/>
<path class="st2" d="M30.13,65.81c13.34,0,26.39,0,39.81,0c0,2.62,0,5.23,0,8.38c-13.15,0-26.28,0-39.81,0
	C30.13,71.61,30.13,68.99,30.13,65.81z"/>
<path class="st2" d="M33.14,58.15c0-1.3,0-2.41,0-3.79c10.94,0,21.76,0,32.82,0c0,1.34,0,2.43,0,3.79
	C54.98,58.15,44.17,58.15,33.14,58.15z"/>
<path class="st3" d="M28.64,57.61c-1.45,0.29-2.63,0.7-3.82,0.73c-3.37,0.09-6.74,0.05-10.12,0.03c-4.11-0.03-6.62-1.88-7.42-5.88
	c-0.36-1.82-0.06-3.77-0.06-5.67c0.75-0.28,1.28-0.69,1.69-0.6c4.92,1.13,9.84,2.25,14.72,3.56C25.7,50.35,27.21,52.86,28.64,57.61z
	 M17.02,52.28c-0.09-1.61-0.99-2.73-2.78-2.94c-1.69-0.2-3.19,1.3-3.2,3.11c-0.01,1.67,0.82,2.66,2.5,2.84
	C15.33,55.48,16.93,54.16,17.02,52.28z M24.28,54.74c-1.55-1.08-2.47-2.21-3.22-2.11c-0.79,0.11-1.75,1.31-1.97,2.2
	c-0.12,0.47,1.19,1.81,1.86,1.82C21.81,56.66,22.68,55.72,24.28,54.74z"/>
<path class="st3" d="M92.45,46.27c1.09,3.67,0.86,6.76-1.18,9.31c-1.02,1.28-2.83,2.52-4.38,2.66c-4.24,0.36-8.54,0.16-12.81,0.07
	c-0.81-0.02-1.6-0.55-2.34-0.82c0.69-4.97,2.73-7.36,6.88-8.35c3.65-0.87,7.29-1.78,10.94-2.61C90.39,46.33,91.27,46.37,92.45,46.27
	z M88.97,52.74c0.03-1.99-1.4-3.55-3.1-3.41c-1.79,0.14-2.87,1.2-2.85,3.01c0.02,1.83,1.19,2.81,2.95,2.93
	C87.82,55.39,88.84,54.42,88.97,52.74z M78.68,51.46c-0.91,1.64-1.94,2.66-1.77,3.41c0.17,0.77,1.47,1.62,2.37,1.75
	c0.48,0.07,1.7-1.36,1.64-2.02C80.83,53.73,79.81,52.96,78.68,51.46z"/>
<path class="st3" d="M86.68,73.38c-2.44,0-4.49-1.97-4.56-4.37c-0.07-2.53,2.16-4.66,4.75-4.56c2.42,0.09,4.44,2.2,4.37,4.56
	C91.18,71.4,89.12,73.38,86.68,73.38z"/>
<path class="st3" d="M18.27,69.18c0.09,2.46-1.79,4.53-4.22,4.68C11.66,74,9.52,72.1,9.34,69.68c-0.19-2.59,1.85-4.85,4.41-4.89
	C16.14,64.75,18.18,66.73,18.27,69.18z"/>
<path class="st4" d="M17.02,52.28c-0.1,1.88-1.69,3.2-3.48,3.01c-1.68-0.18-2.51-1.18-2.5-2.84c0.01-1.81,1.51-3.31,3.2-3.11
	C16.03,49.54,16.93,50.67,17.02,52.28z"/>
<path class="st4" d="M24.28,54.74c-1.6,0.98-2.47,1.92-3.32,1.91c-0.68-0.01-1.98-1.35-1.86-1.82c0.22-0.89,1.18-2.09,1.97-2.2
	C21.8,52.53,22.72,53.66,24.28,54.74z"/>
<path class="st4" d="M88.97,52.74c-0.13,1.68-1.15,2.65-3,2.53c-1.76-0.12-2.93-1.1-2.95-2.93c-0.02-1.81,1.06-2.87,2.85-3.01
	C87.57,49.2,89,50.75,88.97,52.74z"/>
<path class="st4" d="M78.68,51.46c1.13,1.5,2.15,2.27,2.24,3.14c0.06,0.66-1.16,2.09-1.64,2.02c-0.9-0.13-2.19-0.98-2.37-1.75
	C76.74,54.12,77.77,53.1,78.68,51.46z"/>
</svg>
