<?xml version="1.0" encoding="utf-8"?>
<!-- Generator: Adobe Illustrator 23.0.3, SVG Export Plug-In . SVG Version: 6.00 Build 0)  -->
<svg version="1.1" id="Vrstva_1" xmlns="http://www.w3.org/2000/svg" xmlns:xlink="http://www.w3.org/1999/xlink" x="0px" y="0px"
	 viewBox="0 0 100 100" style="enable-background:new 0 0 100 100;" xml:space="preserve">
<style type="text/css">
	.st0{fill:#109AAF;}
	.st1{fill:#4A505F;}
	.st2{fill:#323847;}
	.st3{fill:#138298;}
	.st4{fill:#DADBE0;}
	.st5{fill:#FEFEFD;}
	.st6{fill:#FAC819;}
</style>
<g>
	<path class="st0" d="M73.55,43.46c-0.72-2.09-1.44-4.18-2.17-6.27c-0.27-0.78-0.59-1.54-0.89-2.31c-0.05-0.27-0.1-0.54-0.18-0.99
		c-0.73,0.81-1.35,1.46-1.93,2.15c-1.47,1.75-2.91,3.52-4.37,5.28c-1.29,1.55-2.6,3.09-3.89,4.63c-1.51,1.8-3,3.61-4.51,5.41
		c-1.09,1.31-2.2,2.61-3.27,3.94c-0.31,0.38-0.53,0.52-0.99,0.2c-0.48-0.33-1.05-0.54-1.57-0.8c0.03-0.05,0.06-0.1,0.09-0.15
		c5.72-6.82,11.43-13.64,17.15-20.45c0.21-0.25,0.42-0.52,0.68-0.85c-0.37,0-0.6,0-0.83,0c-8.94,0-17.88,0-26.83,0
		c-0.27,0-0.55-0.02-0.82-0.02c0.23-0.03,0.45-0.08,0.68-0.08c9.14,0,18.27-0.01,27.41,0c0.48,0,0.84-0.08,0.93-0.71
		c-0.24,0-0.45,0-0.66,0c-3.57,0-7.15,0-10.72,0c-5.99,0-11.99,0-17.98,0c-0.78,0-1,0.35-0.71,1.08c0.21,0.53,0.4,1.05,0.58,1.59
		c0.69,2,1.36,4.02,2.06,6.01c1.05,2.99,2.14,5.96,3.2,8.95c0.51,1.42,1.01,2.85,1.52,4.28c-0.74,0.27-1.49,0.54-2.23,0.81
		c-1.87-5.32-3.74-10.64-5.61-15.96c-0.45-1.28-0.94-2.54-1.4-3.81c-0.08-0.31-0.17-0.62-0.29-1.08
		c-5.18,8.32-10.25,16.47-15.38,24.71c0.51,0,0.84,0,1.17,0c0.65-0.01,1.31-0.03,1.96-0.04c3.45,0.01,6.9,0.01,10.35,0.01
		c0.06,0,0.11-0.03,0.17-0.04c0.53,0.01,1.06,0.03,1.59,0.04c0.53-0.02,1.06-0.04,1.59-0.06c0.98,0.02,1.97,0.05,2.95,0.07
		c-0.06,0.56-0.11,1.12-0.17,1.68c-0.01,0.01-0.03,0.03-0.03,0.04c0.01,0.03,0.02,0.06,0.04,0.09c0.01,0.15,0.01,0.31,0.02,0.46
		c-0.35,0.04-0.69,0.11-1.04,0.11c-7.26,0-14.52,0-21.78,0c-0.02-0.02-0.03-0.05-0.04-0.08c-0.03-0.05-0.06-0.1-0.09-0.14
		c-0.24-0.58-0.08-1.09,0.23-1.6c0.56-0.91,1.09-1.83,1.64-2.75c0.76-1.25,1.51-2.5,2.27-3.74c0.08-0.05,0.19-0.08,0.23-0.15
		c0.74-1.22,1.48-2.44,2.22-3.66c0.57-0.9,1.13-1.8,1.7-2.7c0.28-0.45,0.56-0.9,0.84-1.34c0.15-0.23,0.3-0.46,0.44-0.69
		c0.12-0.22,0.24-0.45,0.37-0.67c1-1.58,2-3.15,2.99-4.73c1.5-2.39,2.98-4.8,4.48-7.19c0.19-0.31,0.23-0.56,0.1-0.91
		c-0.4-1.07-0.75-2.17-1.12-3.25c0.27,0,0.54,0,0.81,0c1.66,0,1.69-0.01,2.19,1.59c0.2,0.62,0.51,0.86,1.13,0.73
		c0.33,0,0.66,0.01,1,0.01c9.8,0,19.6,0,29.4,0c0.19,0,0.38,0,0.65,0c-0.43-1.23-0.83-2.38-1.24-3.54c-0.42-1.2-0.85-2.39-1.26-3.59
		c-0.43-1.27,0.26-2.25,1.6-2.25c2.05,0,4.1,0.01,6.15,0.02c0.03,0.23,0.06,0.46,0.08,0.68c-0.01,0.55-0.02,1.09-0.03,1.64
		c-1.33,0-2.65,0-3.98,0c-0.8,0-1.09,0.37-0.89,1.15c0.09,0.36,0.22,0.71,0.34,1.05c0.45,1.24,0.93,2.47,1.37,3.72
		c0.56,1.61,1.07,3.24,1.63,4.85c0.87,2.51,1.77,5.01,2.65,7.52c0.94,2.69,1.87,5.39,2.82,8.08c0.82,2.33,1.65,4.66,2.49,6.98
		c0.61,1.7,1.23,3.4,1.85,5.1c-0.08,0.11-0.17,0.22-0.25,0.33c-1.18,0.58-2.08,0.21-2.52-1.03c-0.45-1.26-0.91-2.52-1.36-3.78
		c-0.81-2.33-1.62-4.67-2.44-7c-0.42-1.19-0.86-2.37-1.29-3.56c-0.17-0.51-0.35-1.03-0.52-1.54C73.91,44.45,73.73,43.95,73.55,43.46
		z"/>
	<path class="st1" d="M26.89,44.5c-0.15,0.23-0.3,0.46-0.44,0.69c-3.79-1.88-7.75-2.32-11.84-1.3C5.6,46.15,0.1,54.94,1.95,64.05
		c2.32,11.47,15.39,17.29,25.49,11.37c2.26-1.33,4.09-3.1,5.61-5.22c-0.14,0.31-0.22,0.67-0.42,0.94c-0.68,0.89-1.34,1.83-2.13,2.61
		c-0.85,0.83-1.82,1.56-2.8,2.25c-2.37,1.68-4.99,2.75-7.9,3.07c-0.55,0.06-1.1,0.14-1.65,0.21c-3.82-0.08-7.32-1.23-10.34-3.54
		c-6.38-4.88-9.01-11.39-7.28-19.23c1.7-7.71,6.75-12.46,14.44-14.29c1.4-0.33,2.9-0.28,4.35-0.4c0.09,0.07,0.16,0.18,0.26,0.2
		c1.26,0.29,2.55,0.47,3.77,0.88C24.56,43.32,25.71,43.96,26.89,44.5z"/>
	<path class="st1" d="M40.24,60.67c0.06-0.56,0.11-1.12,0.17-1.68c0.49-1.64,1.45-2.92,2.9-3.84c0.74-0.27,1.49-0.54,2.23-0.81
		c0.29-0.01,0.57-0.01,0.86-0.02c0.26,0.01,0.52,0.01,0.78,0.02c-0.02,0.13-0.03,0.27-0.06,0.4c-0.44,1.79-0.89,3.58-1.33,5.37
		c-0.23,0.95,0.22,1.39,1.15,1.12c0.56,0.24,1,0.05,1.15-0.53c0.34-1.33,0.64-2.68,0.98-4.01c0.13-0.52,0.31-1.03,0.47-1.54
		c1,0.44,1.69,1.21,2.26,2.11c2.25,3.58,0.3,8.39-3.81,9.37c-0.19,0.05-0.38,0.08-0.57,0.13c-1.11,0.07-2.22,0.03-3.27-0.37
		c-1.89-0.85-3.13-2.26-3.73-4.24c-0.05-0.3-0.1-0.6-0.15-0.91c-0.01-0.15-0.01-0.31-0.02-0.46C40.25,60.75,40.25,60.71,40.24,60.67
		z"/>
	<path class="st1" d="M73.55,43.46c0.18,0.49,0.35,0.98,0.53,1.48c-8.63,4.03-12.36,14.01-8.49,22.71
		c4.25,9.57,16.31,13.08,25.08,7.32c1.88-1.24,3.43-2.82,4.77-4.61c-0.08,0.23-0.11,0.49-0.24,0.69c-1.38,2.03-3.12,3.7-5.15,5.08
		c-2.06,1.4-4.3,2.29-6.71,2.81c-0.79,0.17-1.6,0.24-2.4,0.35c-3.18,0.01-6.17-0.77-8.87-2.39c-6.72-4.03-10.05-10.03-9.46-17.84
		C63.16,51.82,67.04,46.65,73.55,43.46z"/>
	<path class="st1" d="M74.21,23.06c0.01-0.55,0.02-1.09,0.03-1.64c0.01-0.23,0.03-0.46,0.04-0.68c2.71,0.02,5.43-0.13,8.12,0.11
		c3.7,0.33,6.54,3.62,6.68,7.35c0.14,3.83-2.44,7.21-6.12,7.97c-0.59,0.12-1.2,0.2-1.8,0.17c-1.23-0.07-1.83-1.32-1.18-2.39
		c0.71,0,1.43,0.09,2.13,0c2.6-0.33,4.64-2.65,4.67-5.32c0.03-3.03-2.43-5.54-5.49-5.56c-2.34-0.02-4.68,0-7.02,0L74.21,23.06z"/>
	<path class="st2" d="M80.94,79.29c0.8-0.11,1.61-0.18,2.4-0.35c2.41-0.52,4.66-1.4,6.71-2.81c2.04-1.39,3.77-3.05,5.15-5.08
		c0.13-0.19,0.16-0.46,0.24-0.69c0-0.03,0.01-0.06,0.04-0.08c0.03-0.04,0.06-0.09,0.1-0.13c0.03-0.04,0.06-0.08,0.09-0.13
		c0.08-0.12,0.16-0.24,0.23-0.36l0.02,0.02l-0.03-0.02c0.12-0.2,0.24-0.41,0.37-0.61c0.08-0.18,0.16-0.35,0.25-0.53
		c1.41-2.73,2.04-5.63,1.92-8.7c-0.11-2.74-0.87-5.3-2.15-7.71c-0.06-0.1-0.12-0.19-0.18-0.29l0-0.02
		c-0.03-0.05-0.05-0.09-0.08-0.14l0,0c0.01-0.34-0.03-0.66-0.46-0.72l0,0c-0.1-0.29-0.15-0.61-0.32-0.85
		c-1.5-2.09-3.27-3.9-5.45-5.28c-2.37-1.51-4.92-2.52-7.74-2.79c-0.1-0.01-0.2-0.13-0.3-0.2c0.23,0.01,0.47,0.02,0.7,0.03
		c0.04,0,0.07,0.01,0.11,0.01c8.42,0.51,15.64,6.93,17.12,15.23c1.8,10.07-4.47,19.58-14.4,21.76
		C83.88,79.17,82.39,79.15,80.94,79.29z"/>
	<path class="st1" d="M26.87,25.97c-0.59-0.81-0.6-1.67-0.13-2.52c0.47-0.84,1.25-1.28,2.19-1.17c4.2,0.5,8.39,1.05,12.59,1.59
		c0.22,0.03,0.43,0.16,0.64,0.24c-0.04,0.24-0.11,0.47-0.13,0.71c-0.03,0.58-0.4,1.12-0.95,1.26c-0.32,0.08-0.65,0.13-0.97,0.13
		c-0.97-0.01-1.94-0.07-2.91-0.06c-2.31,0.01-4.62,0.08-6.92,0.06C29.15,26.2,28.01,26.06,26.87,25.97z"/>
	<path class="st3" d="M82.48,61.51c-0.62-1.7-1.24-3.4-1.85-5.1c-0.83-2.33-1.67-4.65-2.49-6.98c-0.95-2.69-1.87-5.39-2.82-8.08
		c-0.88-2.51-1.78-5.01-2.65-7.52c-0.56-1.61-1.07-3.24-1.63-4.85c-0.43-1.25-0.92-2.48-1.37-3.72c-0.13-0.35-0.25-0.7-0.34-1.05
		c-0.2-0.78,0.09-1.14,0.89-1.15c1.33,0,2.65,0,3.98,0c0,0,0.06,0,0.06,0c0,0.27,0,0.53,0,0.8c-1.36,0-2.72,0-4.19,0
		c0.32,0.92,0.61,1.75,0.9,2.59c1.83,5.21,3.66,10.42,5.49,15.63c0.04,0.11,0.09,0.21,0.14,0.32c0.17,0.52,0.33,1.03,0.5,1.55
		c0.19,0.48,0.37,0.96,0.56,1.44c1.01,2.93,2.03,5.85,3.05,8.78c0.02,0.05,0.11,0.07,0.17,0.11c0.25,0.8,0.5,1.6,0.75,2.41
		c0.12,0.28,0.24,0.56,0.36,0.84c0,0.03-0.01,0.06-0.02,0.09c0.25,0.76,0.51,1.52,0.74,2.28C82.88,60.46,82.97,61.03,82.48,61.51z"
		/>
	<path class="st2" d="M18.14,79.28c0.55-0.07,1.1-0.15,1.65-0.21c2.91-0.32,5.53-1.39,7.9-3.07c0.98-0.69,1.95-1.42,2.8-2.25
		c0.8-0.78,1.45-1.72,2.13-2.61c0.2-0.27,0.29-0.62,0.42-0.94c0,0,0.01-0.01,0.01-0.01c0.09-0.14,0.18-0.28,0.28-0.41
		c0,0,0,0.01,0,0.01c0.03-0.05,0.05-0.09,0.08-0.14l0-0.02c0.06-0.1,0.12-0.19,0.18-0.29l0,0c0.03-0.05,0.06-0.1,0.09-0.15
		c0,0-0.01,0.01-0.01,0.01c0.03-0.05,0.05-0.1,0.08-0.14l0-0.01c0.06-0.1,0.11-0.2,0.17-0.31c1.04-2.07,1.74-4.24,1.95-6.56
		c0.52,0,1.05,0.01,1.57,0.01c-0.74,8.88-7.81,16.08-16.7,17C19.9,79.29,19.02,79.26,18.14,79.28z"/>
	<path class="st3" d="M51.81,57.27c-0.57-0.9-1.27-1.67-2.26-2.11c-0.01-0.04-0.02-0.08-0.03-0.12c0.09-0.11,0.18-0.22,0.26-0.34
		c0.53,0.26,1.09,0.47,1.57,0.8c0.46,0.32,0.68,0.19,0.99-0.2c1.07-1.33,2.18-2.63,3.27-3.94c1.5-1.8,3-3.61,4.51-5.41
		c1.29-1.55,2.6-3.08,3.89-4.63c1.46-1.76,2.9-3.53,4.37-5.28c0.58-0.69,1.2-1.34,1.93-2.15c0.08,0.45,0.13,0.72,0.18,0.99
		c-6.12,7.3-12.24,14.6-18.36,21.91C52.01,56.94,51.92,57.11,51.81,57.27z"/>
	<path class="st2" d="M74.27,23.86c0-0.27,0-0.53,0-0.8c2.34,0,4.68-0.01,7.02,0c3.06,0.03,5.52,2.53,5.49,5.56
		c-0.02,2.67-2.07,4.99-4.67,5.32c-0.7,0.09-1.42,0.01-2.13,0c0.3-0.58,0.82-0.7,1.42-0.73c2.25-0.12,4.07-1.68,4.46-3.78
		c0.52-2.85-1.66-5.52-4.56-5.56C78.95,23.85,76.61,23.86,74.27,23.86z"/>
	<path class="st3" d="M37.46,62.2c-0.52,0-1.05-0.01-1.57-0.01c-0.54,0-1.07,0-1.61,0c-2.04-0.01-4.08-0.03-6.11-0.03
		c-1.46,0-2.91,0.02-4.37,0.03c-0.69,0-1.37,0.01-2.06,0.01c-0.1,0-0.21,0-0.31-0.01c-0.83-0.01-1.66,0-2.49-0.03
		c-0.62-0.02-1.18-0.18-1.49-0.8c7.26,0,14.52,0.01,21.78,0c0.35,0,0.69-0.07,1.04-0.11c0.05,0.3,0.1,0.6,0.15,0.91
		C39.44,62.17,38.45,62.18,37.46,62.2z"/>
	<path class="st1" d="M81.76,41.83c0.1,0.07,0.19,0.19,0.3,0.2c2.82,0.27,5.37,1.28,7.74,2.79c2.18,1.39,3.95,3.2,5.45,5.28
		c0.17,0.24,0.22,0.56,0.32,0.85c-0.13-0.17-0.27-0.33-0.39-0.5c-2.63-3.54-6.09-5.79-10.41-6.73c-2.08-0.45-4.17-0.44-6.28-0.16
		c-0.21-0.47-0.42-0.95-0.62-1.42C79.17,42.04,80.46,41.94,81.76,41.83z"/>
	<path class="st2" d="M26.87,25.97c1.14,0.08,2.27,0.22,3.41,0.23c2.31,0.02,4.62-0.05,6.92-0.06c0.97,0,1.94,0.06,2.91,0.06
		c0.33,0,0.66-0.05,0.97-0.13c0.54-0.14,0.92-0.69,0.95-1.26c0.01-0.24,0.08-0.48,0.13-0.71c0.64,0.37,0.82,0.96,0.69,1.64
		c-0.14,0.69-0.59,1.11-1.3,1.21c-1.4,0-2.8,0.01-4.2,0.01c-0.08,0-0.16,0-0.24,0c-0.04,0-0.08,0-0.12,0
		c-0.06,0-0.11,0.01-0.17,0.01c-1.12,0.02-2.24,0.04-3.36,0.06c-1.52-0.02-3.03-0.05-4.55-0.05C28.07,26.98,27.36,26.71,26.87,25.97
		z"/>
	<path class="st4" d="M44.15,66.4c1.06,0.41,2.16,0.44,3.27,0.37c-0.42,0.04-0.84,0.05-1.25,0.13c-0.17,0.03-0.43,0.17-0.46,0.3
		c-0.38,1.44-0.73,2.89-1.08,4.34c-0.01,0.05,0.02,0.11,0.03,0.18c0.49,0.06,0.98,0.11,1.47,0.17l0,0.05
		c-0.08-0.01-0.15-0.01-0.23-0.02c-0.35,0-0.71-0.01-1.06-0.01c-0.34-0.1-0.39,0.12-0.48,0.38c-0.15,0.39-0.37,0.76-0.56,1.13
		c-0.24,0.01-0.47,0.01-0.71,0.02c-0.51-0.42-0.4-0.97-0.26-1.55c-0.66,0-1.25,0-1.85,0c0.48-0.04,0.96-0.05,1.43-0.13
		c0.19-0.03,0.49-0.16,0.53-0.31c0.43-1.57,0.82-3.15,1.21-4.73C44.17,66.64,44.15,66.51,44.15,66.4z"/>
	<path class="st3" d="M33.47,27.04c1.12-0.02,2.24-0.04,3.36-0.06c0.34,1.03,0.68,2.07,1.02,3.1c-0.62,0.13-0.93-0.11-1.13-0.73
		c-0.5-1.6-0.53-1.59-2.19-1.59c-0.27,0-0.54,0-0.81,0C33.63,27.51,33.55,27.27,33.47,27.04z"/>
	<path class="st2" d="M26.89,44.5c-1.18-0.54-2.33-1.17-3.56-1.58c-1.22-0.41-2.51-0.59-3.77-0.88c-0.1-0.02-0.17-0.13-0.26-0.2
		c2.62,0.05,5.11,0.67,7.48,1.78c0.16,0.07,0.32,0.15,0.47,0.22C27.14,44.05,27.02,44.27,26.89,44.5z"/>
	<path class="st1" d="M40.98,71.91c0.6,0,1.2,0,1.85,0c-0.14,0.58-0.25,1.13,0.26,1.55c-0.62,0.01-1.25,0.01-1.87,0.02
		c-0.04,0-0.08-0.01-0.12-0.01c-0.22-0.24-0.59-0.48-0.61-0.73C40.46,72.47,40.8,72.18,40.98,71.91z"/>
	<path class="st1" d="M44.85,71.93c0.35,0,0.71,0.01,1.06,0.01c0.08,0.01,0.15,0.01,0.23,0.02l0-0.05c0.19,0.27,0.5,0.51,0.55,0.8
		c0.07,0.4-0.25,0.66-0.66,0.76c-0.08,0-0.16,0-0.24,0.01c-0.47-0.01-0.94-0.03-1.41-0.04C44.53,72.93,44.69,72.43,44.85,71.93z"/>
	<path class="st2" d="M77.87,42.15c0.21,0.47,0.42,0.95,0.62,1.42c-0.46,0.13-0.92,0.25-1.39,0.38c-0.17-0.52-0.33-1.03-0.5-1.55
		C77.03,42.31,77.45,42.23,77.87,42.15z"/>
	<path class="st2" d="M44.85,71.93c-0.16,0.5-0.31,1-0.47,1.51c-0.04,0.01-0.08,0.03-0.11,0.04c-0.12,0-0.24,0-0.35,0
		c-0.04-0.01-0.07-0.02-0.11-0.03c0.19-0.38,0.41-0.74,0.56-1.13C44.46,72.05,44.5,71.82,44.85,71.93z"/>
	<path class="st3" d="M37.36,26.97c1.4,0,2.8-0.01,4.2-0.01C40.15,26.96,38.75,26.96,37.36,26.97z"/>
	<path class="st3" d="M74.27,20.74c-0.01,0.23-0.03,0.46-0.04,0.68c-0.03-0.23-0.06-0.46-0.08-0.68
		C74.19,20.74,74.23,20.74,74.27,20.74z"/>
	<path class="st4" d="M43.91,73.47c0.12,0,0.24,0,0.35,0C44.15,73.47,44.03,73.47,43.91,73.47z"/>
	<path class="st4" d="M45.78,73.47c0.08,0,0.16,0,0.24-0.01C45.94,73.47,45.86,73.47,45.78,73.47z"/>
	<path class="st4" d="M41.1,73.46c0.04,0,0.08,0.01,0.12,0.01C41.18,73.47,41.14,73.47,41.1,73.46z"/>
	<path class="st1" d="M82.57,41.87c-0.04,0-0.07-0.01-0.11-0.01C82.5,41.86,82.53,41.87,82.57,41.87z"/>
	<path class="st3" d="M36.99,26.97c0.04,0,0.08,0,0.12,0C37.07,26.97,37.03,26.97,36.99,26.97z"/>
	<path class="st5" d="M49.78,54.7c-0.09,0.11-0.18,0.22-0.26,0.34c-0.23-0.1-0.45-0.19-0.68-0.29c0.42-1.71,0.82-3.43,1.27-5.14
		c0.03-0.13,0.29-0.26,0.46-0.28c0.47-0.06,0.96-0.07,1.44-0.1c0.43-0.19,0.65-0.51,0.53-0.97c-0.13-0.47-0.5-0.59-0.95-0.59
		c-1.44,0.01-2.88,0.01-4.32,0c-0.43,0-0.78,0.11-0.91,0.55c-0.14,0.46,0.06,0.79,0.49,0.99c0.53,0.05,1.06,0.11,1.64,0.17
		c-0.08,0.32-0.16,0.61-0.24,0.91c-0.35,1.35-0.7,2.7-1.05,4.05c-0.26-0.01-0.52-0.01-0.78-0.02c-0.07-0.16-0.14-0.32-0.2-0.49
		c-1.55-4.39-3.09-8.78-4.64-13.17c-0.81-2.3-1.62-4.59-2.41-6.89c-0.05-0.15-0.39-0.42,0.07-0.54c0.27,0.01,0.55,0.02,0.82,0.02
		c8.94,0,17.88,0,26.83,0c0.23,0,0.47,0,0.83,0c-0.27,0.33-0.47,0.59-0.68,0.85c-5.72,6.82-11.43,13.64-17.15,20.45
		C49.84,54.6,49.81,54.65,49.78,54.7z"/>
	<path class="st6" d="M77.11,43.95c0.46-0.13,0.92-0.25,1.39-0.38c2.1-0.28,4.2-0.29,6.28,0.16c4.31,0.93,7.78,3.19,10.41,6.73
		c0.13,0.17,0.26,0.33,0.39,0.5c0,0,0,0,0,0c0.15,0.24,0.31,0.48,0.46,0.72c0,0,0,0,0,0c0.03,0.05,0.05,0.09,0.08,0.14
		c0,0,0,0.02,0,0.02c0.06,0.1,0.12,0.19,0.18,0.29c1.28,2.41,2.04,4.96,2.15,7.71c0.12,3.07-0.51,5.97-1.92,8.7
		c-0.09,0.17-0.17,0.35-0.25,0.53c-0.12,0.2-0.24,0.41-0.37,0.61l0.03,0.02c0,0-0.02-0.02-0.02-0.02c-0.08,0.12-0.16,0.24-0.23,0.36
		c-0.03,0.04-0.06,0.08-0.09,0.13c-0.03,0.04-0.06,0.09-0.1,0.13c-0.03,0.02-0.04,0.04-0.04,0.08c-1.35,1.79-2.89,3.37-4.77,4.61
		c-8.77,5.77-20.83,2.26-25.08-7.32c-3.87-8.7-0.14-18.68,8.49-22.71c0.18,0.51,0.35,1.03,0.52,1.54c-1.51,0.71-2.87,1.61-4.05,2.8
		c-0.2,0.19-0.4,0.39-0.6,0.58c-1.25,1.27-2.21,2.74-2.94,4.36c-0.1,0.26-0.19,0.52-0.29,0.78c-0.7,1.65-1.03,3.38-1.03,5.17
		c0,0.27,0,0.55,0,0.82c0.01,1.79,0.36,3.51,1.03,5.17c0.1,0.25,0.2,0.5,0.29,0.75c0.72,1.62,1.7,3.08,2.92,4.37
		c0.21,0.19,0.41,0.38,0.62,0.57c1.25,1.3,2.75,2.22,4.37,2.98c0.25,0.09,0.5,0.19,0.75,0.28c1.66,0.68,3.38,1.03,5.17,1.03
		c0.27,0,0.54,0,0.81,0c1.79,0,3.52-0.33,5.17-1.04c0.26-0.1,0.52-0.19,0.78-0.29c1.63-0.72,3.11-1.68,4.37-2.95
		c0.19-0.2,0.38-0.39,0.57-0.59c1.27-1.26,2.24-2.72,2.93-4.37c0.11-0.25,0.21-0.5,0.32-0.74c0.7-1.65,1.01-3.38,1.04-5.17
		c0-0.27,0-0.54,0-0.81c-0.04-1.79-0.33-3.52-1.04-5.17c-0.11-0.26-0.22-0.52-0.33-0.78c-0.67-1.65-1.65-3.11-2.92-4.36
		c-0.19-0.2-0.39-0.39-0.58-0.59c-1.26-1.27-2.73-2.23-4.36-2.93c-0.26-0.1-0.52-0.21-0.78-0.31c-1.65-0.7-3.38-1.03-5.17-1.04
		c-0.25,0-0.5,0.01-0.74,0.01c-0.03-0.01-0.06-0.01-0.09,0c-1.05,0.13-2.11,0.26-3.16,0.39C77.48,44.91,77.29,44.43,77.11,43.95z"/>
	<path class="st5" d="M43.32,55.15c-1.45,0.91-2.41,2.2-2.9,3.84c-0.98-0.02-1.97-0.05-2.95-0.07c-0.57-5.53-3.06-9.98-7.46-13.37
		c0.1-0.17,0.18-0.34,0.29-0.51c2-3.22,4.01-6.44,6.01-9.66c0.47,1.27,0.95,2.53,1.41,3.81C39.58,44.51,41.44,49.83,43.32,55.15z"/>
	<path class="st6" d="M34.28,62.19c0.54,0,1.07,0,1.61,0c-0.2,2.32-0.91,4.49-1.95,6.56c-0.06,0.1-0.11,0.2-0.17,0.31
		c0,0,0,0.01,0,0.01c-0.03,0.05-0.05,0.1-0.08,0.14c0,0,0.01-0.01,0.01-0.01c-0.03,0.05-0.06,0.1-0.09,0.15c0,0,0,0,0,0
		c-0.06,0.1-0.12,0.19-0.18,0.29c0,0,0,0.02,0,0.02c-0.03,0.05-0.05,0.09-0.08,0.14c0,0,0-0.01,0-0.01
		c-0.09,0.14-0.18,0.28-0.28,0.41c0,0-0.01,0.01-0.01,0.01c-1.52,2.12-3.35,3.89-5.61,5.22c-10.1,5.92-23.17,0.1-25.49-11.37
		C0.1,54.94,5.6,46.15,14.61,43.89c4.09-1.03,8.05-0.58,11.84,1.3c-0.28,0.45-0.56,0.9-0.84,1.34c-0.16-0.07-0.32-0.13-0.48-0.2
		c-0.26-0.1-0.52-0.2-0.77-0.3c-1.65-0.7-3.38-1.01-5.17-1.04c-0.27,0-0.54,0-0.81,0c-1.79,0.02-3.51,0.35-5.17,1.04
		c-0.26,0.1-0.52,0.21-0.78,0.31c-1.63,0.71-3.1,1.67-4.36,2.93c-0.2,0.2-0.4,0.39-0.6,0.59c-1.25,1.27-2.22,2.72-2.91,4.36
		C4.44,54.48,4.33,54.74,4.21,55c-0.65,1.66-0.99,3.38-1.02,5.17c0,0.28,0,0.55,0,0.83c0.05,1.77,0.37,3.5,1.03,5.15
		c0.11,0.25,0.22,0.51,0.33,0.76c0.7,1.64,1.67,3.1,2.92,4.37c0.2,0.19,0.4,0.39,0.59,0.58c1.25,1.28,2.73,2.23,4.36,2.94
		c0.26,0.1,0.52,0.2,0.78,0.31c1.65,0.7,3.38,1.03,5.16,1.03c0.27,0,0.55,0,0.82,0c1.79,0.01,3.51-0.34,5.16-1.03
		c0.27-0.1,0.54-0.21,0.8-0.31c1.62-0.73,3.09-1.68,4.34-2.94c0.2-0.19,0.39-0.38,0.59-0.57c1.23-1.29,2.23-2.73,2.91-4.38
		c0.1-0.24,0.2-0.48,0.31-0.73C33.63,64.84,33.96,63.52,34.28,62.19z"/>
	<path class="st1" d="M4.21,55c0.11-0.26,0.23-0.52,0.34-0.78c3.73,1.56,7.47,3.11,11.2,4.66c0.11,0.04,0.26-0.03,0.4-0.05
		c-0.04-0.14-0.04-0.33-0.13-0.42c-2.85-2.85-5.71-5.7-8.56-8.55c0.2-0.2,0.4-0.39,0.6-0.59c2.93,2.93,5.86,5.87,8.8,8.8
		c0.06-0.01,0.12-0.02,0.17-0.03c0.02-0.17,0.09-0.36,0.04-0.5c-0.17-0.48-0.38-0.94-0.57-1.41c-1.36-3.27-2.72-6.53-4.08-9.8
		c0.26-0.1,0.52-0.21,0.78-0.31c1.51,3.67,3.03,7.34,4.55,11c0.07,0.18,0.27,0.31,0.4,0.46c0.07-0.19,0.21-0.38,0.21-0.57
		c0.01-3.98,0.01-7.95,0.01-11.93c0.27,0,0.54,0,0.81,0c0,3.93,0,7.87,0.01,11.8c-0.54,0.92-1.08,1.84-1.64,2.75
		c-0.31,0.51-0.47,1.02-0.23,1.6c0.03,0.05,0.06,0.1,0.09,0.14c0.01,0.03,0.02,0.06,0.04,0.08c0.3,0.62,0.86,0.79,1.49,0.8
		c0.83,0.02,1.66,0.02,2.49,0.03c0.03,0.18-0.01,0.42,0.09,0.52c2.85,2.86,5.71,5.71,8.57,8.56c-0.2,0.19-0.39,0.38-0.59,0.57
		c-0.33-0.33-0.67-0.65-1-0.98c-2.48-2.48-4.96-4.97-7.45-7.45c-0.2-0.2-0.39-0.51-0.69-0.07c0.96,2.32,1.93,4.66,2.9,7
		c0.62,1.49,1.26,2.97,1.89,4.45c-0.27,0.1-0.54,0.21-0.8,0.31c-1.52-3.67-3.04-7.34-4.57-11.01c-0.07-0.18-0.27-0.3-0.41-0.45
		c-0.06,0.18-0.18,0.36-0.18,0.55c-0.01,3.98-0.01,7.96,0,11.94c-0.27,0-0.55,0-0.82,0c0-4,0.01-8,0-12.01
		c0-0.16-0.12-0.32-0.19-0.48c-0.13,0.11-0.31,0.19-0.37,0.33c-1.54,3.7-3.07,7.42-4.6,11.13c-0.26-0.1-0.52-0.2-0.78-0.31
		c1.59-3.82,3.19-7.64,4.77-11.44c-0.27-0.4-0.46-0.17-0.66,0.03c-2.82,2.83-5.65,5.65-8.47,8.47c-0.2-0.19-0.4-0.39-0.59-0.58
		c0.05-0.03,0.1-0.06,0.14-0.1c2.8-2.8,5.6-5.59,8.39-8.4c0.1-0.11,0.11-0.31,0.16-0.46c-0.17,0-0.36-0.06-0.51,0
		c-3.71,1.52-7.41,3.06-11.11,4.6c-0.11-0.25-0.22-0.51-0.33-0.76c3.72-1.53,7.44-3.07,11.16-4.61c0.13-0.05,0.21-0.22,0.31-0.34
		c-0.13-0.07-0.27-0.21-0.4-0.21c-4.03-0.01-8.07,0-12.1,0.01c0-0.28,0-0.55,0-0.83c4.02,0,8.03,0.01,12.05,0
		c0.15,0,0.3-0.14,0.45-0.22c-0.12-0.12-0.22-0.3-0.36-0.36c-0.95-0.41-1.9-0.8-2.85-1.2C9.72,57.26,6.97,56.13,4.21,55z
		 M15.55,60.86c0-0.01,0-0.03,0-0.04c-0.46,0-0.91,0-1.37,0c0,0.01,0,0.03,0,0.04C14.64,60.86,15.1,60.86,15.55,60.86z M3.51,60.86
		c0-0.01,0-0.03,0-0.04c-0.05,0-0.1,0-0.15,0c0,0.01,0,0.03,0,0.04C3.41,60.86,3.46,60.86,3.51,60.86z"/>
	<path class="st1" d="M67.02,66.9c-0.1-0.25-0.2-0.5-0.29-0.75c3.69-1.53,7.38-3.05,11.07-4.59c0.16-0.07,0.26-0.26,0.39-0.39
		c-0.16-0.07-0.32-0.19-0.48-0.19c-4-0.01-8,0-12.01,0c0-0.27,0-0.55,0-0.82c4.01,0,8.03,0.01,12.04,0c0.17,0,0.35-0.16,0.52-0.25
		c-0.02-0.06-0.04-0.12-0.05-0.19c-3.83-1.58-7.65-3.16-11.48-4.73c0.1-0.26,0.19-0.52,0.29-0.78c0.59,0.25,1.18,0.5,1.77,0.75
		c3.11,1.29,6.22,2.58,9.33,3.86c0.15,0.06,0.34,0.02,0.51,0.02c-0.05-0.16-0.05-0.37-0.16-0.47c-2.83-2.84-5.68-5.68-8.52-8.51
		c0.2-0.19,0.4-0.39,0.6-0.58c0.16,0.17,0.32,0.34,0.48,0.51c2.43,2.42,4.86,4.84,7.3,7.26c0.45,1.26,0.91,2.51,1.36,3.78
		c0.44,1.24,1.34,1.61,2.52,1.03c0.11,0.08,0.21,0.2,0.34,0.23c0.73,0.15,1.27-0.19,1.74-0.7c3.83,1.59,7.66,3.19,11.49,4.78
		c-0.11,0.25-0.21,0.5-0.32,0.74c-0.43-0.18-0.86-0.36-1.29-0.54c-3.22-1.34-6.44-2.67-9.66-4c-0.25-0.1-0.58-0.4-0.72,0.1
		c2.93,2.95,5.84,5.88,8.75,8.81c-0.19,0.2-0.38,0.39-0.57,0.59c-0.14-0.14-0.28-0.27-0.42-0.41c-2.69-2.69-5.38-5.38-8.07-8.07
		c-0.22-0.22-0.4-0.4-0.66-0.03c1.59,3.81,3.18,7.64,4.77,11.46c-0.26,0.1-0.52,0.19-0.78,0.29c-1.53-3.71-3.06-7.42-4.61-11.13
		c-0.06-0.13-0.21-0.23-0.31-0.34c-0.09,0.17-0.25,0.33-0.25,0.5c-0.01,4-0.01,8-0.01,12.01c-0.27,0-0.54,0-0.81,0
		c0-3.98,0.01-7.96,0-11.94c0-0.18-0.12-0.36-0.19-0.54c-0.14,0.15-0.34,0.27-0.41,0.45c-1.53,3.67-3.05,7.34-4.57,11.01
		c-0.25-0.09-0.5-0.19-0.75-0.28c1.53-3.7,3.07-7.4,4.59-11.11c0.06-0.15-0.01-0.36-0.02-0.55c-0.16,0.07-0.35,0.1-0.47,0.21
		c-2.83,2.82-5.65,5.64-8.47,8.47c-0.21-0.19-0.41-0.38-0.62-0.57c2.88-2.86,5.75-5.72,8.62-8.59c0.08-0.08,0.06-0.26,0.09-0.39
		c-0.17,0-0.36-0.05-0.51,0.01C74.43,63.83,70.72,65.37,67.02,66.9z M66.4,60.86c0-0.01,0-0.03,0-0.04c-0.15,0-0.31,0-0.46,0
		c0,0.01,0,0.03,0,0.04C66.09,60.86,66.25,60.86,66.4,60.86z M78,60.86c0-0.02,0-0.05,0-0.07c-0.11,0.01-0.22,0.02-0.33,0.03
		c0.06,0.05,0.11,0.06,0.17,0.06C77.89,60.88,77.94,60.87,78,60.86z"/>
	<path class="st3" d="M39.23,33.23c-0.45,0.12-0.12,0.4-0.07,0.54c0.79,2.3,1.61,4.6,2.41,6.89c1.55,4.39,3.09,8.78,4.64,13.17
		c0.06,0.16,0.13,0.32,0.2,0.49c-0.29,0.01-0.57,0.01-0.86,0.02c-0.51-1.43-1.01-2.85-1.52-4.28c-1.07-2.98-2.15-5.96-3.2-8.95
		c-0.71-2-1.37-4.01-2.06-6.01c-0.18-0.53-0.38-1.06-0.58-1.59c-0.29-0.73-0.07-1.08,0.71-1.08c5.99,0,11.99,0,17.98,0
		c3.57,0,7.15,0,10.72,0c0.21,0,0.42,0,0.66,0c-0.09,0.63-0.45,0.71-0.93,0.71c-9.14-0.01-18.27-0.01-27.41,0
		C39.68,33.14,39.46,33.2,39.23,33.23z"/>
	<path class="st5" d="M19.19,56.79c0-3.93,0-7.87-0.01-11.8c1.79,0.02,3.51,0.34,5.17,1.04c-0.96,2.34-1.93,4.68-2.89,7.02
		C20.71,54.3,19.95,55.54,19.19,56.79z"/>
	<path class="st5" d="M78.34,57.04c-2.43-2.42-4.86-4.84-7.3-7.26c-0.17-0.16-0.32-0.34-0.48-0.51c1.17-1.19,2.54-2.09,4.05-2.8
		c0.43,1.19,0.87,2.37,1.29,3.56C76.72,52.37,77.53,54.7,78.34,57.04z"/>
	<path class="st2" d="M30,45.55c4.4,3.39,6.89,7.85,7.46,13.37c-0.53,0.02-1.06,0.04-1.59,0.06c-0.13-1.87-0.6-3.66-1.36-5.36
		c-1.21-2.7-2.95-4.99-5.38-6.73C29.42,46.45,29.71,46,30,45.55z"/>
	<path class="st3" d="M30,45.55c-0.29,0.45-0.57,0.9-0.86,1.35c-0.27,0.45-0.54,0.9-0.8,1.35c-1.06,1.68-2.11,3.36-3.16,5.04
		c-0.04,0.06,0,0.16,0,0.24c0,0,0,0,0,0c-0.08,0.09-0.16,0.18-0.23,0.27c-0.67,1.05-1.33,2.09-2,3.14
		c-0.39,0.66-0.78,1.32-1.16,1.97c0,0.03,0.01,0.07,0.01,0.1c-0.33,0-0.66,0-1.17,0C25.75,50.76,30.82,42.62,36,34.3
		c0.12,0.46,0.21,0.77,0.29,1.08c-2,3.22-4.01,6.44-6.01,9.66C30.18,45.21,30.09,45.38,30,45.55z"/>
	<path class="st5" d="M34.28,58.94c-0.06,0.02-0.11,0.04-0.17,0.04c-3.45,0-6.9-0.01-10.35-0.01c0.08-0.05,0.16-0.11,0.25-0.15
		c3.1-1.28,6.21-2.56,9.31-3.84C33.64,56.3,33.96,57.62,34.28,58.94z"/>
	<path class="st6" d="M34.28,58.94c-0.32-1.32-0.64-2.64-0.96-3.96c-0.1-0.25-0.21-0.5-0.31-0.75c-0.71-1.63-1.68-3.1-2.93-4.37
		c-0.19-0.19-0.39-0.38-0.58-0.58c-0.39-0.34-0.78-0.69-1.17-1.03c0.27-0.45,0.54-0.9,0.8-1.35c2.43,1.73,4.17,4.02,5.38,6.73
		c0.76,1.7,1.23,3.49,1.36,5.36C35.34,58.97,34.81,58.95,34.28,58.94z"/>
	<path class="st1" d="M33.01,54.23c0.1,0.25,0.21,0.5,0.31,0.75c-3.1,1.28-6.21,2.56-9.31,3.84c-0.09,0.04-0.17,0.1-0.25,0.15
		c-0.65,0.01-1.31,0.03-1.96,0.04c0-0.03-0.01-0.07-0.01-0.1c0.18-0.08,0.35-0.16,0.53-0.24C25.87,57.19,29.44,55.71,33.01,54.23z"
		/>
	<path class="st2" d="M84.3,61.38c-0.47,0.51-1.02,0.84-1.74,0.7c-0.12-0.02-0.22-0.15-0.34-0.23c0.08-0.11,0.17-0.22,0.25-0.33
		c0.5-0.48,0.41-1.06,0.24-1.63c-0.23-0.77-0.49-1.52-0.74-2.28c0.28,0.05,0.57,0.09,0.85,0.14c0.15,0.1,0.29,0.2,0.44,0.3
		c0.17,0.17,0.34,0.35,0.51,0.52c0.11,0.14,0.22,0.29,0.33,0.43c0.07,0.32,0.14,0.65,0.21,0.97c0.02,0.03,0.03,0.07,0.02,0.11
		c0,0.32,0,0.64,0,0.96C84.33,61.15,84.32,61.26,84.3,61.38z"/>
	<path class="st1" d="M21.46,53.05c0.96-2.34,1.93-4.68,2.89-7.02c0.26,0.1,0.52,0.2,0.77,0.3c-0.41,0.97-0.81,1.93-1.22,2.9
		c-0.74,1.22-1.47,2.45-2.22,3.66C21.65,52.97,21.54,53,21.46,53.05z"/>
	<path class="st5" d="M23.91,49.23c0.41-0.97,0.81-1.93,1.22-2.9c0.16,0.07,0.32,0.13,0.48,0.2C25.04,47.43,24.48,48.33,23.91,49.23
		z"/>
	<path class="st3" d="M40.24,60.67c0,0.04,0.01,0.08,0.01,0.13c-0.01-0.03-0.03-0.06-0.04-0.09C40.21,60.7,40.23,60.68,40.24,60.67z
		"/>
	<path class="st3" d="M17.41,61.28c-0.03-0.05-0.06-0.1-0.09-0.14C17.35,61.19,17.38,61.23,17.41,61.28z"/>
	<path class="st4" d="M52,49.23c-0.48,0.03-0.96,0.04-1.44,0.1c-0.17,0.02-0.43,0.15-0.46,0.28c-0.44,1.71-0.85,3.42-1.27,5.14
		c-0.08,0.19-0.17,0.38-0.22,0.58c-0.44,1.73-0.86,3.47-1.31,5.19c-0.07,0.25-0.23,0.48-0.35,0.71c-0.93,0.27-1.38-0.17-1.15-1.12
		c0.44-1.79,0.89-3.58,1.33-5.37c0.03-0.13,0.04-0.27,0.06-0.4c0.35-1.35,0.7-2.7,1.05-4.05c0.08-0.3,0.15-0.59,0.24-0.91
		c-0.58-0.06-1.11-0.11-1.64-0.17C48.56,49.22,50.28,49.22,52,49.23z"/>
	<path class="st2" d="M46.95,61.24c0.12-0.24,0.29-0.46,0.35-0.71c0.45-1.73,0.87-3.46,1.31-5.19c0.05-0.2,0.15-0.39,0.22-0.58
		c0.23,0.1,0.45,0.19,0.68,0.29c0.01,0.04,0.02,0.08,0.03,0.12c-0.16,0.51-0.34,1.02-0.47,1.54c-0.34,1.33-0.64,2.68-0.98,4.01
		C47.94,61.29,47.51,61.48,46.95,61.24z"/>
	<path class="st1" d="M96.03,51.67c-0.15-0.24-0.31-0.48-0.46-0.72C96,51.01,96.04,51.33,96.03,51.67z"/>
	<path class="st1" d="M95.9,69.67c0.12-0.2,0.24-0.41,0.37-0.61C96.14,69.26,96.02,69.46,95.9,69.67z"/>
	<path class="st1" d="M96.28,52.12c-0.06-0.1-0.12-0.19-0.18-0.29C96.16,51.93,96.22,52.02,96.28,52.12z"/>
	<path class="st1" d="M95.67,70.03c0.08-0.12,0.16-0.24,0.23-0.36C95.82,69.78,95.74,69.91,95.67,70.03z"/>
	<path class="st1" d="M95.48,70.28c0.03-0.04,0.06-0.09,0.1-0.13C95.55,70.2,95.52,70.24,95.48,70.28z"/>
	<path class="st1" d="M96.1,51.81c-0.03-0.05-0.05-0.09-0.08-0.14C96.05,51.71,96.07,51.76,96.1,51.81z"/>
	<path class="st5" d="M81.66,44.99c1.79,0.01,3.52,0.34,5.17,1.04c-1.54,3.74-3.08,7.48-4.63,11.22c-0.04,0.1-0.14,0.18-0.21,0.26
		c-0.12-0.28-0.24-0.56-0.36-0.84c0.01-0.27,0.02-0.54,0.02-0.82C81.66,52.24,81.66,48.62,81.66,44.99z"/>
	<path class="st5" d="M77.67,45.39c1.05-0.13,2.11-0.26,3.16-0.39c0.01,0.06,0.03,0.12,0.04,0.18c0,0.09,0,0.18,0,0.27
		c0,0.06,0,0.13,0,0.19c0,2.63,0,5.26,0,7.89c0,0.1,0,0.2,0,0.3c0,0.14,0.01,0.28,0.01,0.43c-0.06-0.04-0.15-0.06-0.17-0.11
		C79.69,51.24,78.68,48.32,77.67,45.39z"/>
	<path class="st1" d="M81.99,57.52c0.07-0.09,0.17-0.16,0.21-0.26c1.55-3.74,3.09-7.48,4.63-11.22c0.26,0.1,0.52,0.21,0.78,0.31
		c-0.74,1.76-1.47,3.52-2.21,5.27c-0.86,2.04-1.72,4.08-2.58,6.13c-0.28-0.05-0.57-0.09-0.85-0.14
		C81.98,57.58,81.99,57.55,81.99,57.52z"/>
	<path class="st1" d="M80.87,45.46c0-0.09,0-0.18,0-0.27c0.02-0.06,0.03-0.12,0.05-0.18c0.25,0,0.5-0.01,0.74-0.01
		c0,3.62,0,7.25-0.01,10.87c0,0.27-0.01,0.54-0.02,0.82c-0.25-0.8-0.5-1.61-0.75-2.41c0-0.14-0.01-0.28-0.01-0.43c0-0.1,0-0.2,0-0.3
		c0-2.63,0-5.26,0-7.89C80.87,45.59,80.87,45.52,80.87,45.46z"/>
	<path class="st1" d="M33.06,70.2c0.09-0.14,0.18-0.28,0.28-0.41C33.25,69.92,33.16,70.06,33.06,70.2z"/>
	<path class="st1" d="M33.42,69.63c0.06-0.1,0.12-0.19,0.18-0.29C33.54,69.44,33.48,69.54,33.42,69.63z"/>
	<path class="st1" d="M33.77,69.05c0.06-0.1,0.11-0.2,0.17-0.31C33.89,68.85,33.83,68.95,33.77,69.05z"/>
	<path class="st1" d="M33.33,69.79c0.03-0.05,0.05-0.09,0.08-0.14C33.39,69.69,33.36,69.74,33.33,69.79z"/>
	<path class="st1" d="M33.6,69.34c0.03-0.05,0.06-0.1,0.09-0.15C33.67,69.25,33.64,69.29,33.6,69.34z"/>
	<path class="st1" d="M33.69,69.21c0.03-0.05,0.05-0.1,0.08-0.14C33.74,69.11,33.72,69.16,33.69,69.21z"/>
	<path class="st5" d="M30.09,71.28c-2.86-2.85-5.72-5.7-8.57-8.56c-0.1-0.1-0.07-0.35-0.09-0.52c0.1,0,0.21,0,0.32,0.01
		c0.12,0.06,0.24,0.13,0.36,0.18c3.63,1.5,7.26,3.01,10.9,4.51C32.32,68.54,31.32,69.99,30.09,71.28z"/>
	<path class="st5" d="M34.28,62.19c-0.33,1.33-0.65,2.65-0.98,3.98c-0.09-0.04-0.17-0.08-0.26-0.12c-3.08-1.28-6.16-2.57-9.24-3.85
		c1.46-0.01,2.91-0.03,4.37-0.03C30.21,62.16,32.25,62.18,34.28,62.19z"/>
	<path class="st1" d="M23.8,62.2c3.08,1.28,6.16,2.57,9.24,3.85c0.09,0.04,0.18,0.08,0.26,0.12c-0.1,0.24-0.2,0.48-0.31,0.73
		c-3.63-1.5-7.26-3-10.9-4.51c-0.12-0.05-0.24-0.12-0.36-0.18C22.43,62.2,23.12,62.2,23.8,62.2z"/>
	<path class="st2" d="M46.14,71.95c-0.08-0.01-0.15-0.01-0.23-0.02C45.99,71.94,46.06,71.95,46.14,71.95z"/>
	<path class="st1" d="M52,49.23c-1.72,0-3.44-0.01-5.17-0.01c-0.43-0.2-0.63-0.53-0.49-0.99c0.13-0.44,0.48-0.56,0.91-0.55
		c1.44,0.01,2.88,0.01,4.32,0c0.46,0,0.83,0.12,0.95,0.59C52.66,48.72,52.43,49.04,52,49.23z"/>
	<path class="st5" d="M82.82,57.74c0.86-2.04,1.72-4.08,2.58-6.13c0.74-1.76,1.47-3.52,2.21-5.27c1.64,0.7,3.11,1.66,4.36,2.93
		c-1.29,1.29-2.58,2.59-3.87,3.89c-1.61,1.63-3.23,3.26-4.84,4.89C83.12,57.95,82.97,57.84,82.82,57.74z"/>
	<path class="st5" d="M84.34,60.08c0.01-0.04,0-0.08-0.02-0.11c0.14-0.13,0.25-0.32,0.42-0.39c1.14-0.5,2.29-0.97,3.45-1.45
		c2.54-1.04,5.08-2.08,7.62-3.12c0.71,1.65,1,3.38,1.04,5.17c-3.98,0-7.97,0-11.95,0C84.71,60.18,84.52,60.11,84.34,60.08z"/>
	<path class="st5" d="M66.73,55c3.83,1.58,7.65,3.16,11.48,4.73c0.02,0.06,0.04,0.12,0.05,0.19c-0.17,0.09-0.35,0.25-0.52,0.25
		c-4.01,0.01-8.03,0-12.04,0C65.7,58.37,66.03,56.65,66.73,55z"/>
	<path class="st5" d="M81.66,76.13c0-4-0.01-8,0.01-12.01c0-0.17,0.16-0.33,0.25-0.5c0.11,0.11,0.26,0.21,0.31,0.34
		c1.54,3.71,3.07,7.42,4.61,11.13C85.18,75.8,83.45,76.13,81.66,76.13z"/>
	<path class="st5" d="M84.1,59c-0.11-0.14-0.22-0.29-0.33-0.43c0.14-0.13,0.29-0.25,0.43-0.39c2.78-2.77,5.56-5.55,8.35-8.32
		c1.27,1.25,2.25,2.71,2.92,4.36c-1.77,0.74-3.54,1.48-5.32,2.22C88.14,57.3,86.12,58.15,84.1,59z"/>
	<path class="st5" d="M70.56,71.84c2.82-2.82,5.64-5.65,8.47-8.47c0.11-0.11,0.31-0.14,0.47-0.21c0.01,0.18,0.08,0.39,0.02,0.55
		c-1.52,3.71-3.06,7.41-4.59,11.11C73.31,74.06,71.8,73.14,70.56,71.84z"/>
	<path class="st5" d="M67.02,66.9c3.71-1.53,7.41-3.07,11.12-4.6c0.15-0.06,0.34-0.01,0.51-0.01c-0.03,0.13-0.01,0.31-0.09,0.39
		c-2.87,2.87-5.74,5.73-8.62,8.59C68.71,69.98,67.74,68.53,67.02,66.9z"/>
	<path class="st5" d="M92.55,71.27c-2.91-2.93-5.83-5.87-8.75-8.81c0.15-0.5,0.47-0.2,0.72-0.1c3.22,1.33,6.44,2.66,9.66,4
		c0.43,0.18,0.86,0.36,1.29,0.54C94.79,68.55,93.82,70.01,92.55,71.27z"/>
	<path class="st5" d="M87.61,74.8c-1.59-3.83-3.19-7.66-4.77-11.46c0.26-0.37,0.45-0.18,0.66,0.03c2.69,2.69,5.38,5.38,8.07,8.07
		c0.14,0.14,0.28,0.27,0.42,0.41C90.72,73.12,89.24,74.08,87.61,74.8z"/>
	<path class="st5" d="M69.96,49.85c2.84,2.84,5.69,5.67,8.52,8.51c0.1,0.1,0.11,0.31,0.16,0.47c-0.17,0-0.36,0.04-0.51-0.02
		c-3.11-1.28-6.22-2.57-9.33-3.86c-0.59-0.25-1.18-0.5-1.77-0.75C67.75,52.6,68.71,51.13,69.96,49.85z"/>
	<path class="st5" d="M75.68,75.1c1.52-3.67,3.04-7.34,4.57-11.01c0.07-0.18,0.27-0.3,0.41-0.45c0.07,0.18,0.19,0.36,0.19,0.54
		c0.01,3.98,0,7.96,0,11.94C79.05,76.13,77.33,75.78,75.68,75.1z"/>
	<path class="st5" d="M84.3,61.38c0.01-0.11,0.03-0.23,0.04-0.34c0.13-0.02,0.27-0.06,0.4-0.06c4.03,0,8.07,0,12.1,0.01
		c-0.04,1.79-0.34,3.52-1.04,5.17C91.96,64.56,88.13,62.97,84.3,61.38z"/>
	<path class="st5" d="M65.7,60.99c4,0,8-0.01,12.01,0c0.16,0,0.32,0.12,0.48,0.19c-0.13,0.13-0.24,0.32-0.39,0.39
		c-3.69,1.54-7.38,3.06-11.07,4.59C66.05,64.5,65.7,62.78,65.7,60.99z"/>
	<path class="st1" d="M84.1,59c2.02-0.85,4.03-1.7,6.05-2.55c1.77-0.74,3.54-1.48,5.32-2.22c0.11,0.26,0.22,0.52,0.33,0.78
		c-2.54,1.04-5.08,2.08-7.62,3.12c-1.15,0.47-2.3,0.95-3.45,1.45c-0.16,0.07-0.28,0.26-0.42,0.39C84.25,59.64,84.18,59.32,84.1,59z"
		/>
	<path class="st1" d="M96.84,60.99c-4.03,0-8.07-0.01-12.1-0.01c-0.13,0-0.27,0.04-0.4,0.06c0-0.32,0-0.64,0-0.96
		c0.18,0.03,0.37,0.1,0.55,0.1c3.98,0,7.97,0,11.95,0C96.84,60.45,96.84,60.72,96.84,60.99z"/>
	<path class="st1" d="M92.55,49.87c-2.78,2.77-5.56,5.55-8.35,8.32c-0.14,0.14-0.29,0.26-0.43,0.39c-0.17-0.17-0.34-0.35-0.51-0.52
		c1.61-1.63,3.22-3.26,4.84-4.89c1.29-1.3,2.58-2.59,3.87-3.89C92.16,49.47,92.36,49.67,92.55,49.87z"/>
	<path class="st3" d="M80.92,45c-0.02,0.06-0.03,0.12-0.05,0.18c-0.01-0.06-0.03-0.12-0.04-0.18C80.86,44.99,80.89,44.99,80.92,45z"
		/>
	<path class="st5" d="M4.21,55c2.75,1.13,5.51,2.26,8.26,3.39c0.95,0.39,1.91,0.78,2.85,1.2c0.15,0.06,0.24,0.24,0.36,0.36
		c-0.15,0.08-0.3,0.22-0.45,0.22c-4.02,0.01-8.03,0-12.05,0C3.22,58.38,3.57,56.66,4.21,55z"/>
	<path class="st5" d="M7.47,49.86c2.86,2.85,5.71,5.69,8.56,8.55c0.09,0.09,0.09,0.28,0.13,0.42c-0.13,0.02-0.29,0.09-0.4,0.05
		c-3.74-1.55-7.47-3.1-11.2-4.66C5.25,52.58,6.22,51.13,7.47,49.86z"/>
	<path class="st5" d="M25.16,74.79c-0.63-1.48-1.27-2.96-1.89-4.45c-0.98-2.33-1.94-4.67-2.9-7c0.3-0.44,0.49-0.12,0.69,0.07
		c2.48,2.48,4.96,4.97,7.45,7.45c0.33,0.33,0.67,0.65,1,0.98C28.25,73.11,26.77,74.06,25.16,74.79z"/>
	<path class="st5" d="M18.37,44.99c0,3.98,0.01,7.95-0.01,11.93c0,0.19-0.14,0.38-0.21,0.57c-0.14-0.15-0.33-0.28-0.4-0.46
		c-1.52-3.66-3.04-7.33-4.55-11C14.86,45.34,16.59,45.01,18.37,44.99z"/>
	<path class="st5" d="M13.21,75.09c1.53-3.71,3.06-7.42,4.6-11.13c0.06-0.14,0.24-0.22,0.37-0.33c0.07,0.16,0.19,0.32,0.19,0.48
		c0.01,4,0,8,0,12.01C16.58,76.12,14.86,75.8,13.21,75.09z"/>
	<path class="st5" d="M8.06,71.85c2.82-2.82,5.65-5.65,8.47-8.47c0.21-0.21,0.39-0.43,0.66-0.03c-1.58,3.8-3.18,7.62-4.77,11.44
		C10.79,74.08,9.32,73.12,8.06,71.85z"/>
	<path class="st5" d="M19.19,76.13c0-3.98-0.01-7.96,0-11.94c0-0.18,0.12-0.36,0.18-0.55c0.14,0.15,0.34,0.27,0.41,0.45
		c1.53,3.67,3.05,7.34,4.57,11.01C22.7,75.79,20.98,76.14,19.19,76.13z"/>
	<path class="st5" d="M4.55,66.9c3.7-1.53,7.4-3.07,11.11-4.6c0.14-0.06,0.34,0,0.51,0c-0.05,0.16-0.06,0.36-0.16,0.46
		c-2.79,2.81-5.59,5.6-8.39,8.4c-0.04,0.04-0.09,0.07-0.14,0.1C6.21,70,5.25,68.54,4.55,66.9z"/>
	<path class="st5" d="M12.42,46.35c1.36,3.27,2.72,6.53,4.08,9.8c0.19,0.47,0.41,0.93,0.57,1.41c0.05,0.15-0.02,0.33-0.04,0.5
		c-0.06,0.01-0.12,0.02-0.17,0.03c-2.93-2.93-5.86-5.87-8.8-8.8C9.32,48.01,10.79,47.05,12.42,46.35z"/>
	<path class="st5" d="M3.19,60.99c4.03-0.01,8.07-0.01,12.1-0.01c0.13,0,0.27,0.14,0.4,0.21c-0.1,0.11-0.18,0.28-0.31,0.34
		c-3.72,1.54-7.44,3.08-11.16,4.61C3.56,64.49,3.24,62.77,3.19,60.99z"/>
	<path class="st2" d="M15.55,60.86c-0.46,0-0.91,0-1.37,0c0-0.01,0-0.03,0-0.04c0.46,0,0.91,0,1.37,0
		C15.55,60.83,15.55,60.85,15.55,60.86z"/>
	<path class="st2" d="M3.51,60.86c-0.05,0-0.1,0-0.15,0c0-0.01,0-0.03,0-0.04c0.05,0,0.1,0,0.15,0C3.51,60.84,3.51,60.85,3.51,60.86
		z"/>
	<path class="st2" d="M66.4,60.86c-0.15,0-0.31,0-0.46,0c0-0.01,0-0.03,0-0.04c0.15,0,0.31,0,0.46,0
		C66.4,60.83,66.4,60.85,66.4,60.86z"/>
	<path class="st2" d="M78,60.86c-0.05,0.01-0.11,0.02-0.16,0.02c-0.05,0-0.11-0.01-0.17-0.06c0.11-0.01,0.22-0.02,0.33-0.03
		C77.99,60.82,77.99,60.84,78,60.86z"/>
	<path class="st5" d="M33.01,54.23c-3.57,1.48-7.14,2.96-10.7,4.44c-0.18,0.07-0.35,0.16-0.53,0.24c0.39-0.66,0.78-1.32,1.16-1.98
		c0.14-0.13,0.29-0.26,0.43-0.39c2.24-2.23,4.48-4.45,6.72-6.68C31.33,51.13,32.3,52.6,33.01,54.23z"/>
	<path class="st1" d="M30.08,49.86c-2.24,2.23-4.48,4.46-6.72,6.68c-0.14,0.14-0.29,0.26-0.43,0.39c0.67-1.05,1.33-2.09,2-3.14
		c0.08-0.09,0.16-0.18,0.23-0.27c0,0,0,0,0,0c0.1-0.08,0.22-0.15,0.31-0.25c1.34-1.33,2.68-2.67,4.02-4
		C29.7,49.47,29.89,49.67,30.08,49.86z"/>
	<path class="st5" d="M29.5,49.28c-1.34,1.33-2.68,2.67-4.02,4c-0.09,0.09-0.21,0.16-0.31,0.25c0-0.08-0.04-0.18,0-0.24
		c1.05-1.68,2.11-3.36,3.16-5.04C28.72,48.59,29.11,48.94,29.5,49.28z"/>
	<path class="st5" d="M25.17,53.53c-0.08,0.09-0.16,0.18-0.23,0.27C25.02,53.71,25.09,53.62,25.17,53.53z"/>
	<path class="st3" d="M80.87,53.55c0,0.1,0,0.2,0,0.3C80.87,53.75,80.87,53.65,80.87,53.55z"/>
	<path class="st3" d="M80.87,45.46c0,0.06,0,0.13,0,0.19C80.87,45.59,80.87,45.52,80.87,45.46z"/>
</g>
</svg>
