<?xml version="1.0" encoding="utf-8"?>
<!-- Generator: Adobe Illustrator 23.0.3, SVG Export Plug-In . SVG Version: 6.00 Build 0)  -->
<svg version="1.1" id="Vrstva_1" xmlns="http://www.w3.org/2000/svg" xmlns:xlink="http://www.w3.org/1999/xlink" x="0px" y="0px"
	 viewBox="0 0 100 100" style="enable-background:new 0 0 100 100;" xml:space="preserve">
<style type="text/css">
	.st0{fill:#FDB301;}
	.st1{fill:#050303;}
	.st2{fill:#DAA876;}
	.st3{fill:#BD8E63;}
	.st4{fill:#E6B37C;}
	.st5{fill:#E5B27B;}
	.st6{fill:#D58650;}
	.st7{fill:#A75E31;}
</style>
<g>
	<path class="st0" d="M233.5-163.2c0.2,0.5,0.3,0.9,0.5,1.4c1.2,2.5,3.2,3.8,5.9,3.9c0.1,0,0.2,0,0.3,0c0,0.4,0,0.8-0.2,1.1
		c-0.5,0.8-0.5,1,0.1,1.8c0.2,0.3,0.2,0.9,0,1.1c0,0-0.1,0.1-0.1,0.1c-0.5,0.8-0.5,0.9,0,1.7c0.2,0.3,0.2,0.8,0,1.1
		c-0.1,0.1-0.1,0.2-0.2,0.3c-0.4,0.7-0.3,1.1,0.2,1.7c0.2,0.2,0.2,0.8,0.1,1c0,0.1-0.1,0.1-0.1,0.1c-0.5,0.6-0.4,1.1,0.1,1.7
		c0.2,0.2,0.2,0.7,0,1c0,0-0.1,0.1-0.1,0.1c-0.5,0.7-0.4,1.2,0.1,1.8c0.2,0.3,0.2,0.7,0,1c-0.6,0.8-0.5,1.2,0,2c0.2,0.3,0.2,0.7,0,1
		c-0.5,0.7-0.5,1.1,0,1.9c0.2,0.3,0.2,0.8,0,1.1c-0.5,0.6-0.5,1.2,0,1.8c0.2,0.2,0.2,0.8,0,1c-0.6,0.8-0.5,1.2,0,1.9
		c0.1,0.2,0.1,0.7,0,1c-0.6,0.8-0.6,1.3,0,2c0.1,0.2,0.1,0.6,0,0.8c-0.1,0.1-0.2,0.2-0.2,0.3c-0.4,0.7-0.4,1.2,0.2,1.8
		c0.2,0.3,0.2,0.6,0,0.9c-0.6,0.8-0.5,1.3,0,2c0.1,0.1,0.1,0.4,0.2,0.6c-0.6,0.1-1.2,0.2-1.7,0.4c-1.9,0.5-3.4,1.6-4.4,3.4
		c-0.5,0.9-0.8,1.9-0.9,2.9c0,0.1,0,0.2,0,0.3c0,0,0,0,0,0.1c-28.6,0-57.3,0-85.9,0c-0.2-0.8-0.3-1.6-0.6-2.3
		c-0.8-2.2-2.3-3.6-4.4-4.3c-0.6-0.2-1.2-0.3-1.8-0.4c-0.3-0.1-0.4-0.4-0.2-0.7c0.1-0.1,0.1-0.2,0.2-0.2c0.4-0.6,0.4-1.2-0.1-1.7
		c-0.3-0.4-0.3-0.7,0-1c0.6-0.7,0.5-1.2,0-2c-0.3-0.4-0.3-0.7,0-1.1c0.4-0.6,0.4-1.2,0-1.8c-0.3-0.4-0.3-0.8,0-1.2
		c0.4-0.6,0.4-1.1,0-1.7c-0.3-0.3-0.3-0.8,0-1.1c0.5-0.6,0.5-1.1,0.1-1.7c-0.3-0.5-0.3-0.8,0-1.3c0.5-0.7,0.4-1.2-0.1-1.8
		c-0.2-0.3-0.2-0.7,0-1c0.6-0.7,0.6-1.2,0-2c-0.2-0.3-0.2-0.7,0-1c0.5-0.6,0.5-1.2,0-1.8c-0.3-0.4-0.3-0.8,0-1.2
		c0.5-0.5,0.4-1,0-1.6c-0.3-0.4-0.3-0.8,0-1.2c0.5-0.7,0.5-1-0.1-1.8c-0.3-0.4-0.3-0.9,0-1.2c0.5-0.6,0.5-1,0-1.6
		c-0.3-0.4-0.3-0.9,0-1.3c0.5-0.7,0.5-0.9,0-1.7c-0.2-0.4-0.2-0.7-0.2-1.1c0.7-0.1,1.3-0.1,1.9-0.3c2.5-0.7,4-2.4,4.8-5
		c0.1-0.2,0.1-0.4,0.2-0.6c0.1-0.2,0.1-0.4,0.2-0.5c0.1-0.5,0.1-0.5,0.6-0.5c18.3,0,36.6,0,54.9,0c0.3,0,0.6,0,0.9,0
		c0.9,0,1.7,0,2.6,0c8.8,0,17.6,0,26.4,0c0.3,0,0.4,0.1,0.5,0.4C233.2-164.1,233.3-163.7,233.5-163.2
		C233.4-163.3,233.4-163.3,233.5-163.2C233.4-163.3,233.4-163.3,233.5-163.2C233.4-163.2,233.5-163.2,233.5-163.2z M190.3-159.2
		c-7.3,0-14.7,0-22,0c-4.1,0-8.2,0-12.3,0c-2.1,0-3.7,1.8-3.7,3.9c0,10.3,0,20.6,0,31c0,0.3,0,0.6,0.1,0.9c0.4,1.8,1.8,3,3.8,3
		c2.3,0,4.6,0,6.9,0c20.5,0,41,0,61.5,0c2.1,0,3.7-1.7,3.7-4c0-2.4,0-4.8,0-7.2c0-7.9,0-15.8,0-23.6c0-0.5-0.1-1.1-0.3-1.5
		c-0.7-1.6-1.9-2.4-3.6-2.4C213-159.2,201.6-159.2,190.3-159.2z"/>
	<path class="st1" d="M233.5-163.2C233.5-163.2,233.4-163.2,233.5-163.2C233.4-163.3,233.4-163.3,233.5-163.2
		C233.4-163.3,233.5-163.3,233.5-163.2z"/>
	<path class="st1" d="M190.3-159.2c11.4,0,22.8,0,34.1,0c1.7,0,2.9,0.7,3.6,2.4c0.2,0.5,0.3,1,0.3,1.5c0,7.9,0,15.8,0,23.6
		c0,2.4,0,4.8,0,7.2c0,2.3-1.6,4-3.7,4c-20.5,0-41,0-61.5,0c-2.3,0-4.6,0-6.9,0c-1.9,0-3.3-1.2-3.8-3c-0.1-0.3-0.1-0.6-0.1-0.9
		c0-10.3,0-20.6,0-31c0-2.1,1.6-3.9,3.7-3.9c4.1,0,8.2,0,12.3,0C175.6-159.2,182.9-159.2,190.3-159.2z M190.3-121.4
		c11.4,0,22.8,0,34.3,0c1.7,0,2.9-1.3,2.9-3.1c0-10.2,0-20.5,0-30.7c0-1.5-1-3.1-3-3.1c-22.8,0-45.5,0-68.3,0c-0.1,0-0.3,0-0.4,0
		c-1.5,0.2-2.6,1.4-2.6,3c0,10.3,0,20.5,0,30.8c0,1.7,1.2,3,2.9,3c2.8,0,5.6,0,8.4,0C173-121.4,181.6-121.4,190.3-121.4z"/>
	<path class="st0" d="M190.3-121.4c-8.6,0-17.3,0-25.9,0c-2.8,0-5.6,0-8.4,0c-1.6,0-2.9-1.3-2.9-3c0-10.3,0-20.5,0-30.8
		c0-1.6,1.1-2.9,2.6-3c0.1,0,0.3,0,0.4,0c22.8,0,45.5,0,68.3,0c2,0,3,1.6,3,3.1c0,10.2,0,20.5,0,30.7c0,1.8-1.2,3.1-2.9,3.1
		C213.1-121.4,201.7-121.4,190.3-121.4z M200.1-131.3c0-0.1-0.1-0.2-0.1-0.2c-1.6-3.1-3.2-6.3-4.8-9.4c-0.1-0.2-0.1-0.4,0-0.6
		c1.4-2.5,2.9-4.9,4.3-7.4c0.1-0.1,0.1-0.3,0.2-0.4c-1.3,0-2.6,0-3.9,0c-0.2,0-0.3,0.1-0.4,0.3c-0.8,1.6-1.5,3.3-2.3,4.9
		c-0.2,0.3-0.4,0.6-0.6,0.9c-0.2,0.2-0.5,0.2-0.6-0.1c-0.1-0.3-0.2-0.6-0.2-1c0-1.2,0-2.4,0-3.6c0-0.5,0-0.9,0-1.4
		c-1.3,0-2.5,0-3.8,0c0,6,0,12.1,0,18.1c1.3,0,2.7,0,4,0c0-0.1,0-0.2,0-0.4c0-1.3,0-2.7,0-4c0-0.6,0.3-1.2,0.6-1.7
		c0.3-0.4,0.6-0.4,0.8,0c0.2,0.4,0.5,0.8,0.6,1.3c0.6,1.5,1.1,3,1.6,4.5c0.1,0.2,0.1,0.3,0.3,0.3c1.3,0,2.7,0,4,0
		C200-131.3,200-131.3,200.1-131.3z M211.2-135c-1.8,0-3.6,0-5.4,0c0-1.3,0-2.7,0-4c1.7,0,3.3,0,4.9,0c0-1,0-2,0-3c-1.7,0-3.4,0-5,0
		c0-1.2,0-2.3,0-3.5c1.8,0,3.7,0,5.5,0c0-1.3,0-2.5,0-3.8c-3.2,0-6.3,0-9.5,0c0,6,0,12.1,0,18.1c3.2,0,6.3,0,9.5,0
		C211.2-132.5,211.2-133.8,211.2-135z M181.8-138c0,0.5,0,0.9,0,1.4c0,0.7-0.1,1.3-0.4,1.9c-0.2,0.4-0.5,0.6-1,0.7
		c-1.1,0-2-0.8-2-2.1c0-2.8,0-5.6,0-8.4c0-0.4,0.1-0.8,0.3-1.1c0.4-0.9,2-1.1,2.5-0.2c0.2,0.4,0.4,0.8,0.5,1.2
		c0.1,0.5,0.1,1,0.2,1.5c1.2,0,2.5,0,3.7,0c0.1-1.2-0.3-3.2-1.1-4.3c-0.3-0.5-0.6-0.9-1.1-1.2c-2.2-1.2-4.3-1.1-6.5,0.1
		c-0.5,0.3-0.9,0.7-1.3,1.3c-0.7,1.2-0.9,2.6-0.9,4c0,2,0,4,0,6c0,1,0.2,2,0.6,2.9c0.5,1.2,1.2,2.2,2.4,2.7c1.1,0.5,2.2,0.7,3.4,0.5
		c1.1-0.2,2.1-0.5,2.9-1.3c1.1-1.1,1.7-2.5,1.8-4.1c0-0.5,0-1-0.1-1.6C184.3-138,183.1-138,181.8-138z M216.1-145.8
		c0,5,0,9.9,0,14.8c1.4,0,2.8,0,4.2,0c0-4.9,0-9.8,0-14.7c1.2,0,2.4,0,3.5,0c0-1.3,0-2.5,0-3.7c-3.7,0-7.3,0-11,0c0,1.2,0,2.4,0,3.6
		C213.9-145.8,215-145.8,216.1-145.8z M166.6-145.7c0-1.3,0-2.5,0-3.7c-3.3,0-6.6,0-9.9,0c0,1.2,0,2.4,0,3.6c1,0,1.9,0,2.9,0
		c0,4.9,0,9.8,0,14.7c1.3,0,2.5,0,3.8,0c0-4.9,0-9.8,0-14.6C164.5-145.7,165.5-145.7,166.6-145.7z M172.6-131c0-6.1,0-12.2,0-18.3
		c-1.4,0-2.7,0-4.1,0c0,6.1,0,12.2,0,18.3C169.9-131,171.2-131,172.6-131z"/>
	<path class="st1" d="M200.1-131.3c-0.1,0-0.1,0-0.2,0c-1.3,0-2.7,0-4,0c-0.2,0-0.3-0.1-0.3-0.3c-0.5-1.5-1.1-3-1.6-4.5
		c-0.2-0.4-0.4-0.9-0.6-1.3c-0.3-0.4-0.6-0.4-0.8,0c-0.4,0.5-0.6,1-0.6,1.7c0,1.3,0,2.7,0,4c0,0.1,0,0.2,0,0.4c-1.3,0-2.7,0-4,0
		c0-6,0-12.1,0-18.1c1.3,0,2.5,0,3.8,0c0,0.5,0,0.9,0,1.4c0,1.2,0,2.4,0,3.6c0,0.3,0.1,0.7,0.2,1c0.1,0.3,0.4,0.4,0.6,0.1
		c0.2-0.3,0.5-0.6,0.6-0.9c0.8-1.6,1.5-3.3,2.3-4.9c0.1-0.2,0.2-0.3,0.4-0.3c1.3,0,2.6,0,3.9,0c-0.1,0.2-0.2,0.3-0.2,0.4
		c-1.4,2.5-2.9,4.9-4.3,7.4c-0.1,0.2-0.1,0.4,0,0.6c1.6,3.1,3.2,6.3,4.8,9.4C200-131.5,200.1-131.4,200.1-131.3z"/>
	<path class="st1" d="M211.2-135c0,1.3,0,2.5,0,3.8c-3.2,0-6.3,0-9.5,0c0-6,0-12,0-18.1c3.2,0,6.3,0,9.5,0c0,1.2,0,2.5,0,3.8
		c-1.8,0-3.7,0-5.5,0c0,1.2,0,2.3,0,3.5c1.7,0,3.3,0,5,0c0,1,0,2,0,3c-1.6,0-3.3,0-4.9,0c0,1.3,0,2.7,0,4
		C207.6-135,209.4-135,211.2-135z"/>
	<path class="st1" d="M181.8-138c1.3,0,2.5,0,3.8,0c0,0.5,0.1,1,0.1,1.6c-0.1,1.6-0.7,3-1.8,4.1c-0.8,0.8-1.8,1.1-2.9,1.3
		c-1.2,0.2-2.3,0-3.4-0.5c-1.2-0.5-1.9-1.5-2.4-2.7c-0.4-0.9-0.6-1.9-0.6-2.9c0-2,0-4,0-6c0-1.4,0.2-2.8,0.9-4
		c0.3-0.5,0.7-1,1.3-1.3c2.2-1.2,4.3-1.3,6.5-0.1c0.5,0.3,0.8,0.7,1.1,1.2c0.7,1.1,1.2,3.1,1.1,4.3c-1.2,0-2.5,0-3.7,0
		c0-0.5-0.1-1-0.2-1.5c-0.1-0.4-0.3-0.9-0.5-1.2c-0.5-0.9-2.1-0.7-2.5,0.2c-0.2,0.3-0.3,0.7-0.3,1.1c0,2.8,0,5.6,0,8.4
		c0,1.2,0.9,2.1,2,2.1c0.5,0,0.8-0.2,1-0.7c0.3-0.6,0.4-1.3,0.4-1.9C181.9-137.1,181.8-137.5,181.8-138z"/>
	<path class="st1" d="M216.1-145.8c-1.1,0-2.2,0-3.2,0c0-1.2,0-2.4,0-3.6c3.7,0,7.3,0,11,0c0,1.2,0,2.4,0,3.7c-1.2,0-2.3,0-3.5,0
		c0,4.9,0,9.8,0,14.7c-1.4,0-2.8,0-4.2,0C216.1-135.9,216.1-140.8,216.1-145.8z"/>
	<path class="st1" d="M166.6-145.7c-1.1,0-2.1,0-3.2,0c0,4.9,0,9.8,0,14.6c-1.3,0-2.5,0-3.8,0c0-4.9,0-9.8,0-14.7c-1,0-1.9,0-2.9,0
		c0-1.2,0-2.4,0-3.6c3.3,0,6.6,0,9.9,0C166.6-148.1,166.6-146.9,166.6-145.7z"/>
	<path class="st1" d="M172.6-131c-1.4,0-2.7,0-4.1,0c0-6.1,0-12.2,0-18.3c1.3,0,2.7,0,4.1,0C172.6-143.3,172.6-137.1,172.6-131z"/>
</g>
<g>
	<path class="st2" d="M91.6,39c-0.2,2.9-0.4,5.8-0.6,8.7c-0.3,4.7-0.7,9.5-1,14.2c-0.4,5.3-0.8,10.7-1.2,16c0,0.4-0.1,0.6-0.6,0.8
		c-12.7,3.8-25.3,7.6-38,11.4c-0.1,0-0.2,0-0.3,0c0-15.3,0-30.7,0-46c0-0.2,0-0.4,0-0.5c0,0,0.1,0,0.1,0l0.1,0
		c0.3,0.1,0.6,0.2,0.9,0.4c4,2.4,8.1,4.7,12.1,7.1c0.4,0.3,0.8,0.3,1.3,0.1c1.8-0.8,3.6-1.6,5.4-2.4c5.2-2.3,10.3-4.6,15.5-6.9
		C87.4,40.8,89.5,39.9,91.6,39z"/>
	<path class="st3" d="M50,43.4c0,0.2,0,0.4,0,0.5c0,15.3,0,30.7,0,46c-2.6-0.8-5.2-1.5-7.8-2.3c-6.8-2-13.7-4.1-20.5-6.2
		c-0.2-0.1-0.4-0.2-0.6-0.2c0-0.2,0.1-0.4,0.1-0.6c0.1-1-0.3-1.8-1.2-2.3c-0.8-0.4-1.8-0.3-2.5,0.4c-0.4,0.4-0.7,0.7-1.1,1.1
		c-1.6-0.5-3.2-0.9-4.7-1.4c-0.4-0.1-0.5-0.3-0.5-0.7c-0.2-2.9-0.4-5.8-0.6-8.7c-0.4-5.3-0.8-10.6-1.2-16c-0.3-4.8-0.7-9.6-1-14.3
		c1.5,0.7,3,1.3,4.5,2c7.6,3.4,15.1,6.7,22.7,10.1c0.5,0.2,0.9,0.2,1.3-0.1c2.2-1.3,4.4-2.6,6.7-3.9c2.1-1.2,4.2-2.5,6.2-3.7
		c0.1,0,0.1,0,0.2,0C50,43.4,50,43.4,50,43.4z M33.5,63.8c-1.2,0-2.2,1-2.2,2.1c0,1.2,1,2.2,2.2,2.2c1,0,2.1-1.1,2.1-2.1
		C35.5,65.1,34.8,63.7,33.5,63.8z M27.4,74c-0.2,0.2-0.4,0.3-0.5,0.4c-0.7,0.7-1.5,0.8-2,0.2c-0.6-0.6-0.6-1.4,0.1-2.1
		c0.3-0.3,0.7-0.6,0.9-1c0.1-0.1,0.1-0.4,0.1-0.6c-0.2,0-0.5,0-0.6,0.1c-0.5,0.4-0.9,0.8-1.3,1.3c-0.6,0.7-0.6,1.5-0.3,2.3
		c0.3,0.8,1,1.2,1.8,1.1c0.6,0,1.1-0.2,1.6-0.4c0.2,0.2,0.5,0.3,0.7,0.5c0.2-0.2,0.4-0.5,0.5-0.7c0.3-0.8,0.1-1.6-0.5-2.2
		c-0.4-0.4-0.7-0.8-1.1-1.1c-0.1-0.1-0.4-0.1-0.6-0.1c0,0.2,0,0.5,0.1,0.6c0.3,0.4,0.7,0.7,1,1.1c0.4,0.4,0.6,0.9,0.3,1.5
		C27.5,74.6,27.5,74.3,27.4,74z M37.4,61.4c-0.4,0.4-0.9,0.8-1.2,1.2c-0.1,0.2-0.1,0.5-0.1,0.7c0.2,0,0.5,0,0.7-0.1
		c0.5-0.5,1-1.1,1.5-1.6c0.1-0.1,0-0.5-0.1-0.6c-0.9-0.8-2.1-0.7-2.9,0.2c-0.8,0.9-0.8,2.1,0,2.9c0.8,0.8,2.1,0.9,3,0.2
		c0.7-0.6,0.9-1.8,0.3-2.6c-0.2,0.5-0.4,0.8-0.5,1.2c-0.1,0.6-0.5,1-1,1.1c-0.6,0.1-1.1-0.1-1.4-0.6c-0.3-0.5-0.2-1.1,0.2-1.6
		C36.2,61.3,36.7,61.1,37.4,61.4z M20.2,77.3c0.1,0.2,0.3,0.8,0.6,1.2c0.3,0.4,0.8,0.8,1.2,1.2c0.1,0.1,0.4,0.1,0.6,0.2
		c0-0.2,0-0.5-0.1-0.7c-0.3-0.4-0.7-0.7-1.1-1.1c-0.6-0.6-0.5-1.4,0.1-1.9c0.6-0.6,1.2-0.6,1.9,0c0.4,0.4,0.7,0.8,1.1,1.1
		c0.1,0.1,0.4,0,0.6,0.1c0-0.2,0.1-0.5,0-0.6c-0.4-0.4-0.8-0.9-1.2-1.2c-0.7-0.6-1.5-0.7-2.4-0.3C20.7,75.5,20.3,76.1,20.2,77.3z
		 M29.3,67.8c0,0.3,0,0.4,0.1,0.6c0.3,1.1,1.2,1.7,2,2.4c0.1,0.1,0.3,0,0.4-0.1c0.1-0.2,0.1-0.4,0.1-0.5c-0.2-0.3-0.5-0.6-0.7-0.8
		c-0.7-0.6-1.2-1.3-0.7-2.3c0.1-0.1-0.1-0.3-0.2-0.5c-0.2,0.1-0.4,0.1-0.5,0.2C29.5,67.1,29.4,67.5,29.3,67.8z M28,69.9
		c-0.1,0.1-0.3,0.2-0.3,0.3c0,0.1,0,0.4,0.1,0.5c0.5,0.5,1,1.1,1.6,1.6c0.1,0.1,0.4,0.1,0.7,0.1c0-0.2,0-0.5-0.1-0.7
		c-0.5-0.5-1-1-1.5-1.5C28.3,70.1,28.2,70,28,69.9z M28.5,68.7c-0.3-0.1-0.6-0.2-0.7-0.1c-0.6,0.5-1.1,1.1-1.7,1.7
		c-0.1,0.1,0,0.3,0.1,0.5c0.1,0.1,0.3,0.1,0.4,0c0.6-0.5,1.1-1.1,1.7-1.7C28.4,69,28.4,68.9,28.5,68.7z"/>
	<path class="st4" d="M50,43.3c-0.1,0-0.1,0-0.2,0c0,0,0-0.1,0-0.1c0,0,0.1,0,0.1,0c1.6-0.5,3.1-0.9,4.7-1.4c2.5-0.7,5-1.5,7.4-2.3
		c0.4-0.1,0.7-0.2,1.1-0.3c0,0,0.1,0,0.1,0c9.4-2.8,18.8-5.6,28.2-8.5c0.1,0,0.2-0.1,0.4-0.2c-1.2-0.4-2.3-0.7-3.4-1
		c-4.7-1.4-9.4-2.8-14-4.2c-0.4-0.1-0.8-0.2-1.2-0.3c-0.8-0.3-1.6-0.5-2.4-0.8C64,22.2,57.1,20.1,50.1,18c0,0,0-0.1,0-0.1
		c3.1-1.8,6.2-3.7,9.3-5.5c1.2-0.7,2.5-1.4,3.7-2.2c0.4-0.2,0.7-0.2,1.1,0c4.9,2.2,9.9,4.4,14.8,6.6c0.2,0.1,0.5,0.2,0.8,0.3
		c0.7,0.3,1.5,0.7,2.2,1c2.6,1.2,5.1,2.3,7.7,3.5c3.4,1.5,6.8,3,10.3,4.6c-2.6,1.5-5.2,3.1-7.8,4.6c2.6,1.5,5.1,3,7.7,4.6
		c-0.2,0.1-0.4,0.2-0.6,0.3c-2.3,1-4.7,2.1-7,3.1c-0.3,0.1-0.6,0.3-0.8,0.4c-2.1,0.9-4.2,1.8-6.3,2.7C80.1,44,75,46.3,69.8,48.6
		c-1.8,0.8-3.6,1.6-5.4,2.4c-0.4,0.2-0.8,0.2-1.3-0.1c-4-2.4-8.1-4.8-12.1-7.1c-0.3-0.2-0.6-0.3-0.9-0.4C50.1,43.4,50,43.4,50,43.3z
		"/>
	<path class="st5" d="M49.9,43.2c0,0,0,0.1,0,0.1c-2.1,1.2-4.2,2.5-6.2,3.7c-2.2,1.3-4.5,2.6-6.7,3.9c-0.5,0.3-0.9,0.3-1.3,0.1
		c-7.6-3.4-15.1-6.7-22.7-10.1c-1.5-0.7-3-1.3-4.5-2c-2.3-1-4.6-2.1-7-3.1C1,35.6,0.6,35.4,0,35.2c2.6-1.6,5.2-3,7.8-4.6
		c-2.6-1.5-5.1-3-7.8-4.6c1.6-0.7,3.1-1.4,4.6-2.1c10.4-4.6,20.8-9.2,31.2-13.8c0.3-0.1,0.7-0.1,0.9,0c4.4,2.5,8.7,5.1,13,7.7
		c0.1,0,0.1,0.1,0.2,0.1c-0.3,0.1-0.6,0.3-0.9,0.4c-8.1,2.4-16.2,4.9-24.2,7.3c-4.3,1.3-8.6,2.6-12.9,3.9c-1.2,0.4-2.4,0.7-3.8,1.2
		c0.3,0.1,0.5,0.2,0.7,0.2c5.7,1.7,11.4,3.4,17.2,5.1c5.2,1.6,10.4,3.1,15.6,4.7C44.2,41.5,47,42.3,49.9,43.2z"/>
	<path class="st6" d="M49.9,43.2c-2.8-0.9-5.6-1.7-8.4-2.6C36.2,39.1,31,37.5,25.8,36c-5.7-1.7-11.4-3.4-17.2-5.1
		c-0.2,0-0.3-0.1-0.7-0.2c1.4-0.4,2.6-0.8,3.8-1.2c4.3-1.3,8.6-2.6,12.9-3.9c8.1-2.4,16.2-4.8,24.2-7.3c0.3-0.1,0.6-0.2,0.9-0.4
		c0.1,0,0.1,0,0.2,0c0,0,0,0.1,0,0.1c0,0.2-0.1,0.5-0.1,0.7c0,8.1,0,16.3,0,24.4C50,43.2,49.9,43.2,49.9,43.2z"/>
	<path class="st7" d="M50,43.2c0-8.1,0-16.3,0-24.4c0-0.2,0.1-0.5,0.1-0.7c6.9,2.1,13.9,4.2,20.8,6.2c0.8,0.2,1.6,0.5,2.4,0.8
		c0.5,0.6,1,1.3,1.5,1.9c0.1,0.1,0.4,0.1,0.7,0.1c0-0.2,0-0.5-0.1-0.6c-0.2-0.3-0.5-0.6-0.8-1c4.7,1.4,9.4,2.8,14,4.2
		c1.1,0.3,2.2,0.6,3.4,1c-0.2,0.1-0.3,0.2-0.4,0.2c-9.4,2.8-18.8,5.6-28.2,8.5c0,0-0.1,0-0.1,0c0.4-0.4,0.9-0.8,1.2-1.2
		c0.6-0.7,0.7-1.6,0.2-2.5c-0.4-0.8-1.3-1.1-2.1-1c-1.2,0.2-1.6,1.3-2.4,2c0.4,0,0.8-0.1,1.2-0.3c0.2-0.1,0.4-0.4,0.6-0.6
		c0.6-0.5,1.3-0.5,1.8,0c0.6,0.5,0.7,1.1,0.2,1.8c-0.3,0.4-0.7,0.8-1.2,1.4c-0.4-0.5-0.8-0.9-1.2-1.3c-0.4-0.5-0.9-0.7-1.7-0.4
		c0.4,0.4,0.7,0.6,1,0.9c0.5,0.5,0.9,1,1.3,1.5c-2.5,0.8-5,1.5-7.4,2.3C53.1,42.3,51.6,42.7,50,43.2z M71.1,31.5
		C71.2,31.5,71.2,31.5,71.1,31.5c0.2,0.3,0.3,0.5,0.4,0.7c0.2-0.2,0.4-0.3,0.5-0.5c0.4-0.8,0.3-1.5-0.3-2.2c-0.5-0.7-1.1-1.3-1.6-2
		c-0.1,0-0.2,0.1-0.3,0.1c0.4-0.4,0.8-0.7,1.2-1.1c-0.1,0.1-0.1,0.2-0.2,0.3c0.7,0.6,1.4,1.2,2.1,1.8c0.2,0.1,0.5,0.1,0.7,0.1
		c0-0.2,0-0.6-0.1-0.7c-0.6-0.7-1.2-1.4-1.8-2.1c-0.1,0.1,0,0,0-0.1c0.2-0.2,0.6-0.4,0.2-0.8c-0.4-0.4-0.6,0.1-0.8,0.3
		c-1.1,1.1-2.2,2.3-3.3,3.4c-0.9,1-0.6,2.7,0.6,3.3C69.5,32.4,70.3,32.1,71.1,31.5z M64,33.4c0,0.8,1.3,2.6,2,2.8
		c0.1,0,0.4,0,0.4-0.1c0.1-0.1,0.1-0.4,0-0.5c-0.4-0.4-0.7-0.8-1.1-1.3c-0.6-0.6-0.6-1.4,0-1.9c0.5-0.5,1.3-0.5,1.9,0.1
		c0.4,0.3,0.7,0.7,1.1,1c0.1,0.1,0.4,0,0.6,0.1c0-0.2,0.1-0.5,0-0.6c-0.3-0.4-0.7-0.8-1.1-1.2c-0.7-0.6-1.5-0.8-2.3-0.4
		C64.5,31.8,63.9,32.4,64,33.4z"/>
	<polygon class="st3" points="16.4,80 26.8,59.7 42,55.6 43.2,68 21.1,81.3 	"/>
	<polygon class="st7" points="73.3,25 70.4,24.5 64.4,26.5 59,36 59,40 62.1,39.5 63.3,39.2 73.1,33.8 76,28.3 75.6,25.9 74.6,25.3 
			"/>
</g>
</svg>
