<?xml version="1.0" encoding="utf-8"?>
<!-- Generator: Adobe Illustrator 23.0.3, SVG Export Plug-In . SVG Version: 6.00 Build 0)  -->
<svg version="1.1" id="Vrstva_1" xmlns="http://www.w3.org/2000/svg" xmlns:xlink="http://www.w3.org/1999/xlink" x="0px" y="0px"
	 viewBox="0 0 100 100" style="enable-background:new 0 0 100 100;" xml:space="preserve">
<style type="text/css">
	.st0{fill:#0E4F79;}
	.st1{fill:#0D3753;}
	.st2{fill:#FEFEFE;}
	.st3{fill:#FFFFFF;}
	.st4{fill:#9AD2D8;}
	.st5{fill:#998C67;}
	.st6{fill:#C3E1DC;}
	.st7{fill:#E6E7E6;}
</style>
<g>
	<path class="st0" d="M50.77,100c-8.35,0-16.71,0-25.06,0c-1.28-0.26-2.51-0.66-3.59-1.42c-0.17-0.13-0.34-0.27-0.51-0.4
		c-0.43-0.51-0.85-1.03-1.28-1.54c-0.05-0.08-0.1-0.16-0.15-0.25c-0.26-0.77-0.51-1.55-0.77-2.32c-0.01-0.51-0.02-1.02-0.03-1.53
		c0-0.64,0-1.29,0-1.93c0-0.64,0-1.28,0-1.92c0-0.64,0-1.29,0-1.93c0-0.64,0-1.28,0-1.92c0-0.64,0-1.29,0-1.93c0-0.64,0-1.28,0-1.92
		c0-0.64,0-1.29,0-1.93c0-0.64,0-1.28,0-1.92c0-0.64,0-1.29,0-1.93c0-0.64,0-1.28,0-1.92c0-0.64,0-1.29,0-1.93c0-0.64,0-1.28,0-1.92
		c0-0.64,0-1.29,0-1.93c0-0.64,0-1.28,0-1.92c0-0.64,0-1.29,0-1.93c0-0.64,0-1.28,0-1.92c0-0.64,0-1.29,0-1.93c0-0.64,0-1.28,0-1.92
		c0-0.64,0-1.29,0-1.93c0-0.64,0-1.28,0-1.92c0-0.64,0-1.29,0-1.93c0-0.64,0-1.28,0-1.92c0-0.64,0-1.29,0-1.93c0-0.64,0-1.28,0-1.92
		c0-0.64,0-1.29,0-1.93c0-0.64,0-1.28,0-1.92c0-0.64,0-1.29,0-1.93c0-0.64,0-1.28,0-1.92c0-0.64,0-1.29,0-1.93c0-0.64,0-1.28,0-1.92
		c0-0.64,0-1.29,0-1.93c0-0.64,0-1.28,0-1.92c0-0.64,0-1.29,0-1.93c0-0.64,0-1.28,0-1.92c0-0.64,0-1.29,0-1.93c0-0.64,0-1.28,0-1.92
		c0-0.64,0-1.29,0-1.93c0-0.64,0-1.28,0-1.92c0-0.64,0-1.29,0-1.93c0-0.64,0-1.28,0-1.92c0-0.64,0-1.29,0-1.93c0-0.64,0-1.28,0-1.92
		c0-0.64,0-1.29,0-1.93c0-0.64,0-1.28,0-1.92c0.01-0.56,0.02-1.12,0.03-1.67c0.26-0.77,0.52-1.53,0.78-2.3
		c0.56-0.68,1.13-1.37,1.69-2.05c0,0,0,0.03,0,0.03c0.04,0.01,0.07-0.01,0.09-0.04c0.05-0.04,0.1-0.08,0.15-0.11
		c0.64-0.34,1.28-0.68,1.92-1.02c0.84-0.13,1.68-0.37,2.52-0.37C41.64,0.15,56.72,0.15,71.8,0.15c0.7,0,1.4,0.05,2.1,0.07
		c-0.28,0.01-0.55,0.03-0.83,0.03c-7.21,0-14.41,0-21.62,0c-0.25,0-0.5,0-0.84,0c0.06,1.3,0.11,2.5,0.16,3.71
		c-0.32,0.01-0.64,0.02-0.96,0.02c-4.11,0-8.22,0-12.32,0c-0.81,0-1.42,0.42-1.62,1.09c-0.32,1.07,0.44,2,1.66,2
		c3.44,0.01,6.88,0,10.31,0c4.96,0,9.93,0.01,14.89,0.01c-0.25,0.04-0.49,0.1-0.74,0.1c-3.51,0.01-7.02,0-10.52,0
		c-0.25,0-0.5,0-0.81,0c0,1.26,0,2.43,0,3.6c-0.28,0.01-0.56,0.02-0.83,0.02c-8.22,0-16.45,0.01-24.67-0.01
		c-0.62,0-0.85,0.12-0.85,0.8c0.02,25.14,0.01,50.28,0.02,75.42c0,0.2,0.06,0.4,0.1,0.61c2.99,0.01,5.97,0.04,8.96,0.04
		c14.06,0,28.13,0,42.19,0c-0.24,0.04-0.49,0.12-0.73,0.12c-7.79,0.01-15.57,0.01-23.36,0.01c-0.25,0-0.5,0-0.79,0
		c0,0.34,0,0.61,0,0.88c0.01,0.45,0.08,0.94-0.56,1.04c-0.36,0.05-0.73,0.06-1.08,0.15c-1.48,0.35-2.55,1.22-3.01,2.68
		c-0.47,1.49-0.09,2.83,1.05,3.92c1,0.96,2.22,1.21,3.55,1.12C50.68,98.38,50.73,99.19,50.77,100z M44.36,93.64
		c-0.01-0.87-0.71-1.53-1.63-1.53c-0.92,0.01-1.61,0.67-1.61,1.55c0,0.87,0.77,1.6,1.67,1.57C43.67,95.21,44.36,94.5,44.36,93.64z"
		/>
	<path class="st1" d="M50.77,100c-0.04-0.81-0.08-1.62-0.13-2.43c0.18-0.05,0.37-0.11,0.55-0.16c2.14-0.58,3.42-2.81,2.74-4.89
		c-0.59-1.8-2-2.61-3.81-2.83c0.64-0.1,0.57-0.59,0.56-1.04c0-0.27,0-0.54,0-0.88c0.29,0,0.54,0,0.79,0c7.79,0,15.57,0,23.36-0.01
		c0.24,0,0.49-0.08,0.73-0.12c0.01-0.19,0.02-0.38,0.02-0.57c0-18.32,0-36.64,0-54.97c0-7.02-0.01-14.04-0.01-21.06
		c-0.2-0.08-0.41-0.24-0.61-0.24c-2.78-0.02-5.56-0.01-8.34-0.01c-5.33,0-10.65-0.01-15.98-0.01c0-1.17,0-2.35,0-3.6
		c0.31,0,0.56,0,0.81,0c3.51,0,7.02,0,10.52,0c0.25,0,0.49-0.07,0.74-0.1c0.9-0.22,1.36-0.65,1.43-1.33
		c0.11-1.05-0.56-1.78-1.67-1.78c-3.9-0.01-7.81-0.01-11.71-0.02c-0.05-1.21-0.11-2.41-0.16-3.71c0.34,0,0.59,0,0.84,0
		c7.21,0,14.41,0,21.62,0c0.28,0,0.55-0.02,0.83-0.03c0.65,0.09,1.29,0.19,1.93,0.28c0.73,0.39,1.45,0.78,2.18,1.18
		c0.05,0.04,0.09,0.08,0.14,0.12c1.39,1.24,2.21,2.78,2.45,4.63c0,0.39,0.01,0.78,0.01,1.17c0,0.68,0,1.37,0,2.05
		c0,0.64,0,1.29-0.01,1.93c0,0.64,0,1.28,0,1.92c0,0.6,0,1.2,0.01,1.81c0,0.68,0,1.37,0,2.05c0,0.64,0,1.29-0.01,1.93
		c0,0.64,0,1.28,0,1.92c0,0.64,0,1.29,0,1.93c0,0.64,0,1.28,0,1.92c0,0.6,0,1.2,0.01,1.81c0,0.68,0,1.37,0,2.05
		c0,0.64,0,1.29-0.01,1.93c0,0.64,0,1.28,0,1.92c0,0.64,0,1.29,0,1.93c0,0.64,0,1.28,0,1.92c0,0.64,0,1.29,0,1.93
		c0,0.64,0,1.28,0,1.92c0,0.64,0,1.29,0,1.93c0,0.64,0,1.28,0,1.92c0,0.64,0,1.29,0,1.93c0,0.64,0,1.28,0,1.92c0,0.64,0,1.29,0,1.93
		c0,0.64,0,1.28,0,1.92c0,0.64,0,1.29,0,1.93c0,0.64,0,1.28,0,1.92c0,0.64,0,1.29,0,1.93c0,0.64,0,1.28,0,1.92c0,0.64,0,1.29,0,1.93
		c0,0.64,0,1.28,0,1.92c0,0.64,0,1.29,0,1.93c0,0.64,0,1.28,0,1.92c0,0.64,0,1.29,0,1.93c0,0.64,0,1.28,0,1.92c0,0.64,0,1.29,0,1.93
		c0,0.64,0,1.28,0,1.92c0,0.64,0,1.29,0,1.93c0,0.64,0,1.28,0,1.92c0,0.64,0,1.29,0,1.93c0,0.64,0,1.28,0,1.92c0,0.64,0,1.29,0,1.93
		c0,0.64,0,1.28,0,1.92c0,0.64,0,1.29,0,1.93c0,0.64,0,1.28,0,1.92c0,0.64,0,1.29,0,1.93c-0.04,0.64-0.09,1.28-0.13,1.92
		c-0.18,0.57-0.37,1.14-0.55,1.71c-0.03,0.04-0.07,0.08-0.1,0.12c-0.55,0.68-1.1,1.35-1.66,2.03c-0.05,0.04-0.11,0.08-0.16,0.12
		c-0.45,0.27-0.88,0.59-1.36,0.8c-0.68,0.29-1.4,0.5-2.11,0.75C66.62,100,58.69,100,50.77,100z M57.24,92.13
		c-0.91-0.01-1.64,0.67-1.65,1.52c-0.01,0.82,0.76,1.57,1.62,1.58c0.89,0.01,1.65-0.67,1.67-1.51
		C58.89,92.81,58.2,92.14,57.24,92.13z"/>
	<path class="st2" d="M21.6,98.18c0.17,0.13,0.34,0.26,0.51,0.4c0,0.47,0,0.95,0,1.42c-0.64,0-1.29,0-1.93,0c0-0.56,0-1.11,0-1.67
		l0,0C20.65,98.28,21.13,98.23,21.6,98.18z"/>
	<path class="st3" d="M79.95,98.33c0,0.56,0,1.11,0,1.67c-0.64,0-1.29,0-1.93,0c0-0.52,0-1.03,0-1.55c0.05-0.04,0.11-0.08,0.16-0.12
		C78.76,98.34,79.36,98.33,79.95,98.33z"/>
	<path class="st2" d="M78.02,0c0,0.56,0,1.12,0,1.68c-0.73-0.39-1.45-0.78-2.18-1.18c0.08-0.17,0.17-0.33,0.25-0.5
		C76.73,0,77.38,0,78.02,0z"/>
	<path class="st2" d="M22.12,1.56C22.12,1.04,22.11,0.52,22.11,0c0.64,0,1.29,0,1.93,0c0,0.18,0.01,0.36,0.01,0.54
		C23.4,0.88,22.76,1.22,22.12,1.56z"/>
	<path class="st4" d="M75.58,11.07c0,7.02,0.01,14.04,0.01,21.06c0,18.32,0,36.64,0,54.97c0,0.19-0.02,0.38-0.02,0.57
		c-14.06,0-28.13,0.01-42.19,0c-2.99,0-5.97-0.03-8.96-0.04c0.01-0.25,0.02-0.5,0.02-0.75c0.04-0.12,0.08-0.24,0.13-0.36
		c0.2-0.2,0.44-0.38,0.6-0.61c3.92-5.86,7.84-11.72,11.76-17.58c3.52-5.27,7.06-10.52,10.58-15.79c1.93-2.88,3.84-5.77,5.76-8.66
		c3.6-5.4,7.19-10.79,10.79-16.18c1.93-2.88,3.86-5.76,5.8-8.64c1.78-2.66,3.57-5.31,5.35-7.97C75.33,11.07,75.46,11.07,75.58,11.07
		z"/>
	<path class="st2" d="M50.77,3.96c3.9,0,7.81,0.01,11.71,0.02c1.11,0,1.79,0.73,1.67,1.78c-0.07,0.69-0.53,1.11-1.43,1.33
		c-4.96,0-9.93-0.01-14.89-0.01c-3.44,0-6.88,0.01-10.31,0c-1.22,0-1.98-0.94-1.66-2c0.2-0.67,0.82-1.09,1.62-1.09
		c4.11,0,8.22,0,12.32,0C50.13,3.98,50.45,3.97,50.77,3.96z"/>
	<path class="st2" d="M50.13,89.7c1.81,0.22,3.22,1.02,3.81,2.83c0.68,2.08-0.6,4.3-2.74,4.89c-0.18,0.05-0.37,0.1-0.55,0.16
		c-1.33,0.09-2.56-0.17-3.55-1.12c-1.14-1.09-1.51-2.43-1.05-3.92c0.46-1.46,1.53-2.33,3.01-2.68C49.4,89.77,49.77,89.75,50.13,89.7
		z"/>
	<path class="st5" d="M75.58,11.07c-0.12,0-0.25,0-0.37,0.01c-0.21-0.01-0.43-0.03-0.64-0.03c-16.45,0-32.91,0-49.36,0
		c-0.21,0-0.43,0.02-0.64,0.02c-0.05,0.25-0.14,0.5-0.14,0.76c-0.01,24.78-0.01,49.56-0.01,74.34c0,0.24,0.01,0.47,0.01,0.71
		c-0.01,0.25-0.02,0.5-0.02,0.75c-0.03-0.2-0.1-0.41-0.1-0.61c0-25.14,0-50.28-0.02-75.42c0-0.68,0.23-0.8,0.85-0.8
		c8.22,0.02,16.45,0.01,24.67,0.01c0.28,0,0.56-0.01,0.83-0.02c5.33,0,10.65,0.01,15.98,0.01c2.78,0,5.56,0,8.34,0.01
		C75.18,10.83,75.38,10.98,75.58,11.07z"/>
	<path class="st2" d="M44.36,93.64c0.01,0.87-0.69,1.57-1.58,1.6c-0.9,0.02-1.67-0.7-1.67-1.57c0-0.87,0.69-1.54,1.61-1.55
		C43.64,92.11,44.35,92.77,44.36,93.64z"/>
	<path class="st2" d="M20.18,1.93c0.57-0.08,1.14-0.16,1.71-0.24c-0.56,0.68-1.13,1.37-1.69,2.05c0,0-0.02-0.02-0.02-0.02
		C20.18,3.13,20.18,2.53,20.18,1.93L20.18,1.93z"/>
	<path class="st2" d="M21.88,1.72c0-0.03,0.01-0.07,0.01-0.1c0.03,0.02,0.05,0.04,0.08,0.06C21.95,1.71,21.92,1.72,21.88,1.72z"/>
	<path class="st2" d="M57.24,92.13c0.96,0.01,1.65,0.68,1.63,1.59c-0.02,0.84-0.77,1.52-1.67,1.51c-0.86-0.01-1.63-0.76-1.62-1.58
		C55.6,92.8,56.33,92.13,57.24,92.13z"/>
	<path class="st3" d="M79.95,96.4c-0.04-0.03-0.08-0.06-0.12-0.09c0.03-0.04,0.07-0.08,0.1-0.12C79.93,96.26,79.94,96.33,79.95,96.4
		z"/>
	<path class="st6" d="M24.56,11.07c0.21-0.01,0.43-0.02,0.64-0.02c16.45,0,32.91,0,49.36,0c0.21,0,0.43,0.02,0.64,0.03
		c-1.78,2.66-3.57,5.31-5.35,7.97c-1.93,2.88-3.87,5.75-5.8,8.64c-3.6,5.39-7.2,10.79-10.79,16.18c-1.92,2.88-3.83,5.78-5.76,8.66
		c-3.52,5.27-7.06,10.52-10.58,15.79C33,74.17,29.09,80.04,25.16,85.9c-0.16,0.23-0.4,0.41-0.6,0.61c-0.01-0.21-0.02-0.43-0.02-0.64
		c0-24.72,0-49.44,0-74.16C24.55,11.5,24.56,11.29,24.56,11.07z"/>
	<path class="st7" d="M24.56,11.07c-0.01,0.21-0.02,0.43-0.02,0.64c0,24.72,0,49.44,0,74.16c0,0.21,0.01,0.43,0.02,0.64
		c-0.04,0.12-0.08,0.24-0.13,0.36c-0.01-0.24-0.01-0.47-0.01-0.71c0-24.78,0-49.56,0.01-74.34C24.43,11.58,24.52,11.33,24.56,11.07z
		"/>
</g>
</svg>
