<?xml version="1.0" encoding="utf-8"?>
<!-- Generator: Adobe Illustrator 23.0.3, SVG Export Plug-In . SVG Version: 6.00 Build 0)  -->
<svg version="1.1" id="Vrstva_1" xmlns="http://www.w3.org/2000/svg" xmlns:xlink="http://www.w3.org/1999/xlink" x="0px" y="0px"
	 viewBox="0 0 100 100" style="enable-background:new 0 0 100 100;" xml:space="preserve">
<style type="text/css">
	.st0{fill:#28A0B8;}
	.st1{fill:#1A89A0;}
	.st2{fill:#1891A9;}
	.st3{fill:#086E85;}
	.st4{fill:#2CA1B9;}
	.st5{fill:#C0986D;}
	.st6{fill:#1A89A1;}
	.st7{fill:#D42A20;}
	.st8{fill:#116A69;}
	.st9{fill:#E3715F;}
	.st10{fill:#63A6B9;}
	.st11{fill:#89C3D2;}
	.st12{fill:#508EA1;}
	.st13{fill:#E58876;}
	.st14{fill:#CFD8DD;}
	.st15{fill:#C1E4EB;}
	.st16{fill:#DDC5A7;}
	.st17{fill:#2BA1B8;}
	.st18{fill:#066F86;}
	.st19{fill:#CBA97F;}
	.st20{fill:#AC584C;}
	.st21{fill:#999B8A;}
	.st22{fill:#E8DBC1;}
	.st23{fill:#E3372E;}
	.st24{fill:#955342;}
	.st25{fill:#2A7D7A;}
	.st26{fill:#B1BCB1;}
	.st27{fill:#E9483F;}
	.st28{fill:#DBB895;}
</style>
<g>
	<path class="st0" d="M61.81,15.8c0.68,0.38,1.37,0.75,2.05,1.14c0.71,0.4,1.41,0.81,2.11,1.22c1.15,0.68,2.29,1.37,3.45,2.04
		c1.47,0.85,2.95,1.67,4.42,2.51c2.19,1.25,4.37,2.52,6.55,3.78c4.84,2.79,9.68,5.59,14.52,8.38c1.6,0.92,3.19,1.85,4.78,2.77
		c0.08,0.05,0.16,0.11,0.24,0.17c-0.01,0.03-0.01,0.06-0.02,0.08c-0.03,0.01-0.07,0.01-0.09,0.03c-1.37,0.79-2.74,1.57-4.11,2.36
		c-1.49,0.87-2.98,1.74-4.48,2.6c-1.88,1.08-3.76,2.15-5.64,3.23c-2.22,1.28-4.42,2.57-6.64,3.85c-1.57,0.9-3.14,1.8-4.7,2.7
		c-2.24,1.3-4.48,2.6-6.72,3.9c-1.4,0.81-2.79,1.62-4.19,2.43c-1.35,0.78-2.71,1.56-4.07,2.34c-1.4,0.81-2.79,1.61-4.19,2.42
		c-1.48,0.86-2.96,1.72-4.44,2.57c-1.23,0.71-2.45,1.42-3.69,2.12c-0.65,0.37-1.31,0.72-1.97,1.09c-0.23-0.12-0.46-0.23-0.69-0.36
		c-1.2-0.68-2.41-1.36-3.61-2.06c-1.34-0.77-2.67-1.56-4.01-2.33c-1.42-0.82-2.86-1.62-4.28-2.44c-1.75-1.01-3.49-2.03-5.23-3.05
		c-1.04-0.61-2.08-1.21-3.13-1.81c-1.13-0.65-2.26-1.29-3.39-1.94c-0.94-0.54-1.88-1.1-2.83-1.64c-0.9-0.52-1.81-1.04-2.71-1.56
		c-0.93-0.54-1.86-1.07-2.79-1.61c-0.99-0.57-1.97-1.14-2.96-1.71c-0.77-0.45-1.54-0.9-2.32-1.35c0.04-0.07,0.06-0.16,0.12-0.2
		c0.45-0.29,0.91-0.57,1.38-0.84c1.42-0.81,2.85-1.62,4.28-2.43c1.04-0.6,2.08-1.21,3.12-1.82c1.04-0.6,2.09-1.2,3.13-1.8
		c0.87-0.5,1.74-1.02,2.62-1.52c1.02-0.58,2.04-1.15,3.06-1.73c1.28-0.74,2.55-1.5,3.83-2.24c1.18-0.68,2.37-1.35,3.56-2.03
		c1.62-0.93,3.23-1.88,4.85-2.82c1.16-0.67,2.32-1.32,3.47-1.99c1.35-0.78,2.7-1.58,4.05-2.36c1.14-0.66,2.29-1.31,3.43-1.97
		c1.33-0.77,2.66-1.56,3.99-2.33c1.7-0.98,3.41-1.95,5.12-2.93c1.19-0.68,2.37-1.36,3.55-2.05C61.01,16.35,61.4,16.07,61.81,15.8z
		 M80.82,37.64c-0.14-0.1-0.23-0.17-0.32-0.23c-1.71-0.99-3.41-1.98-5.12-2.96c-1.81-1.04-3.62-2.08-5.43-3.12
		c-1.81-1.04-3.61-2.09-5.42-3.14c-1.85-1.07-3.71-2.13-5.54-3.21c-0.37-0.22-0.65-0.22-1.02,0c-2.12,1.25-4.26,2.47-6.39,3.7
		c-2.51,1.45-5.03,2.9-7.54,4.36c-0.32,0.18-0.63,0.37-1.04,0.62c7.51,4.34,14.93,8.62,22.37,12.91
		C70.5,43.59,75.63,40.63,80.82,37.64z"/>
	<path class="st1" d="M7.04,47.64c0.77,0.45,1.54,0.9,2.32,1.35c0.99,0.57,1.97,1.14,2.96,1.71c0.93,0.54,1.86,1.07,2.79,1.61
		c0.9,0.52,1.81,1.04,2.71,1.56c0.94,0.55,1.88,1.1,2.83,1.64c1.13,0.65,2.26,1.3,3.39,1.94c1.04,0.6,2.09,1.2,3.13,1.81
		c1.74,1.01,3.48,2.04,5.23,3.05c1.42,0.82,2.86,1.62,4.28,2.44c1.34,0.77,2.67,1.56,4.01,2.33c1.2,0.69,2.4,1.37,3.61,2.06
		c0.23,0.13,0.46,0.24,0.69,0.36c-0.01,0.83-0.01,1.67-0.02,2.5c-0.46-0.24-0.92-0.49-1.37-0.73c-1.11-0.65-2.22-1.3-3.33-1.95
		c-2.26-1.31-4.51-2.61-6.77-3.91c-2.22-1.28-4.43-2.55-6.65-3.83c-1.98-1.14-3.95-2.28-5.93-3.42c-1.97-1.14-3.95-2.29-5.92-3.43
		c-2.24-1.3-4.49-2.59-6.73-3.88c-0.65-0.37-1.31-0.72-1.96-1.08c-0.14-0.1-0.29-0.2-0.43-0.3c-0.05-0.02-0.11-0.04-0.16-0.06
		c-0.63-0.38-1.25-0.76-1.88-1.12c-0.27-0.16-0.46-0.03-0.48,0.3c-0.04,0.78-0.09,1.56-0.1,2.33c-0.01,2.12-0.01,4.23,0,6.35
		c0,0.7,0.05,1.39,0.1,2.09c0.02,0.31,0.15,0.57,0.5,0.64c0.08,0.09,0.15,0.2,0.25,0.26c1.24,0.72,2.47,1.44,3.72,2.15
		c0.16,0.09,0.35,0.14,0.53,0.22c0.02,0.03,0.03,0.06,0.03,0.09c-0.01,0.83-0.02,1.67-0.02,2.5c0,0-0.02,0.03-0.02,0.03
		c-0.38-0.22-0.76-0.45-1.14-0.66c-0.38-0.21-0.68-0.49-0.9-0.87c-0.35-0.6-0.59-0.68-1.29-0.54c-0.1,0.02-0.22,0-0.31-0.04
		c-0.36-0.2-0.71-0.4-1.05-0.62c-0.76-0.49-1.29-1.18-1.71-1.98c-0.63-1.19-1.01-2.47-1.3-3.78c-0.19-0.86-0.34-1.74-0.5-2.6
		c-0.01-0.08,0-0.16,0.01-0.24c0.11-0.1,0.11-0.2-0.01-0.3c0-0.06-0.01-0.12-0.01-0.18c-0.02-0.2-0.04-0.4-0.06-0.61
		c0-0.16-0.01-0.32-0.01-0.49c0.01-0.01,0.03-0.02,0.03-0.03C0.03,52.29,0.01,52.27,0,52.24c0.01-0.39,0.02-0.78,0.03-1.17
		c-0.01-0.07-0.01-0.13-0.02-0.2c0.03-0.25,0.07-0.51,0.09-0.76c0.09-0.95,0.26-1.88,0.58-2.78c0.14-0.41,0.35-0.79,0.55-1.17
		c0.17-0.33,0.44-0.56,0.8-0.68c0.24-0.02,0.48-0.1,0.71-0.06c0.44,0.08,0.86,0.21,1.25,0.47c0.21,0.14,0.46,0.19,0.7,0.29
		c0.25,0.36,0.51,0.73,0.76,1.09c0.19,0.28,0.49,0.35,0.77,0.25C6.53,47.42,6.78,47.49,7.04,47.64z"/>
	<path class="st2" d="M7.04,47.64c-0.26-0.16-0.51-0.23-0.82-0.12c-0.28,0.1-0.58,0.03-0.77-0.25c-0.25-0.36-0.51-0.73-0.76-1.09
		C4.83,46.09,4.96,46,5.1,45.92c0.62-0.36,1.24-0.72,1.86-1.07c1.13-0.65,2.26-1.3,3.39-1.95c0.56-0.32,1.13-0.65,1.69-0.98
		c0.63-0.37,1.26-0.74,1.9-1.11c0.59-0.34,1.19-0.67,1.78-1.02c0.92-0.53,1.83-1.06,2.75-1.59c0.78-0.45,1.56-0.89,2.33-1.33
		c1.08-0.63,2.16-1.27,3.25-1.89c0.73-0.42,1.47-0.83,2.21-1.26c0.93-0.54,1.85-1.09,2.78-1.63c0.88-0.51,1.78-1,2.67-1.51
		c1.25-0.72,2.5-1.46,3.75-2.19c1.34-0.77,2.68-1.53,4.01-2.3c0.79-0.45,1.57-0.92,2.36-1.38c1.03-0.59,2.06-1.17,3.09-1.77
		c1.03-0.6,2.04-1.21,3.07-1.8c0.86-0.49,1.74-0.96,2.6-1.46c1.31-0.76,2.61-1.53,3.91-2.29c1.18-0.69,2.35-1.38,3.54-2.05
		c0.52-0.3,1.07-0.54,1.61-0.81c0.17,0.19,0.35,0.37,0.52,0.57c0.14,0.16,0.25,0.34,0.39,0.49c0.21,0.22,0.45,0.28,0.76,0.18
		c0.15-0.05,0.33,0.01,0.5,0.02c-0.4,0.27-0.79,0.55-1.21,0.8c-1.18,0.69-2.36,1.37-3.55,2.05c-1.71,0.98-3.42,1.95-5.12,2.93
		c-1.33,0.77-2.66,1.56-3.99,2.33c-1.14,0.66-2.29,1.31-3.43,1.97c-1.35,0.78-2.7,1.58-4.05,2.36c-1.16,0.67-2.32,1.32-3.47,1.99
		c-1.62,0.94-3.23,1.88-4.85,2.82c-1.18,0.68-2.38,1.35-3.56,2.03c-1.28,0.74-2.55,1.5-3.83,2.24c-1.01,0.59-2.04,1.15-3.06,1.73
		c-0.88,0.5-1.74,1.02-2.62,1.52c-1.04,0.6-2.09,1.19-3.13,1.8c-1.04,0.6-2.08,1.22-3.12,1.82c-1.42,0.82-2.85,1.62-4.28,2.43
		c-0.47,0.27-0.92,0.55-1.38,0.84C7.1,47.48,7.08,47.58,7.04,47.64z"/>
	<path class="st3" d="M44.96,72.02c0.01-0.83,0.01-1.67,0.02-2.5c0.66-0.36,1.32-0.72,1.97-1.09c1.23-0.7,2.46-1.41,3.69-2.12
		c1.48-0.86,2.96-1.72,4.44-2.57c1.4-0.81,2.79-1.62,4.19-2.42c1.36-0.78,2.71-1.56,4.07-2.34c1.4-0.81,2.79-1.62,4.19-2.43
		c2.24-1.3,4.48-2.6,6.72-3.9c1.57-0.9,3.14-1.8,4.7-2.7c2.21-1.28,4.42-2.57,6.64-3.85c1.88-1.08,3.76-2.15,5.64-3.23
		c1.5-0.86,2.98-1.74,4.48-2.6c1.37-0.79,2.74-1.58,4.11-2.36c0.03-0.02,0.06-0.02,0.09-0.03c0.02,0.05,0.05,0.11,0.07,0.16
		c0,0.72,0,1.43,0.01,2.15c-0.02,0.04-0.03,0.08-0.05,0.12c0,0,0,0,0,0c-0.04,0.03-0.08,0.06-0.11,0.09
		c-1.57,0.91-3.14,1.82-4.71,2.74c-0.36,0.21-0.72,0.44-1.08,0.66c-0.19,0.09-0.38,0.18-0.57,0.28c-1.12,0.64-2.23,1.3-3.35,1.94
		c-2.9,1.67-5.8,3.34-8.69,5.01c-3.04,1.75-6.07,3.51-9.11,5.27c-2.84,1.64-5.68,3.27-8.52,4.91c-3.04,1.75-6.07,3.51-9.11,5.27
		c-2.97,1.71-5.93,3.43-8.9,5.14C45.51,71.76,45.23,71.88,44.96,72.02z"/>
	<path class="st4" d="M59.64,14.54c-0.54,0.27-1.08,0.52-1.61,0.81c-1.19,0.67-2.36,1.37-3.54,2.05c-1.3,0.76-2.6,1.54-3.91,2.29
		c-0.86,0.5-1.74,0.96-2.6,1.46c-1.03,0.59-2.05,1.2-3.07,1.8c-1.03,0.6-2.06,1.18-3.09,1.77c-0.79,0.45-1.57,0.92-2.36,1.38
		c-1.34,0.77-2.68,1.53-4.01,2.3c-1.25,0.72-2.5,1.46-3.75,2.19c-0.88,0.51-1.78,1-2.67,1.51c-0.93,0.54-1.85,1.09-2.78,1.63
		c-0.73,0.42-1.47,0.83-2.21,1.26c-1.08,0.63-2.16,1.26-3.25,1.89c-0.77,0.45-1.55,0.89-2.33,1.33c-0.92,0.53-1.83,1.06-2.75,1.59
		c-0.59,0.34-1.19,0.67-1.78,1.02c-0.63,0.37-1.26,0.74-1.9,1.11c-0.56,0.33-1.12,0.66-1.69,0.98c-1.13,0.65-2.26,1.3-3.39,1.95
		c-0.62,0.36-1.24,0.71-1.86,1.07C4.96,46,4.83,46.09,4.69,46.18c-0.24-0.09-0.49-0.15-0.7-0.29c-0.38-0.26-0.81-0.39-1.25-0.47
		c-0.22-0.04-0.47,0.04-0.71,0.06c0.74-0.44,1.47-0.9,2.22-1.33c3.54-2.05,7.09-4.1,10.64-6.14c3.25-1.88,6.5-3.75,9.75-5.62
		c3.93-2.27,7.85-4.54,11.78-6.8c3.69-2.13,7.38-4.25,11.06-6.38c3.01-1.74,6.02-3.47,9.03-5.21c0.18-0.1,0.38-0.17,0.58-0.26
		c0.1-0.02,0.21-0.05,0.31-0.07c0.1,0,0.19,0,0.29-0.01c0.14,0.02,0.27,0.05,0.41,0.07C58.66,13.91,59.16,14.2,59.64,14.54z"/>
	<path class="st5" d="M44.96,72.02c0.27-0.13,0.56-0.25,0.82-0.41c2.97-1.71,5.94-3.42,8.9-5.14c3.04-1.75,6.07-3.51,9.11-5.27
		c2.84-1.64,5.68-3.27,8.52-4.91c3.04-1.75,6.07-3.51,9.11-5.27c2.9-1.67,5.8-3.34,8.69-5.01c1.12-0.64,2.23-1.3,3.35-1.94
		c0.18-0.11,0.38-0.19,0.57-0.28c0,0.43,0.01,0.86,0.01,1.29c-0.01,0.29-0.02,0.58-0.03,0.86c-0.98,0.56-1.96,1.11-2.93,1.67
		c-1.19,0.68-2.37,1.37-3.55,2.05c-1.38,0.8-2.76,1.6-4.15,2.4c-1.33,0.77-2.65,1.54-3.98,2.3c-1.41,0.81-2.83,1.61-4.24,2.43
		c-1.57,0.9-3.13,1.82-4.69,2.72c-1.54,0.89-3.08,1.77-4.62,2.66c-1.79,1.04-3.58,2.08-5.37,3.11c-1.82,1.05-3.65,2.09-5.47,3.14
		c-1.58,0.91-3.15,1.83-4.73,2.75c-1.65,0.96-3.3,1.9-4.95,2.86c-0.22,0.13-0.4,0.16-0.63,0.03c-0.42-0.24-0.86-0.46-1.29-0.68
		c-0.01-0.05-0.03-0.1-0.04-0.15c0.07-0.65,0.15-1.3,0.22-1.95C44.04,71.53,44.5,71.78,44.96,72.02z"/>
	<path class="st6" d="M44.96,86.34c-0.44-0.23-0.88-0.46-1.32-0.69c-0.31-0.16-0.62-0.33-0.93-0.49c0,0,0,0,0,0
		c-0.07-0.03-0.13-0.06-0.2-0.09c-0.37-0.24-0.73-0.49-1.1-0.71c-5.85-3.38-11.7-6.76-17.55-10.14c-2.44-1.41-4.89-2.82-7.34-4.23
		c-0.2-0.11-0.38-0.24-0.57-0.37c0.02-0.8,0.03-1.6,0.05-2.4c0.09,0.03,0.19,0.04,0.27,0.09c1.27,0.73,2.54,1.45,3.81,2.18
		c2.09,1.2,4.17,2.41,6.26,3.62c1.86,1.08,3.72,2.15,5.58,3.23c2.03,1.17,4.05,2.35,6.08,3.53c2.08,1.21,4.17,2.42,6.26,3.61
		c0.25,0.14,0.54,0.22,0.81,0.33c-0.04,0.17-0.1,0.34-0.1,0.51C44.95,84.99,44.96,85.66,44.96,86.34z"/>
	<path class="st7" d="M8.35,62.72c0-0.03-0.01-0.06-0.03-0.09c0.02-0.03,0.03-0.06,0.03-0.09c0.03-0.39,0.05-0.79,0.08-1.18
		c0.99,0.56,1.97,1.12,2.96,1.68c0.83,0.48,1.65,0.96,2.48,1.43c0.49,0.28,0.99,0.54,1.49,0.8c0.02,0.56,0.03,1.12,0.05,1.68
		c0,0.74,0,1.48,0,2.22c-0.01,0.07-0.02,0.14-0.03,0.21c0.02,0.04,0.03,0.08,0.05,0.12c0,2.34,0,4.68,0,7.02
		c-0.05,0.01-0.1,0.01-0.15,0.02c-0.42-0.68-0.86-1.36-1.27-2.05c-0.71-1.17-1.41-2.34-2.12-3.52c-0.17-0.29-0.36-0.57-0.58-0.92
		c-0.94,0.84-1.86,1.66-2.79,2.48c-0.04-0.18-0.1-0.36-0.1-0.54c-0.01-2.24-0.01-4.48-0.02-6.72c0-0.76,0.01-1.51,0.01-2.27
		C8.41,62.91,8.37,62.81,8.35,62.72z"/>
	<path class="st8" d="M15.41,69.18c0-0.74,0-1.48,0-2.22c0.02-0.04,0.04-0.08,0.07-0.12c0.16,0.07,0.31,0.13,0.47,0.2
		c0.02,0.06,0.03,0.12,0.05,0.18c-0.02,0.8-0.03,1.6-0.05,2.4c-0.16-0.07-0.31-0.14-0.47-0.21c0-0.02-0.01-0.04-0.02-0.05
		C15.44,69.3,15.43,69.24,15.41,69.18z"/>
	<path class="st9" d="M8.4,65.27c0,2.24,0.01,4.48,0.02,6.72c0,0.18,0.07,0.36,0.1,0.54C8.48,72.57,8.44,72.6,8.3,72.7
		c0-2.55,0-5,0-7.45c0,0,0.02-0.03,0.02-0.03C8.35,65.25,8.37,65.26,8.4,65.27z"/>
	<path class="st10" d="M0.02,52.83c0.02,0.2,0.04,0.4,0.06,0.61C0.06,53.24,0.04,53.04,0.02,52.83z"/>
	<path class="st11" d="M58.09,13.74c-0.14-0.02-0.27-0.05-0.41-0.07C57.82,13.69,57.96,13.71,58.09,13.74z"/>
	<path class="st12" d="M99.97,38.04c-0.02-0.05-0.05-0.11-0.07-0.16c0.01-0.03,0.02-0.06,0.02-0.08
		C99.94,37.88,99.95,37.96,99.97,38.04z"/>
	<path class="st11" d="M57.4,13.67c-0.1,0.02-0.21,0.05-0.31,0.07C57.19,13.72,57.3,13.69,57.4,13.67z"/>
	<path class="st10" d="M0.09,53.62c0.12,0.1,0.11,0.19,0.01,0.3C0.09,53.81,0.09,53.72,0.09,53.62z"/>
	<path class="st13" d="M15.28,76.54c0.05-0.01,0.1-0.01,0.15-0.02c0,0.06,0,0.11-0.01,0.17C15.37,76.63,15.32,76.58,15.28,76.54z"/>
	<path class="st10" d="M0.01,50.87c0.01,0.07,0.01,0.13,0.02,0.2C0.02,51.01,0.01,50.94,0.01,50.87z"/>
	<path class="st14" d="M42.5,85.07c0.07,0.03,0.13,0.06,0.2,0.09C42.64,85.13,42.57,85.1,42.5,85.07z"/>
	<path class="st12" d="M99.81,40.39c0.04-0.03,0.08-0.06,0.11-0.09C99.89,40.34,99.85,40.37,99.81,40.39z"/>
	<path class="st12" d="M99.92,40.31c0.02-0.04,0.03-0.08,0.05-0.12C99.96,40.23,99.94,40.27,99.92,40.31z"/>
	<path class="st10" d="M0,52.24c0.01,0.02,0.03,0.05,0.04,0.07c0,0.01-0.02,0.02-0.03,0.03C0,52.31,0,52.28,0,52.24z"/>
	<path class="st13" d="M15.43,69.5c-0.02-0.04-0.03-0.08-0.05-0.12c0.03,0,0.05-0.01,0.07-0.03c0.01,0.02,0.02,0.03,0.02,0.05
		C15.46,69.44,15.44,69.47,15.43,69.5z"/>
	<path class="st15" d="M80.82,37.64c-5.18,2.99-10.32,5.96-15.46,8.93c-7.44-4.29-14.86-8.58-22.37-12.91
		c0.41-0.24,0.72-0.44,1.04-0.62c2.51-1.45,5.03-2.9,7.54-4.36c2.13-1.23,4.27-2.45,6.39-3.7c0.37-0.22,0.65-0.22,1.02,0
		c1.84,1.09,3.69,2.14,5.54,3.21c1.81,1.04,3.61,2.09,5.42,3.14c1.81,1.04,3.62,2.08,5.43,3.12c1.71,0.99,3.42,1.97,5.12,2.96
		C80.59,37.46,80.67,37.53,80.82,37.64z"/>
	<path class="st16" d="M43.4,73.39c0.43,0.23,0.87,0.44,1.29,0.68c0.23,0.13,0.41,0.1,0.63-0.03c1.65-0.96,3.3-1.91,4.95-2.86
		c1.58-0.91,3.15-1.84,4.73-2.75c1.82-1.05,3.65-2.09,5.47-3.14c1.79-1.03,3.58-2.08,5.37-3.11c1.54-0.89,3.08-1.77,4.62-2.66
		c1.56-0.91,3.12-1.82,4.69-2.72c1.41-0.81,2.83-1.62,4.24-2.43c1.33-0.76,2.65-1.53,3.98-2.3c1.38-0.8,2.76-1.6,4.15-2.4
		c1.18-0.68,2.37-1.37,3.55-2.05c0.97-0.56,1.95-1.11,2.93-1.67c0.04,0.61,0.08,1.22,0.13,1.83c0.02,0.21,0.06,0.41,0.09,0.62
		c0.03,1.38,0.4,2.65,1.35,3.76c-0.33,0.2-0.62,0.38-0.91,0.55c-2.26,1.3-4.52,2.6-6.78,3.91c-2.19,1.26-4.37,2.53-6.56,3.8
		c-2.02,1.17-4.04,2.33-6.06,3.5c-2.03,1.17-4.07,2.35-6.1,3.52c-1.96,1.13-3.93,2.26-5.89,3.4c-2.22,1.28-4.43,2.56-6.65,3.84
		c-2.05,1.18-4.1,2.36-6.14,3.55c-1.74,1-3.47,2.01-5.21,3.01c-0.23,0.13-0.42,0.16-0.61-0.06c-0.03-0.06-0.05-0.12-0.09-0.17
		c-0.39-0.61-0.73-1.23-0.82-1.96c-0.09-0.67-0.19-1.35-0.26-2.02c-0.08-0.69-0.16-1.39-0.18-2.08
		C43.29,74.43,43.37,73.91,43.4,73.39z"/>
	<path class="st17" d="M44.66,81.18c0.18,0.22,0.38,0.19,0.61,0.06c1.73-1.01,3.47-2.01,5.21-3.01c2.05-1.18,4.1-2.36,6.14-3.55
		c2.22-1.28,4.43-2.56,6.65-3.84c1.96-1.13,3.93-2.27,5.89-3.4c2.03-1.17,4.07-2.35,6.1-3.52c2.02-1.17,4.04-2.33,6.06-3.5
		c2.19-1.27,4.37-2.54,6.56-3.8c2.26-1.3,4.52-2.6,6.78-3.91c0.29-0.17,0.58-0.35,0.91-0.55c-0.95-1.11-1.32-2.37-1.35-3.76
		c0.54,0.33,1.08,0.66,1.61,1.01c1.21,0.79,2.42,1.58,3.63,2.38c0.13,0.09,0.25,0.2,0.37,0.31c-0.01,0.05-0.02,0.09-0.02,0.14
		c-1.52,0.88-3.05,1.76-4.57,2.64c-2.46,1.41-4.92,2.82-7.37,4.24c-2.08,1.2-4.15,2.4-6.22,3.6c-2.17,1.25-4.35,2.5-6.52,3.76
		c-2.47,1.43-4.94,2.86-7.4,4.29c-1.41,0.82-2.82,1.64-4.23,2.45c-1.35,0.78-2.71,1.56-4.07,2.34c-1.17,0.68-2.34,1.36-3.51,2.03
		c-1.31,0.76-2.63,1.51-3.94,2.27c-1.38,0.8-2.76,1.6-4.15,2.4c-0.92,0.53-1.84,1.05-2.76,1.57c-0.27-0.11-0.56-0.18-0.81-0.33
		c-2.09-1.2-4.17-2.41-6.26-3.61c-2.03-1.17-4.05-2.35-6.08-3.53c-1.86-1.08-3.72-2.15-5.58-3.23c-2.08-1.21-4.17-2.41-6.26-3.62
		c-1.27-0.73-2.54-1.46-3.81-2.18c-0.08-0.05-0.18-0.06-0.27-0.09c-0.02-0.06-0.03-0.12-0.05-0.18c0-0.79,0.01-1.57,0.01-2.36
		c0.03,0,0.05-0.01,0.08-0.01c0.08,0.06,0.16,0.12,0.24,0.16c2,1.16,4.01,2.31,6.01,3.47c2.2,1.27,4.4,2.54,6.61,3.81
		c2.23,1.29,4.46,2.58,6.69,3.86c2.2,1.27,4.4,2.55,6.6,3.81C43.01,80.26,43.83,80.72,44.66,81.18z"/>
	<path class="st18" d="M45.06,83.81c0.92-0.52,1.84-1.04,2.76-1.57c1.38-0.8,2.76-1.6,4.15-2.4c1.31-0.76,2.63-1.51,3.94-2.27
		c1.17-0.68,2.34-1.36,3.51-2.03c1.36-0.78,2.71-1.56,4.07-2.34c1.41-0.81,2.82-1.63,4.23-2.45c2.47-1.43,4.93-2.86,7.4-4.29
		c2.17-1.25,4.35-2.5,6.52-3.76c2.07-1.2,4.15-2.4,6.22-3.6c2.46-1.42,4.92-2.82,7.37-4.24c1.53-0.88,3.05-1.76,4.57-2.64
		c0.06,0.07,0.11,0.14,0.17,0.21c0,0.62,0,1.24,0,1.86c-0.03,0.13-0.05,0.26-0.08,0.38c-1.2,0.7-2.39,1.4-3.59,2.09
		c-3.46,2-6.92,4-10.38,5.99c-4,2.31-8,4.62-12,6.92c-4.69,2.71-9.38,5.42-14.07,8.13c-4.59,2.65-9.18,5.3-13.78,7.95
		c-0.36,0.21-0.75,0.38-1.12,0.57c0-0.67-0.01-1.35,0-2.02C44.96,84.14,45.03,83.98,45.06,83.81z"/>
	<path class="st12" d="M99.9,54.68c0.03-0.13,0.05-0.26,0.08-0.38C99.96,54.43,99.93,54.56,99.9,54.68z"/>
	<path class="st12" d="M99.98,52.45c-0.06-0.07-0.11-0.14-0.17-0.21c0.01-0.05,0.02-0.09,0.02-0.14
		C100.01,52.16,100.02,52.29,99.98,52.45z"/>
	<path class="st19" d="M43.58,71.29c-0.07,0.65-0.15,1.3-0.22,1.95c-0.12-0.05-0.24-0.09-0.35-0.15c-0.98-0.56-1.95-1.11-2.93-1.68
		c-1.19-0.68-2.37-1.37-3.55-2.06c-1.1-0.64-2.2-1.27-3.3-1.91c-1.21-0.7-2.43-1.4-3.64-2.1c-1.13-0.65-2.26-1.3-3.39-1.95
		c-1.19-0.68-2.37-1.37-3.56-2.05c-1.13-0.65-2.26-1.3-3.39-1.95c-1.17-0.68-2.35-1.35-3.52-2.02c-1.34-0.77-2.68-1.55-4.02-2.33
		c-1.47-0.85-2.93-1.7-4.41-2.54c-0.51-0.29-1.03-0.56-1.54-0.84c-0.03-0.03-0.05-0.06-0.08-0.08c0-0.52,0-1.04,0-1.57
		c0.03-0.07,0.06-0.14,0.09-0.21c0.16,0,0.33,0,0.49,0c0.66,0.36,1.32,0.71,1.96,1.08c2.25,1.29,4.49,2.59,6.73,3.88
		c1.97,1.14,3.95,2.29,5.92,3.43c1.97,1.14,3.95,2.28,5.93,3.42c2.22,1.28,4.43,2.55,6.65,3.83c2.26,1.3,4.52,2.61,6.77,3.91
		C41.36,69.99,42.47,70.64,43.58,71.29z"/>
	<path class="st3" d="M5.7,50c0,0.52,0,1.04,0,1.57c0,0.07,0,0.13,0,0.2c0,1.01,0,2.02,0,3.03c-0.01,0.49-0.01,0.98-0.02,1.47
		c0.02,0.33,0.04,0.66,0.06,0.99c0.01,0.32,0.05,0.63,0.03,0.95c-0.01,0.24,0.06,0.43,0.19,0.61c-0.71,0.4-1.42,0.8-2.13,1.2
		c-0.35-0.07-0.47-0.33-0.5-0.64c-0.05-0.7-0.09-1.39-0.1-2.09c-0.01-2.12-0.01-4.23,0-6.35c0-0.78,0.06-1.56,0.1-2.33
		c0.02-0.33,0.21-0.45,0.48-0.3c0.63,0.36,1.25,0.75,1.88,1.12C5.69,49.61,5.7,49.8,5.7,50z"/>
	<path class="st17" d="M3.82,60c0.71-0.4,1.42-0.8,2.13-1.2c0.85,0.5,1.7,1.01,2.55,1.51c-0.03,0.18-0.06,0.37-0.09,0.55
		c-0.17,0.55-0.09,1.12-0.06,1.68c0,0.03-0.01,0.06-0.03,0.09c-0.18-0.07-0.36-0.12-0.53-0.22c-1.24-0.71-2.48-1.43-3.72-2.15
		C3.97,60.2,3.91,60.09,3.82,60z"/>
	<path class="st20" d="M8.4,65.27c-0.03,0-0.06-0.02-0.07-0.05c0.01-0.83,0.02-1.67,0.02-2.5c0.02,0.09,0.06,0.18,0.06,0.28
		C8.41,63.75,8.41,64.51,8.4,65.27z"/>
	<path class="st16" d="M6.28,49.78c-0.16,0-0.33,0-0.49,0c0.02-0.1,0.04-0.2,0.06-0.3C5.99,49.58,6.13,49.68,6.28,49.78z"/>
	<path class="st21" d="M5.85,49.48c-0.02,0.1-0.04,0.2-0.06,0.3C5.76,49.86,5.73,49.93,5.7,50c-0.01-0.19-0.01-0.39-0.02-0.58
		C5.74,49.44,5.79,49.46,5.85,49.48z"/>
	<path class="st22" d="M8.5,60.31c-0.85-0.5-1.7-1.01-2.55-1.51c-0.13-0.18-0.2-0.37-0.19-0.61c0.02-0.31-0.02-0.63-0.03-0.95
		c0-0.32,0.01-0.64,0.01-0.96c-0.02-0.5-0.04-0.99-0.05-1.49c0-1.01,0-2.02,0-3.03c0.03-0.04,0.05-0.08,0.08-0.11
		c0.51,0.28,1.03,0.55,1.54,0.84c1.47,0.84,2.94,1.69,4.41,2.54c1.34,0.77,2.68,1.55,4.02,2.33c1.17,0.68,2.34,1.35,3.52,2.02
		c1.13,0.65,2.26,1.3,3.39,1.95c1.19,0.68,2.37,1.37,3.56,2.05c1.13,0.65,2.26,1.3,3.39,1.95c1.21,0.7,2.43,1.4,3.64,2.1
		c1.1,0.64,2.2,1.27,3.3,1.91c1.18,0.69,2.37,1.37,3.55,2.06c0.97,0.56,1.95,1.12,2.93,1.68c0.11,0.06,0.24,0.1,0.35,0.15
		c0.01,0.05,0.03,0.1,0.04,0.15c-0.04,0.52-0.12,1.04-0.1,1.55c0.02,0.7,0.11,1.39,0.18,2.08c0.08,0.68,0.18,1.35,0.26,2.02
		c0.09,0.73,0.43,1.35,0.82,1.96c0.03,0.05,0.06,0.11,0.09,0.17c-0.82-0.46-1.65-0.92-2.47-1.39c-2.2-1.27-4.4-2.54-6.6-3.81
		c-2.23-1.29-4.46-2.58-6.69-3.86c-2.2-1.27-4.4-2.54-6.61-3.81c-2-1.16-4.01-2.31-6.01-3.47c-0.08-0.05-0.16-0.11-0.24-0.16
		c0.01-0.44,0.17-0.77,0.56-1.01c0.21-0.13,0.37-0.35,0.55-0.53c0.02-0.01,0.03-0.02,0.05-0.02c0.08-0.05,0.15-0.1,0.23-0.16
		c0.15-0.09,0.29-0.17,0.44-0.26c0.19,0.04,0.39,0.08,0.63,0.13c-0.65-1.06-6.98-4.69-8.02-4.62c0.07,0.12,0.13,0.23,0.2,0.33
		c-0.22,0.16-0.45,0.31-0.67,0.47c-0.28,0.19-0.56,0.39-0.83,0.58C8.95,59.83,8.73,60.07,8.5,60.31z"/>
	<path class="st23" d="M8.5,60.31c0.22-0.24,0.45-0.48,0.67-0.73c0.29,0.14,0.59,0.26,0.87,0.42c1.03,0.59,2.04,1.2,3.07,1.79
		c0.93,0.54,1.86,1.06,2.79,1.6c0.11,0.06,0.17,0.21,0.26,0.32c-0.17,0.25-0.33,0.51-0.5,0.76c-0.07,0.17-0.13,0.34-0.2,0.51
		c-0.01,0.01-0.03,0.02-0.03,0.03c0,0.03,0.01,0.05,0.02,0.08c0,0.06-0.01,0.12-0.01,0.18c-0.03,0-0.05,0.01-0.07,0.02
		c-0.5-0.27-1-0.52-1.49-0.8c-0.83-0.47-1.65-0.96-2.48-1.43c-0.98-0.56-1.97-1.12-2.96-1.68c-0.01-0.17-0.01-0.33-0.02-0.5
		C8.44,60.68,8.47,60.49,8.5,60.31z"/>
	<path class="st20" d="M8.41,60.86c0.01,0.17,0.01,0.33,0.02,0.5c-0.03,0.39-0.05,0.79-0.08,1.18C8.32,61.98,8.24,61.42,8.41,60.86z
		"/>
	<path class="st24" d="M15.36,65.28c0.02-0.01,0.05-0.02,0.07-0.02c0.02,0.53,0.03,1.06,0.05,1.58c-0.02,0.04-0.04,0.08-0.07,0.12
		C15.4,66.4,15.38,65.84,15.36,65.28z"/>
	<path class="st24" d="M15.46,69.36c-0.02,0.02-0.05,0.02-0.07,0.03c0.01-0.07,0.02-0.14,0.03-0.21
		C15.43,69.24,15.44,69.3,15.46,69.36z"/>
	<path class="st25" d="M15.48,66.85c-0.02-0.53-0.03-1.06-0.05-1.58c0-0.06,0.01-0.12,0.01-0.18c0-0.03,0.01-0.07,0.01-0.1
		c0.07-0.17,0.13-0.34,0.2-0.51c0.1,0.07,0.2,0.14,0.3,0.21c0,0.79-0.01,1.57-0.01,2.36C15.79,66.98,15.64,66.91,15.48,66.85z"/>
	<path class="st19" d="M15.96,64.68c-0.1-0.07-0.2-0.14-0.3-0.21c0.17-0.25,0.33-0.51,0.5-0.76c0.33-0.19,0.66-0.39,0.99-0.58
		c-0.18,0.18-0.34,0.4-0.55,0.53c-0.39,0.24-0.56,0.58-0.56,1.01C16.01,64.68,15.99,64.68,15.96,64.68z"/>
	<path class="st26" d="M5.77,51.65c-0.03,0.04-0.05,0.08-0.08,0.11c0-0.07,0-0.13,0-0.2C5.72,51.59,5.75,51.62,5.77,51.65z"/>
	<path class="st26" d="M5.7,54.79c0.02,0.5,0.04,0.99,0.05,1.49c-0.02-0.01-0.05-0.02-0.07-0.02C5.69,55.77,5.69,55.28,5.7,54.79z"
		/>
	<path class="st12" d="M5.68,56.26c0.02,0.01,0.05,0.02,0.07,0.02c0,0.32-0.01,0.64-0.01,0.96C5.72,56.91,5.7,56.59,5.68,56.26z"/>
	<path class="st27" d="M17.15,63.13c-0.33,0.19-0.66,0.39-0.99,0.58c-0.08-0.11-0.15-0.25-0.26-0.32c-0.92-0.54-1.86-1.06-2.79-1.6
		c-1.02-0.59-2.04-1.2-3.07-1.79c-0.28-0.16-0.58-0.28-0.87-0.42c0.28-0.19,0.56-0.39,0.83-0.58c0.22-0.16,0.45-0.31,0.67-0.47
		c0.21-0.03,0.41-0.02,0.61,0.09c1.77,1.03,3.54,2.04,5.32,3.06c0.38,0.22,0.76,0.44,1.14,0.66c0.14,0.08,0.25,0.17,0.13,0.34
		c-0.15,0.09-0.29,0.17-0.44,0.26c-0.08,0.05-0.15,0.1-0.23,0.16C17.18,63.11,17.17,63.12,17.15,63.13z"/>
	<path class="st28" d="M17.87,62.69c0.13-0.18,0.01-0.26-0.13-0.34c-0.38-0.22-0.76-0.44-1.14-0.66c-1.77-1.02-3.55-2.04-5.32-3.06
		c-0.2-0.12-0.39-0.12-0.61-0.09c-0.06-0.11-0.13-0.21-0.2-0.33c1.04-0.06,7.37,3.56,8.02,4.62C18.26,62.77,18.06,62.73,17.87,62.69
		z"/>
	<path class="st19" d="M17.2,63.11c0.08-0.05,0.15-0.1,0.23-0.16C17.36,63,17.28,63.05,17.2,63.11z"/>
	<path class="st24" d="M15.46,64.98c0,0.03-0.01,0.07-0.01,0.1c-0.01-0.03-0.02-0.05-0.02-0.08C15.43,65,15.45,64.99,15.46,64.98z"
		/>
</g>
</svg>
