<?xml version="1.0" encoding="utf-8"?>
<!-- Generator: Adobe Illustrator 23.0.3, SVG Export Plug-In . SVG Version: 6.00 Build 0)  -->
<svg version="1.1" id="Vrstva_1" xmlns="http://www.w3.org/2000/svg" xmlns:xlink="http://www.w3.org/1999/xlink" x="0px" y="0px"
	 viewBox="0 0 100 100" style="enable-background:new 0 0 100 100;" xml:space="preserve">
<style type="text/css">
	.st0{fill:#ED6A69;}
	.st1{fill:#E45352;}
	.st2{fill:#5A5B5C;}
	.st3{fill:#FDFDFE;}
	.st4{fill:#BDBEC0;}
</style>
<g>
	<path class="st0" d="M28.78,64.87c-3.88-0.58-7.65-1.53-11.13-3.43c-5.75-3.14-8.99-7.99-9.7-14.51c-0.13-1.17-0.15-2.35-0.18-3.53
		c-0.01-0.38-0.11-0.53-0.51-0.56c-1.09-0.1-2.07-0.46-2.75-1.39c0.09,0.03,0.2,0.03,0.26,0.09c1.04,1.1,2.45,1.24,3.78,1.24
		c22.9,0.04,45.81,0.03,68.71,0.03c0.2,0,0.4,0.06,0.6,0.1c0.16,4.41-0.58,8.6-3.01,12.37c-2.13,3.29-5.15,5.5-8.68,7.06
		c-2.77,1.22-5.67,1.96-8.65,2.42c-0.19,0.03-0.37,0.08-0.56,0.12c-1.44,0.13-2.87,0.25-4.31,0.37c-0.83,0.07-1.66,0.12-2.49,0.18
		c-1.5,0-3-0.01-4.51-0.01c-3.29,0-6.58,0.01-9.87,0.01c-0.11-0.03-0.22-0.08-0.33-0.09C33.23,65.19,31,65.03,28.78,64.87z"/>
	<path class="st1" d="M77.86,42.91c-0.2-0.03-0.4-0.1-0.6-0.1c-22.9,0-45.81,0.01-68.71-0.03c-1.33,0-2.75-0.14-3.78-1.24
		c-0.06-0.06-0.17-0.06-0.26-0.09c0,0-0.01-0.02-0.01-0.02c-0.42-0.8-0.71-1.64-0.76-2.56c-0.08-1.42-0.01-2.76,1.13-3.81
		c0.16-0.14,0.26-0.35,0.39-0.52c0,0,0.03-0.03,0.03-0.03c0.18-0.04,0.35-0.09,0.53-0.13c1.04-0.2,2.08-0.57,3.13-0.58
		c8.64-0.05,17.29-0.03,25.93-0.02c0.73,0,1.46,0.1,2.18,0.1c0.9,0,1.8-0.08,2.7-0.1c0.74-0.02,0.74,0,0.74-0.74
		c0-9.06,0-18.12,0-27.19c0-0.98-0.09-1.97,0.35-2.9c0.89-2.12,2.98-3.28,5.2-2.88c2.18,0.39,3.76,2.21,3.87,4.46
		c0.02,0.38,0.01,0.76,0.01,1.14c0,8.96,0.01,17.92,0.01,26.89c0,0.38,0,0.76,0,1.19c0.2,0.02,0.36,0.04,0.53,0.04
		c8.13,0,16.25,0,24.38,0c0.09,0,0.19-0.02,0.28-0.03c1.22,0,2.44,0.01,3.66,0.01c0.19,0.07,0.38,0.15,0.58,0.22
		c1.62,0.5,2.71,1.92,2.73,3.61c0.01,1.04,0.12,2.08-0.41,3.07c-0.72,1.35-1.83,2.04-3.33,2.14C78.19,42.84,78.03,42.88,77.86,42.91
		z"/>
	<path class="st0" d="M40.85,2.96c-0.43,0.93-0.35,1.92-0.35,2.9c0,9.06,0,18.12,0,27.19c0,0.74,0,0.72-0.74,0.74
		c-0.9,0.02-1.8,0.09-2.7,0.1c-0.73,0-1.46-0.1-2.18-0.1c-8.64-0.01-17.29-0.03-25.93,0.02c-1.04,0.01-2.09,0.37-3.13,0.58
		c-0.18,0.03-0.35,0.09-0.53,0.13c0.77-0.31,1.55-0.62,2.32-0.93c0.04,0.05,0.08,0.1,0.12,0.15c0.01-0.22,0.03-0.44,0.03-0.66
		c0-2.17-0.01-4.34,0-6.51c0.04-6.35,2.23-11.85,6.68-16.37C19,5.55,24.59,3.17,31.1,3.05c3.01-0.05,6.01-0.01,9.02-0.01
		C40.36,3.04,40.61,2.99,40.85,2.96z"/>
	<path class="st2" d="M28.78,64.87c2.22,0.16,4.45,0.31,6.67,0.47c0.11,0.01,0.22,0.06,0.33,0.09c2.43,1.77,4.85,3.53,7.32,5.32
		c2.36-1.78,4.71-3.56,7.06-5.33c0.83-0.06,1.66-0.11,2.49-0.18c1.44-0.12,2.87-0.25,4.31-0.37c-2.78,2.1-5.56,4.19-8.34,6.29
		c-0.79,0.59-1.58,1.19-2.42,1.82c2.28,1.65,4.52,3.26,6.76,4.88c5.55-5.51,14.05-4.93,18.89-0.05c4.65,4.69,5.1,11.97,1.04,17.13
		c-4.15,5.27-11.65,6.6-17.37,3.11c-5.55-3.39-8.15-10.61-4.73-17.25c-2.53-1.83-5.07-3.67-7.64-5.52
		c-2.36,1.77-4.72,3.54-7.09,5.32c1.83,3.4,2.22,6.94,0.96,10.59c-1.07,3.12-3.1,5.48-5.96,7.1c-5.82,3.29-13.19,1.72-17.18-3.63
		c-3.9-5.23-3.27-12.5,1.47-17.05c4.89-4.69,13.03-5.11,18.5,0.09c1.02-0.77,2.05-1.54,3.08-2.31c1.03-0.78,2.07-1.55,3.13-2.35
		c-3.06-2.21-6.09-4.39-9.11-6.57C30.21,65.94,29.5,65.4,28.78,64.87z M56.48,94.24c1.47,1.19,3.14,1.88,5.04,2.03
		c0.61,0,1.23,0,1.84,0c0.3-0.03,0.61-0.04,0.9-0.11c1.58-0.33,3.05-0.91,4.24-2.05c0.38-0.37,0.76-0.75,1.13-1.12
		c1.39-1.43,2.05-3.19,2.24-5.15c0-0.58,0-1.17,0-1.75c-0.16-0.76-0.26-1.53-0.5-2.26c-0.36-1.08-0.89-2.09-1.74-2.89
		c-0.38-0.37-0.75-0.74-1.13-1.12c-1.46-1.34-3.2-1.99-5.15-2.16c-0.61,0-1.23,0-1.84,0c-1.89,0.15-3.57,0.83-5.04,2.04
		c-0.44,0.4-0.89,0.8-1.34,1.2c1.71,1.76,3.34,3.45,5.04,5.21c-0.76-0.04-1.49-0.07-2.21-0.1c-1.37-1-2.75-2-4.28-3.12
		c-0.25,1.15-0.47,2.18-0.69,3.2c0,0.59,0,1.17,0,1.76c0.16,1.9,0.86,3.58,2.09,5.03C55.56,93.33,56.02,93.78,56.48,94.24z
		 M30.58,94.11c0.38-0.37,0.75-0.75,1.13-1.12c1.39-1.44,2.06-3.19,2.25-5.15c0-0.62,0.01-1.24,0.01-1.85
		c-0.12-1.08-0.39-2.11-0.93-3.16c-1.44,1.11-2.85,2.2-4.25,3.28c-0.57,0-1.15,0-1.75,0c1.65-1.73,3.24-3.38,4.88-5.1
		c-0.37-0.33-0.79-0.7-1.2-1.07c-1.48-1.4-3.27-2.1-5.29-2.27c-0.61,0-1.23,0-1.84,0c-1.89,0.15-3.57,0.84-5.04,2.03
		c-0.46,0.45-0.92,0.91-1.38,1.36c-1.24,1.45-1.93,3.13-2.09,5.03c0,0.59,0,1.17,0,1.76c0.16,1.9,0.85,3.58,2.09,5.03
		c0.46,0.45,0.92,0.91,1.38,1.36c1.47,1.19,3.14,1.88,5.04,2.03c0.61,0,1.23,0,1.84,0c0.3-0.03,0.61-0.04,0.9-0.11
		C27.91,95.83,29.38,95.25,30.58,94.11z"/>
	<path class="st1" d="M84.97,22.81c0.13-0.65,0.18-1.32,0.4-1.94c0.91-2.63,3.56-4.13,6.41-3.66c2.6,0.43,4.59,2.76,4.63,5.39
		c0.03,2.79-1.85,5.14-4.6,5.64c-1.92,0.35-3.62-0.17-5.04-1.52c-0.18-0.17-0.35-0.35-0.53-0.52c-0.32-0.66-0.68-1.3-0.95-1.98
		C85.11,23.79,85.07,23.29,84.97,22.81z M90.62,26.13c2.12,0.21,3.54-1.69,3.59-3.37c0.06-1.9-1.68-3.44-3.34-3.49
		c-2.08-0.07-3.64,1.67-3.64,3.48C87.22,24.49,88.77,26.27,90.62,26.13z"/>
	<path class="st2" d="M84.97,22.81c0.1,0.48,0.14,0.97,0.31,1.42c0.27,0.68,0.63,1.32,0.95,1.98c-2.2,1.03-4.4,2.06-6.6,3.08
		c-0.65,0.3-0.92,0.73-0.86,1.47c0.07,1,0.02,2.02,0.03,3.02c-1.22,0-2.44-0.01-3.66-0.01c0-1.24,0.02-2.47-0.01-3.71
		c-0.03-1.23,0.42-2.25,1.38-2.99c0.68-0.53,1.43-1.02,2.21-1.4C80.77,24.68,82.88,23.76,84.97,22.81z"/>
	<path class="st0" d="M5.25,34.54c-0.13,0.18-0.23,0.38-0.39,0.52c-1.14,1.05-1.21,2.39-1.13,3.81c0.05,0.92,0.33,1.76,0.76,2.56
		c-0.28-0.51-0.73-0.99-0.8-1.52c-0.12-1.06-0.14-2.17,0-3.22C3.83,35.77,4.39,35.01,5.25,34.54z"/>
	<path class="st3" d="M50.16,65.43c-2.35,1.77-4.7,3.54-7.06,5.33c-2.46-1.79-4.89-3.56-7.32-5.32c3.29,0,6.58-0.01,9.87-0.01
		C47.15,65.42,48.65,65.43,50.16,65.43z"/>
	<path class="st4" d="M23.59,77.66c0.61,0,1.23,0,1.84,0c0,2.1,0,4.2,0,6.29c0,0.31,0,0.62,0,0.93c0.06,0.04,0.13,0.08,0.19,0.11
		c0.86-0.9,1.72-1.8,2.57-2.7c0.23-0.24,0.44-0.5,0.66-0.75c0.62-0.54,1.24-1.07,1.87-1.61c0.42,0.37,0.83,0.74,1.2,1.07
		c-1.65,1.72-3.23,3.37-4.88,5.1c0.61,0,1.18,0,1.75,0c1.51,0,3.02,0,4.52-0.02c0.22,0,0.44-0.07,0.65-0.1
		c0,0.62-0.01,1.24-0.01,1.85c-2.37,0-4.73,0-7.11,0c1.54,1.57,3.03,3.08,4.51,4.6c0.15,0.15,0.24,0.36,0.35,0.55
		c-0.38,0.37-0.75,0.75-1.13,1.12c-0.11-0.08-0.22-0.14-0.31-0.23c-1.44-1.4-2.87-2.81-4.31-4.22c-0.14-0.14-0.29-0.27-0.53-0.49
		c0,2.44,0,4.77,0,7.09c-0.61,0-1.23,0-1.84,0c0-2.32,0-4.65,0-7.07c-0.21,0.19-0.35,0.31-0.48,0.44c-1.02,1.01-2.05,2.03-3.07,3.05
		c-0.51,0.51-0.99,1.04-1.49,1.56c-0.46-0.45-0.92-0.91-1.38-1.36c1.68-1.64,3.37-3.27,5.05-4.91c-0.03-0.04-0.06-0.08-0.09-0.12
		c-2.35,0-4.7,0-7.05,0c0-0.59,0-1.17,0-1.76c2.36,0,4.72,0,7.24,0c-0.26-0.27-0.39-0.42-0.53-0.56c-1.22-1.19-2.44-2.39-3.67-3.58
		c-0.31-0.3-0.64-0.59-0.95-0.89c0.46-0.45,0.92-0.91,1.38-1.36c0.13,0.16,0.26,0.33,0.4,0.47c1.4,1.39,2.8,2.78,4.2,4.17
		c0.12,0.11,0.24,0.22,0.44,0.39C23.59,82.31,23.59,79.99,23.59,77.66z"/>
	<path class="st4" d="M53.01,87.84c0-0.59,0-1.17,0-1.76c1.53,0,3.07,0.01,4.6,0c0.12,0,0.25-0.06,0.37-0.09
		c0.72,0.03,1.45,0.07,2.21,0.1c-1.71-1.76-3.34-3.45-5.04-5.21c0.45-0.4,0.89-0.8,1.34-1.2c0.12,0.14,0.24,0.3,0.38,0.42
		c1.02,0.96,2.05,1.92,3.08,2.88c-0.02,0.01-0.04,0.01-0.05,0.02c-0.01,0.01-0.03,0.04-0.03,0.04c0.53,0.53,1.06,1.07,1.59,1.6
		c0.05-0.03,0.09-0.06,0.14-0.09c-0.06-0.2-0.12-0.41-0.18-0.61c0.04-0.16,0.12-0.31,0.12-0.47c0.01-1.94,0-3.88,0-5.82
		c0.61,0,1.23,0,1.84,0c0,2.32,0,4.65,0,6.97c0.05,0.03,0.1,0.07,0.15,0.1c0.57-0.6,1.12-1.22,1.71-1.79
		c1.08-1.05,2.19-2.08,3.29-3.12c0.38,0.37,0.75,0.74,1.13,1.12c-0.06,0.13-0.1,0.29-0.19,0.38c-1.28,1.29-2.58,2.57-3.87,3.85
		c-0.27,0.27-0.56,0.52-0.84,0.78c0.02,0.04,0.04,0.09,0.07,0.13c2.36,0,4.72,0,7.09,0c0,0.58,0,1.17,0,1.75c-2.36,0-4.73,0-7.09,0
		c1.53,1.56,3.02,3.08,4.49,4.6c0.15,0.15,0.24,0.36,0.36,0.55c-0.38,0.37-0.76,0.75-1.13,1.12c-0.11-0.08-0.22-0.14-0.31-0.23
		c-1.46-1.42-2.91-2.85-4.37-4.27c-0.13-0.12-0.26-0.23-0.46-0.41c0,2.43,0,4.75,0,7.07c-0.61,0-1.23,0-1.84,0c0-2.32,0-4.65,0-7.07
		c-0.2,0.18-0.32,0.28-0.44,0.39c-1.04,1.03-2.08,2.05-3.11,3.09c-0.51,0.51-0.99,1.04-1.49,1.56c-0.46-0.45-0.92-0.91-1.38-1.36
		c1.69-1.63,3.37-3.27,5.06-4.9c-0.03-0.04-0.06-0.09-0.1-0.13C57.71,87.84,55.36,87.84,53.01,87.84z"/>
	<path class="st3" d="M53.01,87.84c2.35,0,4.71,0,7.06,0c0.03,0.04,0.06,0.09,0.1,0.13c-1.69,1.63-3.37,3.27-5.06,4.9
		C53.87,91.42,53.17,89.75,53.01,87.84z"/>
	<path class="st3" d="M71.89,86.09c-2.36,0-4.72,0-7.09,0c-0.02-0.04-0.04-0.09-0.07-0.13c0.28-0.26,0.57-0.51,0.84-0.78
		c1.29-1.28,2.59-2.56,3.87-3.85c0.1-0.1,0.13-0.26,0.19-0.38c0.86,0.8,1.38,1.81,1.74,2.89C71.62,84.56,71.72,85.34,71.89,86.09z"
		/>
	<path class="st3" d="M17.17,81.06c0.32,0.3,0.64,0.59,0.95,0.89c1.22,1.19,2.45,2.39,3.67,3.58c0.14,0.14,0.28,0.29,0.53,0.56
		c-2.52,0-4.88,0-7.24,0C15.24,84.19,15.93,82.51,17.17,81.06z"/>
	<path class="st3" d="M31.71,92.99c-0.12-0.18-0.21-0.39-0.35-0.55c-1.48-1.52-2.97-3.04-4.51-4.6c2.38,0,4.75,0,7.11,0
		C33.76,89.8,33.1,91.55,31.71,92.99z"/>
	<path class="st3" d="M15.08,87.85c2.35,0,4.7,0,7.05,0c0.03,0.04,0.06,0.08,0.09,0.12c-1.68,1.64-3.37,3.27-5.05,4.91
		C15.93,91.42,15.24,89.74,15.08,87.85z"/>
	<path class="st3" d="M69.64,92.99c-0.12-0.18-0.21-0.39-0.36-0.55c-1.48-1.52-2.97-3.04-4.49-4.6c2.36,0,4.73,0,7.09,0
		C71.69,89.8,71.03,91.55,69.64,92.99z"/>
	<path class="st3" d="M25.43,96.27c0-2.32,0-4.65,0-7.09c0.23,0.22,0.38,0.35,0.53,0.49c1.44,1.41,2.87,2.81,4.31,4.22
		c0.09,0.09,0.21,0.15,0.31,0.23c-1.2,1.14-2.66,1.72-4.25,2.05C26.03,96.22,25.73,96.23,25.43,96.27z"/>
	<path class="st3" d="M68.51,79.82c-1.1,1.04-2.2,2.07-3.29,3.12c-0.59,0.58-1.14,1.19-1.71,1.79c-0.05-0.03-0.1-0.07-0.15-0.1
		c0-2.32,0-4.65,0-6.97C65.31,77.83,67.05,78.49,68.51,79.82z"/>
	<path class="st3" d="M63.36,96.27c0-2.32,0-4.64,0-7.07c0.2,0.18,0.34,0.29,0.46,0.41c1.46,1.42,2.91,2.85,4.37,4.27
		c0.09,0.09,0.21,0.16,0.31,0.23c-1.19,1.14-2.66,1.72-4.24,2.05C63.97,96.22,63.66,96.23,63.36,96.27z"/>
	<path class="st3" d="M23.59,77.66c0,2.32,0,4.65,0,7.07c-0.2-0.17-0.32-0.28-0.44-0.39c-1.4-1.39-2.8-2.78-4.2-4.17
		c-0.15-0.15-0.27-0.31-0.4-0.47C20.02,78.5,21.69,77.81,23.59,77.66z"/>
	<path class="st3" d="M56.48,94.24c0.5-0.52,0.98-1.05,1.49-1.56c1.03-1.04,2.07-2.06,3.11-3.09c0.12-0.11,0.24-0.22,0.44-0.39
		c0,2.42,0,4.74,0,7.07C59.63,96.12,57.95,95.43,56.48,94.24z"/>
	<path class="st3" d="M18.55,94.24c0.5-0.52,0.98-1.05,1.49-1.56c1.02-1.02,2.04-2.03,3.07-3.05c0.13-0.13,0.27-0.24,0.48-0.44
		c0,2.43,0,4.75,0,7.07C21.7,96.12,20.02,95.43,18.55,94.24z"/>
	<path class="st3" d="M30.71,79.93c-0.62,0.54-1.24,1.07-1.87,1.61c-0.18,0.1-0.37,0.18-0.53,0.3c-0.97,0.7-1.93,1.41-2.89,2.12
		c0-2.1,0-4.2,0-6.29C27.44,77.84,29.23,78.53,30.71,79.93z"/>
	<path class="st3" d="M61.52,77.66c0,1.94,0.01,3.88,0,5.82c0,0.16-0.08,0.31-0.12,0.47c-0.49-0.32-0.98-0.63-1.47-0.95
		c-1.03-0.96-2.05-1.92-3.08-2.88c-0.14-0.13-0.25-0.28-0.38-0.42C57.95,78.49,59.63,77.81,61.52,77.66z"/>
	<path class="st3" d="M33.96,85.99c-0.22,0.04-0.44,0.1-0.65,0.1c-1.51,0.01-3.02,0.01-4.52,0.02c1.4-1.08,2.81-2.17,4.25-3.28
		C33.58,83.87,33.85,84.91,33.96,85.99z"/>
	<path class="st3" d="M57.97,86.01c-0.12,0.03-0.25,0.09-0.37,0.09c-1.53,0-3.07,0-4.6,0c0.22-1.02,0.44-2.05,0.69-3.2
		C55.23,84,56.6,85,57.97,86.01z"/>
	<path class="st0" d="M90.62,26.13c-1.85,0.14-3.4-1.64-3.39-3.38c0.01-1.81,1.57-3.55,3.64-3.48c1.66,0.05,3.4,1.59,3.34,3.49
		C94.16,24.43,92.74,26.33,90.62,26.13z"/>
	<path class="st2" d="M25.42,83.96c0.96-0.71,1.93-1.42,2.89-2.12c0.16-0.12,0.35-0.2,0.53-0.3c-0.22,0.25-0.43,0.51-0.66,0.75
		c-0.85,0.9-1.72,1.8-2.57,2.7c-0.06-0.04-0.13-0.08-0.19-0.11C25.42,84.58,25.42,84.27,25.42,83.96z"/>
	<path class="st2" d="M59.94,83c0.49,0.32,0.98,0.63,1.47,0.95c0.06,0.2,0.12,0.41,0.18,0.61c-0.05,0.03-0.09,0.06-0.14,0.09
		c-0.53-0.53-1.06-1.06-1.59-1.6c0,0,0.02-0.03,0.03-0.04C59.9,83.01,59.92,83,59.94,83z"/>
</g>
</svg>
