<?xml version="1.0" encoding="utf-8"?>
<!-- Generator: Adobe Illustrator 23.0.3, SVG Export Plug-In . SVG Version: 6.00 Build 0)  -->
<svg version="1.1" id="Vrstva_1" xmlns="http://www.w3.org/2000/svg" xmlns:xlink="http://www.w3.org/1999/xlink" x="0px" y="0px"
	 viewBox="0 0 737.01 127.56" style="enable-background:new 0 0 737.01 127.56;" xml:space="preserve">
<style type="text/css">
	.st0{fill:#018181;}
</style>
<g>
	<g>
		<path class="st0" d="M558.75,110.36c-0.6,2.91-1.55,3.49-4.2,2.6c0.11,2.28-1.41,3.31-3.48,2.64c-0.16,0.44-0.27,0.91-0.49,1.32
			c-0.58,1.08-1.84,1.4-2.87,0.77c-0.68-0.41-0.77-0.75-0.44-1.49c0.45-1.02,0.97-2.02,0.7-3.2c-0.27-1.17-1.14-1.97-2.36-1.97
			c-0.68,0-0.96-0.27-1.21-0.86c-0.43-1.06-1.31-1.61-2.45-1.61c-0.57,0-0.84-0.12-0.97-0.75c-0.45-2.17-2.84-3.15-4.7-1.95
			c-0.48,0.3-0.72,0.32-1.14-0.12c-1.18-1.26-3.29-1.09-4.29,0.42c-0.48,0.73-0.96,0.71-1.64,0.5c-7.15-2.19-12.56-6.53-16.18-13.07
			c-1.39-2.52-2.37-5.2-2.74-8.06c-0.21-1.63-0.39-3.27-0.4-4.91c-0.03-13.38,0.01-26.77-0.04-40.15c-0.01-3.33,2.09-6.36,5.27-7.28
			c4.15-1.2,8.21,1.2,9.2,5.22c0.19,0.76,0.26,1.58,0.26,2.36c0.02,13.34-0.01,26.67,0.02,40.01c0.01,4.97,2.28,8.67,6.71,10.96
			c0.95,0.49,2.03,0.78,3.08,1.05c1.27,0.32,2.32-0.28,3.26-1.05c1.44-1.18,2.84-2.41,4.28-3.59c1.91-1.56,4.41-1.3,6.02,0.59
			c0.92,1.08,0.92,1.08,0.01,2.16c-0.34,0.41-0.68,0.82-1.01,1.24c-1.38,1.75-1.16,4.25,0.47,5.62c1.73,1.45,4.19,1.24,5.72-0.49
			c0.13-0.14,0.22-0.32,0.4-0.59c0.74,0.89,1.39,1.63,2,2.4c2.12,2.65,4.23,5.29,6.33,7.96c0.86,1.1,0.87,2.18,0.09,3.04
			c-0.78,0.86-1.96,0.98-3.1,0.32C558.85,110.35,558.79,110.36,558.75,110.36z"/>
		<path d="M553.67,95.85c-0.38,0.41-0.68,0.75-0.99,1.08c-1.32,1.39-3.32,1.59-4.72,0.47c-1.37-1.09-1.71-3.22-0.6-4.71
			c1.27-1.7,2.62-3.37,4.05-4.94c1.68-1.84,5.12-1.49,5.98,1.55c0.42,1.49,1.32,2.69,2.62,3.42c0.58,0.32,1.52,0.18,2.24,0.01
			c3.93-0.93,6.87-3.13,8.56-6.87c0.65-1.45,1.05-2.97,1.06-4.56c0.01-8.63,0.01-17.26,0.01-25.89c0-5.14-0.01-10.28,0.01-15.42
			c0.02-4.22,4.06-7.64,8.22-7.05c2.95,0.42,4.92,2.05,6,4.74c0.3,0.75,0.29,1.64,0.34,2.47c0.08,1.25,0.13,2.5,0.13,3.75
			c0.01,12.56,0.07,25.12-0.03,37.67c-0.05,6.65-2.5,12.46-6.99,17.39c-3.06,3.36-6.76,5.78-11.05,7.24
			c-1.52,0.52-3.14,0.75-4.72,1.13c-0.49,0.12-0.75-0.16-1.03-0.5c-2.86-3.48-5.73-6.95-8.59-10.42
			C554.04,96.25,553.89,96.09,553.67,95.85z"/>
		<path d="M542.59,115.31c-2.34,1.04-3.62,0.42-3.97-1.97c-0.89,0.62-1.82,1.01-2.89,0.55c-1.04-0.45-1.47-1.33-1.64-2.46
			c-0.86,0.7-1.68,1.11-2.72,0.64c-1.04-0.47-1.67-1.67-1.3-2.75c0.29-0.84,0.64-1.67,1.03-2.48c0.44-0.9,1.19-1.4,2.22-1.35
			c1,0.05,1.63,0.65,1.98,1.56c0.05,0.13,0.13,0.26,0.22,0.45c0.84-1.22,1.91-1.99,3.37-1.38c1.14,0.48,1.81,1.18,1.53,3.44
			c0.9-0.48,1.79-0.67,2.68-0.07c0.9,0.6,1.12,1.47,0.96,2.55c0.16-0.06,0.26-0.08,0.35-0.13c0.82-0.47,1.69-0.42,2.36,0.15
			c0.68,0.58,0.93,1.52,0.59,2.45c-0.2,0.54-0.44,1.08-0.68,1.6c-0.43,0.91-1.3,1.48-2.09,1.4c-0.92-0.09-1.7-0.87-1.92-1.92
			C542.64,115.5,542.62,115.41,542.59,115.31z"/>
	</g>
	<path d="M4.24,102.74c1.59-1.14,3.2-1.85,4.84-2.15c1.64-0.29,3.37-0.53,5.2-0.7l12.94-52.38c-0.14,0-0.53-0.01-1.16-0.02
		c-0.64-0.02-1.35-0.07-2.12-0.16c-0.78-0.08-1.55-0.23-2.3-0.44c-0.76-0.21-1.33-0.5-1.71-0.88c-0.17-0.24-0.39-0.56-0.65-0.96
		s-0.51-0.83-0.75-1.29c-0.24-0.47-0.45-0.94-0.62-1.42c-0.17-0.48-0.26-0.97-0.26-1.45c0-0.8,0.34-1.46,1.01-2
		c0.67-0.53,1.5-0.97,2.49-1.29c0.98-0.33,2.04-0.56,3.18-0.7c1.14-0.14,2.17-0.21,3.11-0.21c4.35,0,8.38,0.13,12.09,0.39
		c3.71,0.26,7.18,0.82,10.4,1.68c3.23,0.86,6.26,2.09,9.11,3.67c2.85,1.59,5.56,3.71,8.15,6.37c0.97,1,1.89,2.12,2.77,3.36
		c0.88,1.24,1.66,2.6,2.33,4.06c0.67,1.47,1.22,3.04,1.63,4.71c0.41,1.67,0.62,3.44,0.62,5.31c0,1-0.05,2.05-0.16,3.16
		c-0.1,1.11-0.24,2.05-0.41,2.85c-1,4-2.41,7.55-4.22,10.64c-1.81,3.09-3.92,5.83-6.31,8.23c-2.4,2.4-5.03,4.48-7.89,6.24
		c-2.86,1.76-5.83,3.29-8.9,4.6c-3.07,1.31-6.19,2.45-9.37,3.42c-3.18,0.97-6.26,1.83-9.26,2.59h0.05c-1.35,0.42-2.8,0.78-4.35,1.09
		c-1.55,0.31-3.12,0.57-4.71,0.78c-1.59,0.21-3.17,0.37-4.74,0.49c-1.57,0.12-3.05,0.18-4.43,0.18c-1.52,0-2.8-0.09-3.83-0.28
		c-1.04-0.19-1.87-0.45-2.51-0.78c-0.64-0.33-1.1-0.7-1.37-1.11c-0.28-0.42-0.42-0.86-0.42-1.35c0-0.69,0.2-1.41,0.6-2.15
		C2.7,104.1,3.35,103.4,4.24,102.74z M27.02,87.89c-0.41,1.76-0.85,3.57-1.29,5.44c-0.45,1.86-0.88,3.69-1.29,5.49l1.19-0.26
		c0.76-0.17,1.79-0.43,3.08-0.78c1.29-0.35,2.79-0.78,4.48-1.29s3.47-1.14,5.33-1.86c1.86-0.73,3.84-1.6,5.93-2.62
		c2.09-1.02,4.15-2.17,6.19-3.47s3.99-2.7,5.85-4.22c1.86-1.52,3.5-3.15,4.92-4.89c1.41-1.74,2.54-3.57,3.39-5.49
		c0.85-1.92,1.27-3.91,1.27-5.98c0-2.11-0.41-4.1-1.24-5.98c-0.83-1.88-1.94-3.62-3.34-5.23c-1.4-1.61-3.02-3.04-4.87-4.3
		c-1.85-1.26-3.77-2.34-5.77-3.24c-2-0.9-4.03-1.58-6.08-2.04c-2.05-0.47-3.99-0.7-5.82-0.7c-2.59,6.7-4.8,13.49-6.62,20.4
		C30.47,73.78,28.71,80.78,27.02,87.89z"/>
	<path d="M82.56,103.99c1.97-7.9,4-15.71,6.11-23.42c2.1-7.71,4.14-15.52,6.11-23.42c0.24-1.03,0.48-2.02,0.72-2.95
		c0.24-0.93,0.47-1.86,0.67-2.8c0.21-0.93,0.37-1.87,0.49-2.82c0.12-0.95,0.18-1.94,0.18-2.98c0-0.8-0.05-1.52-0.16-2.17
		c-0.1-0.66-0.16-1.4-0.16-2.23c0-0.8,0.1-1.64,0.31-2.54c0.52-2.11,1.25-3.68,2.2-4.71c0.95-1.04,2.39-1.55,4.32-1.55
		c0.79,0,1.56,0.08,2.3,0.23c0.74,0.16,1.48,0.34,2.2,0.54c0.79,0.24,1.61,0.45,2.46,0.62c0.85,0.18,1.7,0.26,2.56,0.26
		c0.69,0,1.36-0.04,2.02-0.1c0.66-0.07,1.41-0.14,2.25-0.21c0.85-0.07,1.85-0.14,3-0.21c1.16-0.07,2.61-0.1,4.37-0.1
		c0.97,0,2.1,0.03,3.42,0.1c1.31,0.07,2.67,0.23,4.09,0.47c1.41,0.24,2.85,0.6,4.3,1.06c1.45,0.47,2.8,1.1,4.06,1.89
		c1.26,0.79,2.37,1.77,3.34,2.92c0.97,1.16,1.69,2.55,2.17,4.17c0.24,0.79,0.41,1.52,0.49,2.17c0.08,0.66,0.13,1.29,0.13,1.92
		c0,2.1-0.54,4.17-1.6,6.21c-1.21,2.31-2.84,4.48-4.89,6.5c-2.05,2.02-4.44,3.93-7.17,5.72c-1.07,0.72-2.31,1.47-3.73,2.25
		c-1.42,0.78-2.8,1.52-4.17,2.23c-1.36,0.71-2.59,1.35-3.68,1.94c-1.09,0.59-1.84,1.04-2.25,1.35c1.21,0.59,2.41,1.2,3.62,1.84
		c1.21,0.64,2.44,1.41,3.7,2.3c1.26,0.9,2.54,1.99,3.83,3.26c1.29,1.28,2.64,2.84,4.04,4.68c1.4,1.85,2.85,4.03,4.35,6.55
		s3.06,5.49,4.68,8.9c0.41,0.83,0.62,1.71,0.62,2.64c0,0.73-0.15,1.45-0.44,2.18c-0.29,0.72-0.69,1.38-1.19,1.97
		c-0.5,0.59-1.1,1.06-1.78,1.42c-0.69,0.36-1.43,0.54-2.23,0.54c-1.21,0-2.21-0.45-3-1.35c-0.79-0.9-1.55-2.07-2.28-3.52
		c-0.72-1.45-1.47-3.09-2.25-4.92c-0.78-1.83-1.73-3.67-2.87-5.54c-1.24-2-2.61-3.9-4.11-5.69c-1.5-1.8-3.1-3.35-4.79-4.66
		c-1.69-1.31-3.43-2.35-5.23-3.13c-1.79-0.78-3.59-1.16-5.38-1.16h-0.78c-1.07,0-2.03,0.09-2.87,0.28
		c-0.85,0.19-1.67,0.35-2.46,0.49c-1.07-0.38-1.85-1-2.33-1.86s-0.72-1.83-0.72-2.9v-0.73l-4.14,16.31
		c-0.14,0.52-0.33,1.23-0.57,2.12c-0.24,0.9-0.52,1.88-0.83,2.95c-0.31,1.07-0.63,2.19-0.96,3.36c-0.33,1.17-0.64,2.28-0.93,3.31
		c-0.29,1.03-0.55,1.97-0.78,2.79c-0.23,0.83-0.39,1.45-0.49,1.86c-0.48,0.86-1.1,1.54-1.84,2.04c-0.74,0.5-1.54,0.75-2.41,0.75
		c-1.52,0-2.57-0.46-3.16-1.37c-0.59-0.92-0.88-1.98-0.88-3.19c0-0.48,0.03-0.97,0.1-1.47C82.37,104.91,82.45,104.44,82.56,103.99z
		 M107.97,45.6c-0.21,0.69-0.51,1.69-0.91,3c-0.4,1.31-0.84,2.79-1.32,4.45c-0.48,1.66-1,3.43-1.55,5.33
		c-0.55,1.9-1.11,3.81-1.66,5.72c-0.55,1.92-1.09,3.77-1.6,5.56c-0.52,1.8-0.98,3.4-1.4,4.82c0.69-0.9,1.72-1.7,3.11-2.41
		c1.38-0.71,2.93-1.37,4.66-1.99c1.35-0.48,3-1.16,4.97-2.04c1.97-0.88,4.03-1.89,6.19-3.03c2.16-1.14,4.31-2.37,6.47-3.7
		c2.16-1.33,4.09-2.69,5.8-4.09c1.71-1.4,3.1-2.79,4.17-4.19c1.07-1.4,1.6-2.75,1.6-4.06c0-1.28-0.45-2.29-1.35-3.03
		c-0.9-0.74-2.02-1.3-3.37-1.68c-1.35-0.38-2.82-0.63-4.42-0.75c-1.6-0.12-3.1-0.18-4.48-0.18c-2.49,0-4.97,0.16-7.45,0.47
		C112.94,44.1,110.46,44.7,107.97,45.6z"/>
	<path d="M160.72,85.61c0.76-3.48,1.58-6.6,2.46-9.34c0.88-2.74,1.75-5.29,2.61-7.66s1.68-4.62,2.46-6.78
		c0.78-2.16,1.46-4.39,2.04-6.7l0.62-2.48c0.14-0.62,0.26-1.4,0.36-2.33c0.1-0.93,0.22-1.91,0.34-2.93s0.29-2.03,0.49-3.03
		c0.21-1,0.51-1.9,0.91-2.69c0.4-0.79,0.91-1.44,1.53-1.94c0.62-0.5,1.41-0.75,2.38-0.75c1.07,0,1.97,0.19,2.72,0.57
		c0.74,0.38,1.34,0.88,1.78,1.5c0.45,0.62,0.78,1.34,0.98,2.15c0.21,0.81,0.31,1.65,0.31,2.51c0,0.73-0.04,1.45-0.13,2.17
		c-0.09,0.73-0.22,1.4-0.39,2.02c-0.38,1.55-1,3.36-1.86,5.44c-0.86,2.07-1.81,4.36-2.85,6.86c-1.04,2.5-2.09,5.21-3.16,8.13
		c-1.07,2.92-2.02,5.99-2.85,9.24c-0.48,1.83-0.91,3.83-1.27,6c-0.36,2.18-0.54,4.14-0.54,5.9c0,1.41,0.12,2.75,0.36,4.01
		c0.24,1.26,0.67,2.36,1.29,3.31c0.62,0.95,1.46,1.7,2.51,2.25c1.05,0.55,2.39,0.83,4.01,0.83c1.24,0,2.53-0.1,3.86-0.31
		c1.33-0.21,2.91-0.71,4.74-1.5c2.69-1.21,5.24-2.77,7.64-4.69c2.4-1.91,4.62-4.1,6.68-6.55c2.05-2.45,3.95-5.09,5.69-7.92
		c1.74-2.83,3.32-5.76,4.74-8.8c1.41-3.04,2.66-6.11,3.75-9.21c1.09-3.1,2.01-6.16,2.77-9.16c0.31-1.28,0.55-2.48,0.73-3.6
		c0.17-1.12,0.3-2.27,0.39-3.44c0.09-1.17,0.16-2.43,0.21-3.78c0.05-1.35,0.15-2.88,0.28-4.61c0.1-1.38,0.49-2.58,1.17-3.6
		c0.67-1.02,1.7-1.53,3.08-1.53c0.86,0,1.61,0.35,2.25,1.04c0.64,0.69,1.16,1.54,1.58,2.56c0.41,1.02,0.72,2.09,0.93,3.24
		c0.21,1.14,0.31,2.16,0.31,3.05c0,1.73-0.17,3.59-0.52,5.59c-0.35,2-0.76,3.92-1.24,5.75c-1,3.97-2.2,7.95-3.6,11.96
		c-1.4,4-3.06,7.92-5,11.75c-1.93,3.83-4.18,7.55-6.75,11.15c-2.57,3.6-5.53,6.98-8.88,10.12c-1.66,1.55-3.45,3.08-5.38,4.58
		c-1.93,1.5-3.95,2.86-6.06,4.06c-2.11,1.21-4.26,2.18-6.47,2.92c-2.21,0.74-4.4,1.11-6.57,1.11c-3.14,0-5.87-0.44-8.18-1.32
		c-2.31-0.88-4.24-2.12-5.77-3.7c-1.54-1.59-2.68-3.48-3.44-5.67c-0.76-2.19-1.14-4.6-1.14-7.22c0-1.24,0.1-2.62,0.31-4.12
		C160.15,88.54,160.41,87.06,160.72,85.61z"/>
	<path d="M227.49,108.96c0-0.38,0.06-0.89,0.18-1.53c0.12-0.64,0.27-1.29,0.44-1.97s0.35-1.32,0.54-1.94
		c0.19-0.62,0.34-1.12,0.44-1.5l20.96-68.79c0.17-0.24,0.36-0.45,0.57-0.62c0.17-0.17,0.41-0.32,0.7-0.44
		c0.29-0.12,0.65-0.18,1.06-0.18h0.88c0.76,0,1.4,0.13,1.91,0.39c0.52,0.26,0.93,0.6,1.24,1.04c0.31,0.43,0.53,0.93,0.65,1.5
		c0.12,0.57,0.18,1.18,0.18,1.84c0,0.55-0.04,1.13-0.13,1.73s-0.18,1.19-0.29,1.76c-0.1,0.57-0.22,1.1-0.34,1.58
		c-0.12,0.48-0.21,0.86-0.28,1.14l-10.77,36.75l4.92-0.47c5.49-1.21,11.09-2.46,16.8-3.75c5.71-1.29,11.31-2.55,16.8-3.75
		c0.62-0.31,1.17-0.95,1.66-1.92c0.48-0.97,0.96-2.22,1.42-3.78c0.47-1.55,0.98-3.37,1.53-5.46c0.55-2.09,1.22-4.41,2.02-6.96
		l1.09-3.57c0.45-1.72,0.85-3.49,1.22-5.3c0.36-1.81,0.8-3.46,1.32-4.94c0.52-1.48,1.17-2.7,1.97-3.65
		c0.79-0.95,1.81-1.42,3.05-1.42c1.76,0,3.12,0.56,4.09,1.68c0.97,1.12,1.45,2.53,1.45,4.22c0,1.07-0.41,2.86-1.22,5.38
		c-0.81,2.52-1.82,5.59-3.03,9.21c-0.45,1.35-0.93,2.73-1.45,4.14c-0.52,1.42-0.99,2.77-1.42,4.06c-0.43,1.3-0.79,2.49-1.06,3.57
		c-0.28,1.09-0.41,1.96-0.41,2.62c0,0.62,0.09,1.23,0.26,1.84c0.17,0.6,0.26,1.25,0.26,1.94c0,1.55-0.41,2.85-1.24,3.88
		c-0.83,1.04-1.97,2.09-3.42,3.16c-0.07,0.27-0.16,0.71-0.28,1.29c-0.12,0.59-0.27,1.19-0.44,1.81l-0.67,2.64
		c-0.48,1.9-0.89,3.8-1.22,5.69c-0.33,1.9-0.62,3.78-0.88,5.64c-0.26,1.86-0.54,3.73-0.83,5.59c-0.29,1.86-0.66,3.71-1.11,5.54
		c-0.17,0.69-0.48,1.3-0.91,1.84c-0.43,0.54-0.93,0.99-1.5,1.37s-1.16,0.67-1.79,0.88c-0.62,0.21-1.21,0.31-1.76,0.31
		c-0.83,0-1.5-0.19-2.02-0.57c-0.52-0.38-0.92-0.83-1.22-1.35c-0.29-0.52-0.49-1.05-0.6-1.6c-0.1-0.55-0.16-1.02-0.16-1.4
		c0-0.41,0.06-1.09,0.18-2.04c0.12-0.95,0.29-2.06,0.49-3.34c0.21-1.28,0.45-2.66,0.73-4.14c0.27-1.48,0.55-2.98,0.83-4.5
		c0.66-3.52,1.41-7.37,2.28-11.54h-0.36c-0.9,0-1.86,0.1-2.9,0.29c-1.03,0.19-2.28,0.46-3.73,0.8c-0.66,0.21-1.63,0.48-2.92,0.83
		c-1.29,0.35-2.77,0.74-4.43,1.19c-1.66,0.45-3.44,0.93-5.36,1.45c-1.92,0.52-3.82,1.04-5.72,1.55l-14.03,3.83
		c-0.66,1.35-1.27,2.81-1.84,4.38c-0.57,1.57-1.1,3.16-1.58,4.76c-0.48,1.61-0.92,3.19-1.32,4.74c-0.4,1.55-0.77,3.02-1.11,4.4
		c-0.1,0.38-0.32,0.8-0.65,1.24c-0.33,0.45-0.71,0.86-1.14,1.24c-0.43,0.38-0.88,0.69-1.35,0.93c-0.47,0.24-0.91,0.36-1.32,0.36
		c-0.76,0-1.39-0.16-1.89-0.49s-0.91-0.76-1.22-1.29c-0.31-0.54-0.53-1.14-0.65-1.81C227.55,110.27,227.49,109.61,227.49,108.96z"/>
	<path d="M352.7,111.08c-0.72,0-1.36-0.14-1.91-0.42c-0.55-0.27-1.01-0.64-1.37-1.09c-0.36-0.45-0.64-0.97-0.83-1.55
		c-0.19-0.59-0.29-1.17-0.29-1.76c0-0.52,0.14-1.23,0.41-2.15c0.28-0.92,0.63-1.94,1.06-3.08c0.43-1.14,0.91-2.33,1.42-3.57
		c0.52-1.24,1.02-2.43,1.5-3.57s0.9-2.19,1.24-3.16c0.35-0.97,0.59-1.73,0.73-2.28c0.14-0.62,0.31-1.36,0.52-2.23
		c0.21-0.86,0.44-1.8,0.7-2.82c0.26-1.02,0.52-2.09,0.78-3.21c0.26-1.12,0.53-2.25,0.8-3.39c-0.48,0.11-1.08,0.2-1.79,0.29
		c-0.71,0.08-1.46,0.16-2.25,0.23c-1.14,0.11-2.26,0.26-3.37,0.47c-1.1,0.21-2.23,0.44-3.39,0.7c-1.16,0.26-2.35,0.54-3.6,0.83
		c-1.24,0.3-2.57,0.6-3.99,0.91c-2.07,0.45-4.14,0.95-6.21,1.5c-2.07,0.55-4.23,0.83-6.47,0.83c-0.69,0-1.33-0.18-1.91-0.54
		c-0.59-0.36-1.24-0.63-1.97-0.8c-0.69,1.11-1.35,2.29-1.97,3.55c-0.62,1.26-1.19,2.55-1.71,3.88c-0.52,1.33-0.98,2.64-1.4,3.93
		s-0.78,2.51-1.09,3.65c-0.17,0.62-0.32,1.42-0.44,2.41c-0.12,0.98-0.23,1.99-0.34,3c-0.1,1.02-0.21,2-0.31,2.93
		c-0.1,0.93-0.21,1.67-0.31,2.23c-0.1,0.52-0.31,1.03-0.62,1.53c-0.31,0.5-0.69,0.96-1.14,1.37c-0.45,0.41-0.95,0.75-1.5,1.01
		c-0.55,0.26-1.11,0.39-1.66,0.39c-0.97,0-1.75-0.29-2.35-0.85c-0.6-0.57-1.09-1.28-1.45-2.12c-0.36-0.85-0.61-1.77-0.75-2.77
		s-0.21-1.92-0.21-2.74c0-2.11,0.26-4.29,0.78-6.55c0.52-2.26,1.22-4.56,2.1-6.89c0.88-2.33,1.91-4.67,3.11-7.04
		c1.19-2.36,2.48-4.72,3.86-7.06c1.14-2.11,2.55-4.54,4.24-7.3c1.69-2.76,3.58-5.6,5.67-8.52c2.09-2.92,4.35-5.77,6.78-8.57
		c2.43-2.8,4.96-5.29,7.58-7.48c2.62-2.19,5.31-3.96,8.08-5.31c2.76-1.35,5.5-2.02,8.23-2.02c2.86,0,5.25,0.52,7.17,1.55
		c1.91,1.04,3.44,2.43,4.58,4.19c1.14,1.76,1.94,3.81,2.41,6.16c0.47,2.35,0.7,4.83,0.7,7.45c0,2.31-0.15,4.69-0.44,7.14
		c-0.29,2.45-0.66,4.85-1.09,7.19c-0.43,2.35-0.9,4.61-1.4,6.78c-0.5,2.17-0.96,4.14-1.37,5.9l-1.81,7.04
		c-0.07,0.21-0.2,0.62-0.39,1.24c-0.19,0.62-0.43,1.37-0.73,2.25c-0.29,0.88-0.62,1.83-0.98,2.85c-0.36,1.02-0.72,2.02-1.09,3
		c-0.36,0.98-0.71,1.89-1.04,2.72c-0.33,0.83-0.61,1.5-0.85,2.02l0.05-0.05c-0.24,0.9-0.5,1.81-0.78,2.74
		c-0.28,0.93-0.66,1.77-1.14,2.51c-0.48,0.74-1.1,1.35-1.86,1.81S353.91,111.08,352.7,111.08z M355.34,46.27
		c-1.55,0-3.1,0.32-4.63,0.96c-1.54,0.64-3.05,1.47-4.53,2.51c-1.48,1.04-2.92,2.24-4.32,3.62c-1.4,1.38-2.73,2.79-3.99,4.24
		c-1.26,1.45-2.44,2.91-3.55,4.37c-1.1,1.47-2.1,2.82-3,4.06c-0.14,0.21-0.32,0.47-0.54,0.8c-0.22,0.33-0.45,0.69-0.67,1.09
		c-0.22,0.39-0.44,0.81-0.65,1.24c-0.21,0.43-0.38,0.82-0.52,1.16h5.33c1.93,0,4.14-0.14,6.63-0.41c2.48-0.27,4.94-0.6,7.37-0.98
		c2.43-0.38,4.67-0.77,6.7-1.16c2.04-0.4,3.57-0.7,4.61-0.91c0.14-0.45,0.27-1.05,0.39-1.81c0.12-0.76,0.23-1.61,0.34-2.54
		c0.1-0.93,0.18-1.92,0.23-2.98c0.05-1.05,0.08-2.13,0.08-3.24c0-0.9-0.04-1.92-0.1-3.08c-0.07-1.16-0.28-2.25-0.62-3.29
		c-0.35-1.04-0.87-1.91-1.58-2.62C357.61,46.63,356.61,46.27,355.34,46.27z M376.41,12.89c-0.38,1.52-1.03,2.74-1.94,3.67
		c-0.92,0.93-2.04,1.74-3.39,2.43l-16.25,8.07c-0.62,0.35-1.45,0.52-2.49,0.52c-0.79,0-1.36-0.18-1.71-0.54
		c-0.35-0.36-0.52-0.84-0.52-1.42c0-0.73,0.15-1.38,0.44-1.97c0.29-0.59,0.66-1.12,1.11-1.6c0.45-0.48,0.93-0.91,1.45-1.27
		c0.52-0.36,0.98-0.68,1.4-0.96l3.93-2.33c1.66-0.97,3.28-1.94,4.87-2.93c1.59-0.98,3.07-1.86,4.45-2.64
		c1.38-0.78,2.62-1.42,3.73-1.92s1.97-0.75,2.59-0.75c0.69,0,1.27,0.24,1.73,0.73c0.47,0.49,0.7,1.12,0.7,1.92c0,0.17,0,0.34,0,0.49
		S376.47,12.71,376.41,12.89z"/>
	<path d="M433.45,103.99c1.97-7.9,4-15.71,6.11-23.42c2.1-7.71,4.14-15.52,6.11-23.42c0.24-1.03,0.48-2.02,0.72-2.95
		c0.24-0.93,0.47-1.86,0.67-2.8c0.21-0.93,0.37-1.87,0.49-2.82c0.12-0.95,0.18-1.94,0.18-2.98c0-0.8-0.05-1.52-0.16-2.17
		c-0.1-0.66-0.16-1.4-0.16-2.23c0-0.8,0.1-1.64,0.31-2.54c0.52-2.11,1.25-3.68,2.2-4.71c0.95-1.04,2.39-1.55,4.32-1.55
		c0.79,0,1.56,0.08,2.3,0.23c0.74,0.16,1.48,0.34,2.2,0.54c0.79,0.24,1.61,0.45,2.46,0.62c0.85,0.18,1.7,0.26,2.56,0.26
		c0.69,0,1.36-0.04,2.02-0.1c0.66-0.07,1.41-0.14,2.25-0.21c0.85-0.07,1.85-0.14,3-0.21c1.16-0.07,2.61-0.1,4.37-0.1
		c0.97,0,2.1,0.03,3.42,0.1c1.31,0.07,2.67,0.23,4.09,0.47c1.41,0.24,2.85,0.6,4.3,1.06c1.45,0.47,2.8,1.1,4.06,1.89
		c1.26,0.79,2.37,1.77,3.34,2.92c0.97,1.16,1.69,2.55,2.17,4.17c0.24,0.79,0.41,1.52,0.49,2.17c0.08,0.66,0.13,1.29,0.13,1.92
		c0,2.1-0.54,4.17-1.6,6.21c-1.21,2.31-2.84,4.48-4.89,6.5c-2.05,2.02-4.44,3.93-7.17,5.72c-1.07,0.72-2.31,1.47-3.73,2.25
		c-1.42,0.78-2.8,1.52-4.17,2.23c-1.36,0.71-2.59,1.35-3.68,1.94c-1.09,0.59-1.84,1.04-2.25,1.35c1.21,0.59,2.41,1.2,3.62,1.84
		s2.44,1.41,3.7,2.3c1.26,0.9,2.54,1.99,3.83,3.26c1.29,1.28,2.64,2.84,4.04,4.68c1.4,1.85,2.85,4.03,4.35,6.55s3.06,5.49,4.68,8.9
		c0.41,0.83,0.62,1.71,0.62,2.64c0,0.73-0.15,1.45-0.44,2.18c-0.29,0.72-0.69,1.38-1.19,1.97c-0.5,0.59-1.1,1.06-1.78,1.42
		c-0.69,0.36-1.43,0.54-2.23,0.54c-1.21,0-2.21-0.45-3-1.35c-0.79-0.9-1.55-2.07-2.28-3.52c-0.72-1.45-1.47-3.09-2.25-4.92
		c-0.78-1.83-1.73-3.67-2.87-5.54c-1.24-2-2.61-3.9-4.11-5.69c-1.5-1.8-3.1-3.35-4.79-4.66c-1.69-1.31-3.43-2.35-5.23-3.13
		c-1.79-0.78-3.59-1.16-5.38-1.16h-0.78c-1.07,0-2.03,0.09-2.87,0.28c-0.85,0.19-1.67,0.35-2.46,0.49c-1.07-0.38-1.85-1-2.33-1.86
		c-0.48-0.86-0.72-1.83-0.72-2.9v-0.73l-4.14,16.31c-0.14,0.52-0.33,1.23-0.57,2.12c-0.24,0.9-0.52,1.88-0.83,2.95
		c-0.31,1.07-0.63,2.19-0.96,3.36c-0.33,1.17-0.64,2.28-0.93,3.31c-0.29,1.03-0.55,1.97-0.78,2.79c-0.23,0.83-0.39,1.45-0.49,1.86
		c-0.48,0.86-1.1,1.54-1.84,2.04c-0.74,0.5-1.54,0.75-2.41,0.75c-1.52,0-2.57-0.46-3.16-1.37c-0.59-0.92-0.88-1.98-0.88-3.19
		c0-0.48,0.03-0.97,0.1-1.47C433.26,104.91,433.34,104.44,433.45,103.99z M458.86,45.6c-0.21,0.69-0.51,1.69-0.91,3
		c-0.4,1.31-0.84,2.79-1.32,4.45c-0.48,1.66-1,3.43-1.55,5.33c-0.55,1.9-1.11,3.81-1.66,5.72c-0.55,1.92-1.09,3.77-1.6,5.56
		c-0.52,1.8-0.98,3.4-1.4,4.82c0.69-0.9,1.72-1.7,3.11-2.41c1.38-0.71,2.93-1.37,4.66-1.99c1.35-0.48,3-1.16,4.97-2.04
		c1.97-0.88,4.03-1.89,6.19-3.03c2.16-1.14,4.31-2.37,6.47-3.7c2.16-1.33,4.09-2.69,5.8-4.09c1.71-1.4,3.1-2.79,4.17-4.19
		c1.07-1.4,1.6-2.75,1.6-4.06c0-1.28-0.45-2.29-1.35-3.03c-0.9-0.74-2.02-1.3-3.37-1.68c-1.35-0.38-2.82-0.63-4.42-0.75
		c-1.6-0.12-3.1-0.18-4.48-0.18c-2.49,0-4.97,0.16-7.45,0.47C463.83,44.1,461.35,44.7,458.86,45.6z"/>
	<path d="M618.7,39.03c0.9,0,1.63,0.09,2.2,0.28c0.57,0.19,1.01,0.49,1.32,0.91c0.31,0.41,0.53,0.95,0.65,1.6
		c0.12,0.66,0.18,1.43,0.18,2.33c0,0.8-0.03,1.54-0.08,2.25s-0.14,1.42-0.26,2.15c-0.12,0.73-0.27,1.49-0.44,2.28
		s-0.36,1.66-0.57,2.59c-0.66,2.76-1.44,5.51-2.35,8.26c-0.92,2.74-1.82,5.56-2.72,8.46l-1.91,6.31c1.97-0.52,3.82-1.24,5.56-2.17
		c1.74-0.93,3.44-2.02,5.1-3.26c1.66-1.24,3.28-2.63,4.86-4.17c1.59-1.54,3.21-3.15,4.86-4.84c2.59-2.66,5.16-5.41,7.71-8.26
		c2.55-2.85,5.02-5.75,7.4-8.72c0.38-0.48,0.78-1.17,1.19-2.07c0.41-0.9,0.91-1.79,1.47-2.69c0.57-0.9,1.23-1.67,1.99-2.33
		c0.76-0.66,1.67-0.98,2.74-0.98c0.69,0,1.3,0.23,1.84,0.67c0.53,0.45,0.97,1.01,1.32,1.68c0.34,0.67,0.6,1.42,0.78,2.23
		c0.17,0.81,0.26,1.56,0.26,2.25c0,0.59-0.05,1.09-0.16,1.5c-1.93,2.9-4,5.68-6.21,8.36c-2.21,2.67-4.51,5.25-6.91,7.74
		c-2.4,2.49-4.87,4.91-7.4,7.27c-2.54,2.36-5.1,4.69-7.69,6.96c3.55,1.21,6.81,2.78,9.76,4.71c2.95,1.93,5.56,4.27,7.82,7.01
		s4.17,5.93,5.72,9.55c1.55,3.62,2.69,7.71,3.42,12.27c-0.21,0.62-0.5,1.22-0.88,1.78c-0.38,0.57-0.83,1.07-1.35,1.5
		c-0.52,0.43-1.11,0.78-1.76,1.06c-0.66,0.28-1.36,0.42-2.12,0.42c-1.21,0-2.15-0.25-2.82-0.75c-0.67-0.5-1.19-1.13-1.55-1.89
		c-0.36-0.76-0.62-1.6-0.78-2.54c-0.16-0.93-0.3-1.81-0.44-2.64l-0.21-1.29c-0.38-2.31-1.08-4.48-2.1-6.5
		c-1.02-2.02-2.21-3.82-3.57-5.41c-1.36-1.59-2.85-2.94-4.45-4.06c-1.6-1.12-3.18-1.97-4.74-2.56l-1.5-0.57
		c-0.62-0.24-1.32-0.5-2.1-0.78c-0.78-0.27-1.57-0.54-2.38-0.78c-0.81-0.24-1.6-0.44-2.35-0.6c-0.76-0.16-1.43-0.23-2.02-0.23
		c-0.35,0-1.02,0.2-2.02,0.59c-1,0.4-2.1,0.84-3.29,1.32c-1.19,0.49-2.35,0.95-3.49,1.4c-1.14,0.45-1.98,0.74-2.54,0.88l-1.29,5.28
		c-0.38,1.55-0.65,3.05-0.8,4.48c-0.16,1.43-0.27,2.79-0.34,4.06c-0.04,1.07-0.08,2.23-0.13,3.47c-0.05,1.24-0.23,2.4-0.54,3.47
		c-0.31,1.07-0.84,1.97-1.58,2.69c-0.74,0.73-1.84,1.09-3.29,1.09c-0.9,0-1.61-0.26-2.15-0.78c-0.54-0.52-0.94-1.16-1.22-1.94
		c-0.28-0.78-0.45-1.61-0.52-2.48c-0.07-0.88-0.1-1.68-0.1-2.41c0-0.9,0.06-1.91,0.18-3.03s0.28-2.27,0.47-3.44
		c0.19-1.17,0.41-2.34,0.65-3.49c0.24-1.16,0.48-2.22,0.73-3.18l12.06-48.55C614.46,40.27,616.08,39.03,618.7,39.03z"/>
	<path d="M716.33,111.08c-0.72,0-1.36-0.14-1.91-0.42c-0.55-0.27-1.01-0.64-1.37-1.09c-0.36-0.45-0.64-0.97-0.83-1.55
		c-0.19-0.59-0.29-1.17-0.29-1.76c0-0.52,0.14-1.23,0.41-2.15c0.28-0.92,0.63-1.94,1.06-3.08c0.43-1.14,0.91-2.33,1.42-3.57
		c0.52-1.24,1.02-2.43,1.5-3.57s0.9-2.19,1.24-3.16c0.35-0.97,0.59-1.73,0.73-2.28c0.14-0.62,0.31-1.36,0.52-2.23
		c0.21-0.86,0.44-1.8,0.7-2.82c0.26-1.02,0.52-2.09,0.78-3.21c0.26-1.12,0.53-2.25,0.8-3.39c-0.48,0.11-1.08,0.2-1.79,0.29
		c-0.71,0.08-1.46,0.16-2.25,0.23c-1.14,0.11-2.26,0.26-3.37,0.47c-1.1,0.21-2.23,0.44-3.39,0.7c-1.16,0.26-2.35,0.54-3.6,0.83
		c-1.24,0.3-2.57,0.6-3.99,0.91c-2.07,0.45-4.14,0.95-6.21,1.5c-2.07,0.55-4.23,0.83-6.47,0.83c-0.69,0-1.33-0.18-1.91-0.54
		c-0.59-0.36-1.24-0.63-1.97-0.8c-0.69,1.11-1.35,2.29-1.97,3.55c-0.62,1.26-1.19,2.55-1.71,3.88c-0.52,1.33-0.98,2.64-1.4,3.93
		s-0.78,2.51-1.09,3.65c-0.17,0.62-0.32,1.42-0.44,2.41c-0.12,0.98-0.23,1.99-0.34,3c-0.1,1.02-0.21,2-0.31,2.93
		c-0.1,0.93-0.21,1.67-0.31,2.23c-0.1,0.52-0.31,1.03-0.62,1.53c-0.31,0.5-0.69,0.96-1.14,1.37c-0.45,0.41-0.95,0.75-1.5,1.01
		c-0.55,0.26-1.11,0.39-1.66,0.39c-0.97,0-1.75-0.29-2.35-0.85c-0.6-0.57-1.09-1.28-1.45-2.12c-0.36-0.85-0.61-1.77-0.75-2.77
		c-0.14-1-0.21-1.92-0.21-2.74c0-2.11,0.26-4.29,0.78-6.55c0.52-2.26,1.22-4.56,2.1-6.89c0.88-2.33,1.91-4.67,3.11-7.04
		c1.19-2.36,2.48-4.72,3.86-7.06c1.14-2.11,2.55-4.54,4.24-7.3c1.69-2.76,3.58-5.6,5.67-8.52c2.09-2.92,4.35-5.77,6.78-8.57
		c2.43-2.8,4.96-5.29,7.58-7.48c2.62-2.19,5.31-3.96,8.08-5.31c2.76-1.35,5.5-2.02,8.23-2.02c2.86,0,5.25,0.52,7.17,1.55
		s3.44,2.43,4.58,4.19c1.14,1.76,1.94,3.81,2.41,6.16c0.47,2.35,0.7,4.83,0.7,7.45c0,2.31-0.15,4.69-0.44,7.14
		c-0.29,2.45-0.66,4.85-1.09,7.19c-0.43,2.35-0.9,4.61-1.4,6.78c-0.5,2.17-0.96,4.14-1.37,5.9l-1.81,7.04
		c-0.07,0.21-0.2,0.62-0.39,1.24c-0.19,0.62-0.43,1.37-0.73,2.25c-0.29,0.88-0.62,1.83-0.98,2.85c-0.36,1.02-0.72,2.02-1.09,3
		c-0.36,0.98-0.71,1.89-1.04,2.72c-0.33,0.83-0.61,1.5-0.85,2.02l0.05-0.05c-0.24,0.9-0.5,1.81-0.78,2.74
		c-0.28,0.93-0.66,1.77-1.14,2.51c-0.48,0.74-1.1,1.35-1.86,1.81C718.52,110.85,717.53,111.08,716.33,111.08z M718.97,46.27
		c-1.55,0-3.1,0.32-4.63,0.96c-1.54,0.64-3.05,1.47-4.53,2.51c-1.48,1.04-2.92,2.24-4.32,3.62c-1.4,1.38-2.73,2.79-3.99,4.24
		c-1.26,1.45-2.44,2.91-3.55,4.37c-1.1,1.47-2.1,2.82-3,4.06c-0.14,0.21-0.32,0.47-0.54,0.8c-0.22,0.33-0.45,0.69-0.67,1.09
		c-0.22,0.39-0.44,0.81-0.65,1.24c-0.21,0.43-0.38,0.82-0.52,1.16h5.33c1.93,0,4.14-0.14,6.63-0.41c2.48-0.27,4.94-0.6,7.37-0.98
		c2.43-0.38,4.67-0.77,6.7-1.16c2.04-0.4,3.57-0.7,4.61-0.91c0.14-0.45,0.27-1.05,0.39-1.81c0.12-0.76,0.23-1.61,0.34-2.54
		c0.1-0.93,0.18-1.92,0.23-2.98c0.05-1.05,0.08-2.13,0.08-3.24c0-0.9-0.04-1.92-0.1-3.08c-0.07-1.16-0.28-2.25-0.62-3.29
		c-0.35-1.04-0.87-1.91-1.58-2.62C721.23,46.63,720.24,46.27,718.97,46.27z"/>
</g>
</svg>
