<?xml version="1.0" encoding="utf-8"?>
<!-- Generator: Adobe Illustrator 23.0.3, SVG Export Plug-In . SVG Version: 6.00 Build 0)  -->
<svg version="1.1" id="Vrstva_1" xmlns="http://www.w3.org/2000/svg" xmlns:xlink="http://www.w3.org/1999/xlink" x="0px" y="0px"
	 viewBox="0 0 100 100" style="enable-background:new 0 0 100 100;" xml:space="preserve">
<style type="text/css">
	.st0{fill:#4F150F;}
	.st1{fill:#E95023;}
	.st2{fill:#C82F18;}
	.st3{fill:#F08F7B;}
</style>
<g>
	<path class="st0" d="M24.33,92.77c-11.6-7.03-19.22-17.12-22.64-30.2C-5.6,34.63,12.22,6.48,40.55,0.92
		c27.27-5.34,54,13.1,58.66,40.47c3.6,21.14-6.21,41.75-24.84,52.23c-0.4,0.22-0.77,0.5-1.15,0.75c-1.32,0.6-2.61,1.24-3.95,1.79
		c-9,3.73-18.34,4.71-27.91,3.09C35.29,98.21,29.54,96.17,24.33,92.77z M56.27,6.88c3.19-0.23,6.39-0.46,9.81-0.7
		c-0.3-0.26-0.36-0.36-0.44-0.39C56.19,2.46,46.65,2.2,37.04,4.96c-0.49,0.14-0.85,0.77-1.26,1.18c-1.44,2.13-1.5,4.3-0.27,6.54
		c0.53,0.96,1.06,1.22,2.2,0.63c5.2-2.66,10.66-4.63,16.42-5.72C54.87,7.46,55.56,7.13,56.27,6.88z M4.72,38.4
		c-0.04,0.22-0.08,0.44-0.12,0.66c-0.05,0.2-0.09,0.41-0.14,0.61c-0.1,0.18-0.25,0.34-0.29,0.53C2.76,46.86,2.8,53.53,4.23,60.18
		c0.36,1.69,0.92,3.33,1.4,5c0.42-0.6,0.51-1.15,0.61-1.7C6.88,59.99,7.4,56.46,8.21,53c1.26-5.4,3.22-10.57,5.8-15.48
		c0.3-0.57,0.78-1.22-0.16-1.7c-0.55-0.38-1.06-0.84-1.66-1.12C9.47,33.42,5.11,35.6,4.72,38.4z M39.84,89.02L39.84,89.02
		c2.35,3.07,5.46,5.2,8.83,6.91c1.13,0.57,2.55,0.86,3.83,0.81c7.75-0.3,14.97-2.54,21.57-6.56c2.84-1.73,5.41-3.87,8.27-5.95
		C62.1,65.97,43.84,46.32,25.19,26.89c-0.36,0.4-0.62,0.7-0.89,1c-1.81,2.44-3.66,4.86-5.41,7.34c-0.23,0.33-0.16,1.05,0.03,1.47
		c1.68,3.87,3.75,7.61,5.06,11.59c3.09,9.41,5.7,18.98,8.74,28.41c1.43,4.43,3.55,8.59,6.83,12.03
		C39.65,88.83,39.75,88.93,39.84,89.02z M9.47,63.29c-0.23,2.52-0.54,5.03-0.63,7.55c-0.03,0.91,0.26,1.96,0.74,2.75
		c5.98,10,14.44,17.03,25.49,20.82c2.34,0.8,4.8,1.29,7.2,1.92c0.01-0.52-0.1-0.69-0.25-0.81c-5.77-4.49-9.7-10.35-11.97-17.19
		c-3.04-9.17-5.67-18.47-8.54-27.69c-0.65-2.09-1.57-4.11-2.36-6.16c0.04-0.05,0.03-0.1-0.02-0.14c-0.43-0.97-0.85-1.94-1.28-2.92
		c-0.13-0.26-0.26-0.52-0.39-0.78c-0.3-0.33-0.6-0.66-0.89-0.98c-0.16,0.19-0.38,0.36-0.48,0.58c-3.27,6.81-5.44,13.96-6.42,21.46
		C9.65,61.8,9.63,61.9,9.61,62C9.57,62.43,9.52,62.86,9.47,63.29z M64.2,9.53c-0.2-0.02-0.41-0.08-0.61-0.07
		c-8.23,0.59-16.09,2.61-23.52,6.22c-0.33,0.16-0.61,0.44-1.04,0.76c0.48,0.38,0.76,0.69,1.11,0.86c2.95,1.48,5.8,3.27,8.89,4.32
		c8.12,2.75,16.36,5.13,24.53,7.74c5.71,1.83,11.35,3.85,16.27,7.42c0.61,0.45,1.31,0.78,1.97,1.16c1.35,1.65,2.69,3.3,4.16,5.11
		c0.05-0.68,0.13-1.18,0.11-1.67c-0.02-0.46-0.13-0.92-0.23-1.37c-2.98-12.85-10.03-22.81-21.17-29.86
		c-0.65-0.41-1.35-1.08-2.02-1.07C69.84,9.13,67.02,9.37,64.2,9.53z M32.85,30.13c0.13,0.13,0.26,0.26,0.39,0.38
		c1,1.07,2,2.13,3.01,3.2c0.34,0.44,0.63,0.92,1.01,1.32c1.87,1.94,3.73,3.87,5.64,5.77c12.8,12.78,25.61,25.56,38.44,38.32
		c0.93,0.93,2.01,1.71,3.38,2.85c1.97-2.96,3.82-5.72,5.66-8.48c0.06-0.13,0.12-0.27,0.18-0.4c0.13-0.18,0.27-0.36,0.4-0.53
		c1.3-3.03,2.6-6.05,3.89-9.08c0.61-3.02,1.16-6.05,1.85-9.05c0.71-3.09-0.22-5.67-2.19-8c-2.9-4.69-7.06-7.9-12-10.18
		c-8.21-3.79-16.95-5.99-25.55-8.63c-7.22-2.22-14.52-4.22-20.58-9.07c-0.25-0.2-0.87-0.3-1.09-0.14c-2.69,1.94-5.35,3.95-8.16,6.05
		C29.27,26.56,31.06,28.35,32.85,30.13z M16.36,17.37c-3.96,4.3-7.17,8.72-9.41,14.33c3.35-0.96,5.99-0.54,8.43,1.19
		c0.24,0.17,1.06-0.08,1.3-0.38c1.87-2.34,3.7-4.71,5.46-7.14c0.27-0.37,0.36-1.26,0.12-1.54C20.41,21.68,18.45,19.63,16.36,17.37z
		 M18.64,15.24c1.98,2.13,3.84,4.13,5.69,6.13c0.65,0.71,1.18,0.49,1.84-0.05c1.99-1.63,4-3.25,6.09-4.75
		c0.94-0.68,1.2-1.25,0.61-2.27c-1.33-2.32-1.82-4.78-0.93-7.6C27.02,8.92,22.62,11.52,18.64,15.24z"/>
	<path class="st1" d="M90.56,73.09c-0.06,0.13-0.12,0.27-0.18,0.4c-0.55,0.45-1.14,0.85-1.63,1.36c-1.49,1.55-2.94,3.13-4.51,4.81
		c-4.26-4.07-8.23-7.82-12.16-11.62c-6.98-6.74-13.94-13.5-20.9-20.26c-4.48-4.35-8.94-8.73-13.42-13.08
		c-0.42-0.41-1-0.66-1.51-0.99c-1-1.07-2-2.13-3.01-3.2c-0.13-0.13-0.26-0.26-0.39-0.38c-1.79-1.78-3.58-3.57-5.71-5.69
		c2.81-2.1,5.46-4.1,8.16-6.05c0.22-0.16,0.84-0.06,1.09,0.14c6.06,4.85,13.36,6.86,20.58,9.07c8.59,2.64,17.34,4.84,25.55,8.63
		c4.94,2.28,9.1,5.49,12,10.18c0,0.26,0,0.51,0.01,0.77c0.2,4.3,0.44,8.6,0.59,12.91c0.04,1.12-0.17,2.25-0.27,3.37
		c-1.3,3.03-2.6,6.05-3.89,9.08C90.82,72.73,90.69,72.91,90.56,73.09z M90.17,55.35c-0.79,2.87-1.37,5.83-2.44,8.6
		c-1.04,2.7-2.57,5.21-4.03,8.09C88.9,67.39,90.35,61.66,90.17,55.35z"/>
	<path class="st1" d="M39.56,88.73c-3.28-3.44-5.4-7.61-6.83-12.03c-3.04-9.43-5.66-19-8.74-28.41c-1.31-3.99-3.38-7.72-5.06-11.59
		c-0.19-0.43-0.26-1.14-0.03-1.47c1.75-2.48,3.59-4.9,5.41-7.34c0.32,0.26,0.66,0.49,0.95,0.79c3.32,3.4,6.63,6.81,9.95,10.21
		c4.72,4.84,9.44,9.68,14.17,14.5c6.32,6.45,12.66,12.88,18.99,19.32c3.42,3.48,6.84,6.98,10.31,10.53
		c-0.34,0.27-0.52,0.45-0.74,0.57c-5.28,2.89-10.79,5.16-16.76,6.12c-4.91,0.79-9.83,1-14.76,0.11c-2.18-0.39-4.37-0.67-6.56-1
		c0,0-0.01-0.01-0.01-0.01C39.75,88.93,39.65,88.83,39.56,88.73z M65.58,82.93c-5.67,1.87-11.47,2.51-17.43,1.87
		C54.35,87.51,60.07,86.12,65.58,82.93z"/>
	<path class="st1" d="M91.8,37.96c-0.66-0.38-1.36-0.72-1.97-1.16c-4.92-3.58-10.57-5.59-16.27-7.42
		c-8.16-2.62-16.41-4.99-24.53-7.74c-3.1-1.05-5.94-2.84-8.89-4.32c-0.35-0.18-0.63-0.49-1.11-0.86c0.43-0.32,0.71-0.6,1.04-0.76
		c7.43-3.61,15.29-5.63,23.52-6.22c0.2-0.01,0.41,0.04,0.61,0.07c0.63,0.23,1.28,0.41,1.88,0.7c7.65,3.62,14.04,8.81,19.13,15.56
		C88,29.5,90.41,33.46,91.8,37.96z"/>
	<path class="st1" d="M17.46,40.64c0.13,0.26,0.26,0.52,0.38,0.78c0.43,0.97,0.85,1.94,1.28,2.92c0.05,0.04,0.06,0.09,0.02,0.14
		c0.07,0.45,0.1,0.92,0.23,1.35c1.59,5.33,3.14,10.68,4.82,15.99c2.05,6.49,4.18,12.95,6.36,19.39c0.53,1.56,1.38,3,2.24,4.85
		c-5.14-2.38-9.29-5.39-13.09-8.89c-4.31-3.96-7.46-8.78-10.24-13.88c0.05-0.43,0.09-0.86,0.14-1.29c0.02-0.1,0.04-0.2,0.05-0.31
		c0.98-7.5,3.15-14.64,6.42-21.46c0.11-0.22,0.32-0.39,0.48-0.58C16.86,39.99,17.16,40.32,17.46,40.64z M15.87,63.91
		c1.25,4.15,3.47,7.4,7.6,9.07C20.89,69.9,18.38,66.9,15.87,63.91z"/>
	<path class="st2" d="M39.85,89.03c2.19,0.33,4.38,0.61,6.56,1c4.93,0.89,9.86,0.68,14.76-0.11c5.97-0.96,11.49-3.22,16.76-6.12
		c0.22-0.12,0.4-0.31,0.74-0.57c-3.48-3.55-6.89-7.04-10.31-10.53c-6.33-6.44-12.67-12.87-18.99-19.32
		c-4.73-4.83-9.45-9.67-14.17-14.5c-3.32-3.4-6.63-6.81-9.95-10.21c-0.29-0.29-0.63-0.53-0.95-0.79c0.26-0.3,0.53-0.59,0.89-1
		C43.84,46.32,62.1,65.97,82.34,84.24c-2.86,2.07-5.44,4.22-8.27,5.95c-6.6,4.02-13.82,6.26-21.57,6.56
		c-1.27,0.05-2.7-0.23-3.83-0.81C45.31,94.22,42.19,92.1,39.85,89.03z"/>
	<path class="st2" d="M9.47,63.29c2.77,5.1,5.93,9.92,10.24,13.88c3.81,3.5,7.95,6.51,13.09,8.89c-0.86-1.85-1.71-3.29-2.24-4.85
		c-2.18-6.45-4.31-12.91-6.36-19.39c-1.68-5.31-3.23-10.66-4.82-15.99c-0.13-0.43-0.15-0.9-0.23-1.35c0.79,2.05,1.71,4.06,2.36,6.16
		c2.87,9.22,5.5,18.52,8.54,27.69c2.27,6.84,6.2,12.7,11.97,17.19c0.15,0.12,0.26,0.29,0.25,0.81c-2.4-0.63-4.86-1.12-7.2-1.92
		C24.01,90.62,15.56,83.59,9.58,73.58c-0.47-0.79-0.77-1.83-0.74-2.75C8.93,68.32,9.25,65.8,9.47,63.29z"/>
	<path class="st3" d="M91.8,37.96c-1.39-4.5-3.8-8.45-6.6-12.17c-5.09-6.75-11.48-11.94-19.13-15.56c-0.6-0.28-1.25-0.47-1.88-0.7
		c2.82-0.16,5.64-0.4,8.46-0.43c0.67-0.01,1.37,0.66,2.02,1.07c11.14,7.05,18.19,17.01,21.17,29.86c0.1,0.45,0.21,0.91,0.23,1.37
		c0.02,0.49-0.06,0.98-0.11,1.67C94.49,41.26,93.15,39.61,91.8,37.96z"/>
	<path class="st1" d="M16.36,17.37c2.09,2.26,4.05,4.31,5.9,6.45c0.25,0.28,0.15,1.17-0.12,1.54c-1.76,2.42-3.58,4.8-5.46,7.14
		c-0.24,0.3-1.06,0.55-1.3,0.38c-2.45-1.73-5.09-2.15-8.43-1.19C9.19,26.09,12.4,21.67,16.36,17.37z"/>
	<path class="st1" d="M18.64,15.24c3.98-3.71,8.38-6.31,13.3-8.54c-0.89,2.82-0.4,5.28,0.93,7.6c0.59,1.03,0.33,1.6-0.61,2.27
		c-2.09,1.5-4.09,3.12-6.09,4.75c-0.66,0.54-1.19,0.75-1.84,0.05C22.48,19.36,20.62,17.37,18.64,15.24z"/>
	<path class="st2" d="M36.25,33.71c0.51,0.33,1.08,0.58,1.51,0.99c4.49,4.35,8.94,8.73,13.42,13.08
		c6.96,6.76,13.92,13.52,20.9,20.26c3.93,3.79,7.9,7.55,12.16,11.62c1.57-1.68,3.02-3.27,4.51-4.81c0.49-0.51,1.08-0.91,1.63-1.36
		c-1.84,2.76-3.69,5.53-5.66,8.48c-1.37-1.15-2.45-1.93-3.38-2.85C68.51,66.36,55.7,53.58,42.9,40.8c-1.9-1.9-3.77-3.83-5.64-5.77
		C36.88,34.63,36.58,34.15,36.25,33.71z"/>
	<path class="st1" d="M4.46,39.67c0.05-0.2,0.09-0.41,0.14-0.61c0.04-0.22,0.08-0.44,0.12-0.66c0.39-2.8,4.75-4.98,7.47-3.7
		c0.6,0.28,1.11,0.74,1.66,1.12c-0.07,0.2-0.1,0.41-0.2,0.59c-2.91,5.62-5.18,11.48-6.62,17.65c-0.06,0.25-0.26,0.47-0.5,0.88
		c-0.14-0.41-0.21-0.6-0.27-0.78c-1.15-4.05-1.58-8.18-1.55-12.38C4.72,41.07,4.55,40.37,4.46,39.67z"/>
	<path class="st1" d="M56.27,6.88c-0.71,0.24-1.4,0.58-2.13,0.71c-5.76,1.09-11.22,3.06-16.42,5.72c-1.14,0.58-1.67,0.33-2.2-0.63
		c-1.24-2.24-1.17-4.42,0.27-6.54c1.43-0.15,2.86-0.33,4.29-0.45C45.53,5.22,50.94,5.45,56.27,6.88z"/>
	<path class="st2" d="M4.46,39.67c0.09,0.7,0.27,1.4,0.26,2.1c-0.03,4.2,0.4,8.33,1.55,12.38c0.05,0.19,0.13,0.37,0.27,0.78
		c0.24-0.41,0.44-0.63,0.5-0.88c1.44-6.17,3.7-12.03,6.62-17.65c0.09-0.18,0.13-0.39,0.2-0.59c0.94,0.48,0.46,1.13,0.16,1.7
		C11.43,42.43,9.48,47.6,8.21,53c-0.81,3.46-1.33,6.99-1.98,10.49c-0.1,0.55-0.18,1.1-0.61,1.7c-0.47-1.67-1.03-3.31-1.4-5
		C2.8,53.53,2.76,46.86,4.17,40.2C4.21,40.01,4.36,39.85,4.46,39.67z"/>
	<path class="st3" d="M56.27,6.88c-5.32-1.43-10.74-1.66-16.2-1.2c-1.43,0.12-2.86,0.3-4.29,0.45c0.42-0.4,0.77-1.04,1.26-1.18
		c9.61-2.76,19.15-2.5,28.58,0.83c0.08,0.03,0.15,0.12,0.44,0.39C62.65,6.43,59.46,6.66,56.27,6.88z"/>
	<path class="st3" d="M94.85,63.47c0.1-1.13,0.31-2.25,0.27-3.37c-0.15-4.3-0.39-8.61-0.59-12.91c-0.01-0.26-0.01-0.51-0.01-0.77
		c1.97,2.33,2.9,4.91,2.19,8.01C96.01,57.42,95.46,60.46,94.85,63.47z"/>
	<path class="st2" d="M19.12,44.33c-0.43-0.97-0.85-1.94-1.28-2.92C18.27,42.39,18.7,43.36,19.12,44.33z"/>
	<path class="st2" d="M17.46,40.64c-0.3-0.33-0.6-0.65-0.89-0.98C16.86,39.99,17.16,40.32,17.46,40.64z"/>
	<path class="st2" d="M4.72,38.4c-0.04,0.22-0.08,0.44-0.12,0.66C4.64,38.84,4.68,38.62,4.72,38.4z"/>
	<path class="st2" d="M90.56,73.09c0.13-0.18,0.27-0.36,0.4-0.53C90.82,72.73,90.69,72.91,90.56,73.09z"/>
	<path class="st2" d="M32.85,30.13c0.13,0.13,0.26,0.25,0.39,0.38C33.11,30.39,32.98,30.26,32.85,30.13z"/>
	<path class="st2" d="M9.67,61.7C9.65,61.8,9.63,61.9,9.61,62C9.63,61.9,9.65,61.8,9.67,61.7z"/>
	<path class="st2" d="M39.56,88.73c0.1,0.1,0.19,0.19,0.29,0.29C39.75,88.93,39.65,88.83,39.56,88.73z"/>
	<path class="st0" d="M90.17,55.35c0.18,6.31-1.28,12.04-6.47,16.69c1.46-2.88,2.99-5.39,4.03-8.09
		C88.8,61.18,89.38,58.23,90.17,55.35z"/>
	<path class="st0" d="M65.58,82.93c-5.51,3.19-11.24,4.58-17.43,1.87C54.11,85.44,59.92,84.8,65.58,82.93z"/>
	<path class="st0" d="M15.87,63.91c2.51,3,5.02,5.99,7.6,9.07C19.34,71.3,17.12,68.05,15.87,63.91z"/>
</g>
</svg>
