<?xml version="1.0" encoding="utf-8"?>
<!-- Generator: Adobe Illustrator 23.0.3, SVG Export Plug-In . SVG Version: 6.00 Build 0)  -->
<svg version="1.1" id="Vrstva_1" xmlns="http://www.w3.org/2000/svg" xmlns:xlink="http://www.w3.org/1999/xlink" x="0px" y="0px"
	 viewBox="0 0 300 290" style="enable-background:new 0 0 300 290;" xml:space="preserve">
<style type="text/css">
	.st0{fill:#FFFFFF;}
	.st1{fill:#8FA3AB;}
	.st2{fill:#475B64;}
	.st3{fill:#444443;}
	.st4{fill:#EA552B;}
	.st5{fill:#6E4D44;}
	.st6{fill:#81C9C2;}
	.st7{fill:#FACAAA;}
	.st8{fill:#778F9A;}
	.st9{fill:#50B5AA;}
</style>
<g>
	<path class="st0" d="M85.6,1.4c44.9,0,89.8,0,134.7,0c-0.2,0.1-0.3,0.2-0.5,0.3c-3,1.1-4.3,3-4.3,6.2c0,3.8,0,7.6,0,11.5
		c-0.3,0-0.6,0-0.9,0c-15.3,0-30.7,0-46,0c-2.1,0-3.9,0.6-5.5,1.9c-5.9,4.6-11.9,9.2-17.9,13.8c-2.3,1.8-2.4,3.5-0.2,5.4
		c5.8,4.8,11.6,9.5,17.3,14.4c2.2,1.9,4.5,2.6,7.2,2.6c15.3,0,30.7,0,46,0c0,0.8,0,1.7,0,2.5c0,69.6,0,139.2,0,208.9
		c0,0.6,0,1.3,0,1.9c-3.9,0.4-7.8,0.7-11.6,1.3c-6.3,1-12.4,2.8-17.7,6.6c-3.3,2.3-6.1,5.1-7.6,9c0,0.1,0,0.1,0,0.2
		c-0.6,0-1.2,0.1-1.8,0.1c-18.1,0-36.3,0-54.4,0c-22.9,0-45.8,0-68.6,0c0-0.1,0-0.2,0-0.2c4.1-0.4,8.1-0.8,12.2-1.1
		c1.5-0.1,1.9-0.9,2-2.3c0.4-4.8-0.5-9.4-1.8-14c0.8,0.1,1.2-0.2,1.2-1c0.1-1.1,0.3-2.3,0.5-3.4c1.7-12.5,3.5-24.9,5.2-37.4
		c2-13.9,3.9-27.8,5.9-41.7c0.7-5.1,1.4-10.2,2.2-15.3c0.3,0.6,0.4,1.3,0.5,1.9c1.6,11.9,3.3,23.8,4.9,35.6
		c2.8,20,5.6,40.1,8.3,60.1c0.1,1,0.5,1.3,1.4,1.2c-0.6,3.8-1.4,7.5-1.8,11.3c-0.4,4.1,0.1,4.6,4.1,5.1c8.7,1.1,17.4,0.9,26.2,0.7
		c1.4,0,2.9-0.3,4.2-0.8c1.8-0.6,3.3-3.3,3.1-5.2c-0.3-2.1-2.1-2.4-3.7-2.7c-1.7-0.4-3.6-0.4-5.3-0.8c-1.8-0.4-4.1-0.5-5.3-1.6
		c-1.8-1.6-2.9-4.1-4.3-6.2c0.1-0.5,0.3-1,0.3-1.5c-0.1-6.7-0.2-13.5-0.2-20.2c0.1-28.4,0.4-56.8,0.5-85.3c0-8.3,0-16.6-1.9-24.7
		c-0.3-1.5-0.5-3-0.8-4.5c-0.8-6.7-1.5-13.5-2.5-20.2c-1.3-8.2-1.4-16.4-0.7-24.6c0-0.3,0.3-0.5,0.5-0.8c0.6,2.4,1.2,4.9,1.9,7.3
		c0.7,2.9,1.5,5.8,2.2,8.7c0.7,3.3,1.8,6.6,2,9.9c0.3,5,1.4,9.8,3.1,14.5c1.7,4.7,2.9,9.5,3,14.6c0,2.9-0.4,5.7-0.6,8.6
		c0,0.4-0.3,0.9-0.4,1.3c-0.5,2.3-1,4.7-1.4,7c-0.1,0.4,0.1,1.2,0.4,1.3c1,0.4,0.7,1.1,0.6,1.8c-0.2,1.3-0.7,2.8,1.2,3.1
		c0.1,0.7,0,1.5,0.4,2c0.5,0.6,1.2,0.9,2.2,1.6c0.6-0.7,1.6-1.5,2.1-2.6c1.3-2.4,2.4-4.8,3.4-7.3c1.8-4.6,2.3-9.4,1.4-14.4
		c-0.6-3.4-1-6.8-1.2-10.2c-0.2-4,0-8-0.1-12c-0.1-2.5-0.5-5-0.9-7.5c-0.9-5.9-1.8-11.8-2.7-17.7c-0.3-2.2-0.6-4.4-0.9-6.6
		c-0.1-4.2-0.2-8.4-0.4-12.5c-0.2-3.7-0.5-7.4-1.1-11c-1.4-7.8-4.7-11.1-11.6-12.1c-0.7-0.2-1.3-0.5-2-0.5
		c-3.4-0.3-6.9-0.4-10.3-0.6c-1.2-2.6-5.9-4.2-8.6-2.8c-0.3-1.3-0.9-2.6-0.8-3.9c0-0.6,1.4-1,2.2-1.5c0.1-0.1,0.2-0.2,0.4-0.3
		c4.7-3.7,7.2-8.7,8.4-14.5c0.1-0.6,0.5-1.2,1-1.5c1.8-1,2.7-2.6,3.1-4.5c0.6-2.7-0.7-4.2-3.4-4.2c-0.1-1.4-0.3-2.8-0.3-4.2
		c-0.2-8.1-8-15.7-14.5-16C85.9,1.6,85.8,1.5,85.6,1.4z"/>
	<path class="st0" d="M300.1,76.1c0,70.6,0,141.2,0,211.8c-11.9,0-23.8,0-35.7,0c-0.1-0.2-0.1-0.4-0.2-0.6
		c-2.5-5.5-6.9-8.9-12.2-11.4c-7.7-3.6-16-4.7-24.4-5.1c0-0.6-0.1-1.2-0.1-1.8c0-57.4,0-114.8,0-172.2c0-0.6,0-1.2,0-1.8
		c3.2,0,6.4,0,9.6,0c12.4,0,24.9,0,37.3,0c2.1,0,3.9-0.3,5.6-1.7c5.9-4.9,11.8-9.8,17.6-14.7C298.6,77.9,299.3,76.9,300.1,76.1z"/>
	<path class="st0" d="M0.1,38.6c0-12.4,0-24.7,0-37.2c10.7,0,21.4,0,32.1,0c-1,0.3-2,0.6-3,0.9c-4,1.4-6.8,5.4-6.2,9
		c1.6,0,3.3,0,4.9,0c0.1-0.3,0.2-0.6,0.3-0.9c0.8-3.3,3-5,6.5-4.6c1.6,0.2,2.7,1,3.3,2.5c0.5,1.4,0.2,2.7-0.8,3.7
		c-1.1,1.2-2.2,2.4-3.3,3.7c-2,2.3-2.4,5-1.6,8c0.9-0.1,1.7-0.1,2.5-0.2c0.8-0.1,1.6-0.2,2.4-0.4c0.1-3.7,0.1-3.7,2.6-6.5
		c0.8-0.8,1.5-1.7,2.2-2.6c3-4,2-8.7-2.4-11.2c-1.2-0.7-2.6-1-3.8-1.5c13.9,0,27.8,0,41.7,0c-0.5,0.2-1.1,0.4-1.6,0.5
		c-7.6,1.5-13,7.4-13.8,15.1c-0.2,1.6-0.2,3.2-0.4,4.8c-2.9,0-4.2,1.2-3.6,3.8c0.3,1.6,1.2,3.3,2.4,4.3c1.3,1.1,1.7,2.2,2.1,3.7
		c1.5,5.8,4.2,10.8,9.6,14c0.4,0.2,0.8,1,0.8,1.5c-0.1,1-0.5,1.9-0.9,2.8c-0.7,0-1.5,0-2.2,0c-2.7,0.2-5.2,0.6-6.5,3.5
		c-4.2-0.4-8.2,0.3-12.3,1.2c-3.7-0.1-6.6,1.5-8.3,4.7c-1.2,2.3-2.5,4.9-2.7,7.5C39.3,76.3,39,84,38.5,91.7
		c-0.2,1.3-0.4,2.6-0.6,3.8c-1,6.9-1.9,13.9-3.1,20.8c-0.8,5-0.9,9.9-0.8,14.9c0,4.6-0.3,9.1-1.1,13.7c-0.6,3.3-0.5,6.9-0.1,10.3
		c0.5,4.7,2.9,8.9,5.2,13c0.5,0.8,1.3,1.4,2.2,2.3c0.3-0.7,0.5-1.5,0.7-1.5c1.8-0.1,1.2-1.5,1.4-2.4c1.5-0.5,1.7-1.1,1.4-3.2
		c-0.1-0.4-0.2-1.2-0.1-1.2c1.9-1.1,1.1-2.8,0.7-4.1c-1.5-4.5-1.6-9.3-2-14c-0.4-5.5,1.3-10.8,3.1-16c1.2-3.5,2.4-6.9,2.5-10.7
		c0.1-2.4,0.4-4.9,1-7.2c1.1-4.8,2.3-9.6,3.5-14.4c0.2-0.5,0.5-1,0.6-1.5c0.4-1.7,0.8-3.3,1.2-5c0.2,1.4,0.5,2.8,0.6,4.2
		c0.6,9.5-0.8,18.9-2.2,28.3c-0.6,3.9-0.9,7.9-1.4,11.9c-0.2,1.6-0.5,3.3-0.7,4.9c-0.5,3.8-1.4,7.6-1.5,11.4
		c-0.3,13.5-0.6,27.1-0.6,40.6c0,19.7,0.2,39.5,0.3,59.2c0,6.4-0.2,12.8-0.3,19.2c0,0.6-0.2,1.4,0.9,1.3c-2.1,5-5.3,8.4-11.3,8.1
		c-0.1,0-0.3,0-0.4,0c-1.8,0.4-3.5,0.6-5.2,1.1c-1.2,0.4-2,1.3-1.8,2.7c0.4,2.9,2,4.6,4.8,5.1c0.9,0.2,1.8,0.2,2.7,0.3
		c0,0.1,0,0.2,0,0.2c-12.6,0-25.2,0-37.8,0c0-81.7,0-163.4,0-245.1c0.2,0.5,0.5,0.9,0.7,1.5c2.3-0.6,4.5-1.1,6.7-1.7
		c0-0.7,0-1.2,0-1.7c-0.1-4.2,2-7,6.1-7.9c2.4-0.6,4.6-0.2,6.2,1.8c1.5,1.9,1.2,4,0.1,6c-1.1,2.1-2.2,4.1-3.3,6.2
		c-1.8,3.7-0.9,7.2,0.8,10.6c2.2-0.9,4.3-1.7,6.4-2.5c-1.3-4.8-1.3-4.8,1-9.3c1-1.9,2-3.8,2.7-5.8c1.6-4.1,0.3-8.3-3.2-11
		c-3.2-2.4-6.9-3.2-10.8-2.4c-5,1-9.4,3.1-12,7.8C1.1,35.9,0.7,37.3,0.1,38.6z M18.5,60.2c1,2.5,1.9,4.9,2.8,7.3
		c2.5-1,4.8-1.9,7.3-2.8c-1-2.5-1.9-4.9-2.8-7.3C23.3,58.3,21,59.2,18.5,60.2z M38.8,30.6c-0.2-1.9-0.4-3.7-0.7-5.6
		c-1.9,0.2-3.7,0.5-5.6,0.7c0.2,2,0.5,3.7,0.7,5.6C35.1,31,36.9,30.8,38.8,30.6z"/>
	<path class="st0" d="M222.7,1.4c25.8,0,51.6,0,77.4,0c0,24.5,0,49,0,73.5c-0.6-0.7-1.1-1.6-1.8-2.1c-5.9-4.6-11.9-9.1-17.8-13.8
		c-1.9-1.5-3.9-2.1-6.2-2.1c-15.6,0-31.2,0-46.8,0c0-15.9-0.1-31.7,0-47.6C227.6,5.5,226.5,2.7,222.7,1.4z"/>
	<path class="st1" d="M222.7,1.4c3.7,1.4,4.8,4.1,4.8,8c-0.1,15.9,0,31.7,0,47.6c0,12.7,0,25.4,0,38.1c0,0.6,0,1.2,0,1.8
		c0,57.4,0,114.8,0,172.2c0,0.6,0,1.2,0.1,1.8c-4,0-8.1,0-12.1,0c0-0.6,0-1.3,0-1.9c0-69.6,0-139.2,0-208.9c0-0.8,0-1.7,0-2.5
		c0-12.7,0-25.4,0-38.1c0-3.8,0-7.6,0-11.5c0-3.2,1.3-5.1,4.3-6.2c0.2-0.1,0.3-0.2,0.5-0.3C221.1,1.4,221.9,1.4,222.7,1.4z"/>
	<path class="st2" d="M227.5,95c0-12.7,0-25.4,0-38.1c15.6,0,31.2,0,46.8,0c2.3,0,4.4,0.6,6.2,2.1c5.9,4.6,11.9,9.1,17.8,13.8
		c0.7,0.6,1.2,1.4,1.8,2.1c0,0.4,0,0.8,0,1.2c-0.8,0.9-1.5,1.8-2.4,2.5c-5.9,4.9-11.8,9.8-17.6,14.7c-1.6,1.4-3.5,1.7-5.6,1.7
		c-12.4,0-24.9,0-37.3,0C233.9,95,230.7,95,227.5,95z"/>
	<path class="st3" d="M61.8,21.8c0.1-1.6,0.2-3.2,0.4-4.8c0.8-7.7,6.2-13.6,13.8-15.1c0.6-0.1,1.1-0.3,1.6-0.5c2.7,0,5.4,0,8.1,0
		c0.2,0.1,0.3,0.3,0.5,0.3c6.6,0.2,14.3,7.8,14.5,16c0,1.4,0.2,2.8,0.3,4.2c0,2.3,0,4.6,0,6.8c-0.2,0-0.3,0.1-0.5,0.1
		c-0.3-0.4-0.6-0.8-0.9-1.2c-1.2-2-2.5-4-3.6-6c-1.4-2.7-3.9-4.1-6.5-5.3c-0.8-0.4-2-0.3-2.9,0c-2.5,0.8-4.8,0.6-7.2-0.2
		c-0.7-0.2-1.4-0.5-2.1-0.7c-4.1-1-6.9,0-9.1,3.6c-1.1,1.8-1.9,3.7-3,5.5c-0.9,1.6-2,3-3,4.5c-0.2-0.1-0.3-0.1-0.5-0.2
		C61.8,26.5,61.8,24.1,61.8,21.8z"/>
	<path class="st4" d="M0.1,38.6c0.5-1.3,0.9-2.7,1.6-4c2.6-4.7,7-6.8,12-7.8c3.9-0.8,7.6-0.1,10.8,2.4c3.5,2.7,4.7,6.8,3.2,11
		C27,42.2,26,44.1,25,46c-2.3,4.5-2.3,4.5-1,9.3c-2.1,0.8-4.2,1.6-6.4,2.5c-1.7-3.5-2.6-7-0.8-10.6c1-2.1,2.1-4.2,3.3-6.2
		c1.1-2,1.4-4.1-0.1-6c-1.6-2.1-3.8-2.4-6.2-1.8c-4.1,0.9-6.1,3.7-6.1,7.9c0,0.5,0,1,0,1.7c-2.2,0.6-4.5,1.1-6.7,1.7
		c-0.3-0.5-0.5-1-0.7-1.5C0.1,41.4,0.1,40,0.1,38.6z"/>
	<path class="st4" d="M35.8,1.4c1.3,0.5,2.7,0.8,3.8,1.5c4.4,2.4,5.4,7.2,2.4,11.2c-0.7,0.9-1.4,1.8-2.2,2.6
		c-2.6,2.8-2.6,2.8-2.6,6.5c-0.8,0.1-1.6,0.3-2.4,0.4c-0.8,0.1-1.6,0.2-2.5,0.2c-0.8-3-0.4-5.7,1.6-8c1.1-1.2,2.2-2.4,3.3-3.7
		c1-1.1,1.3-2.4,0.8-3.7c-0.6-1.5-1.8-2.3-3.3-2.5c-3.4-0.4-5.7,1.2-6.5,4.6c-0.1,0.3-0.2,0.6-0.3,0.9c-1.7,0-3.3,0-4.9,0
		c-0.6-3.6,2.1-7.7,6.2-9c1-0.3,2-0.6,3-0.9C33.4,1.4,34.6,1.4,35.8,1.4z"/>
	<path class="st5" d="M49.2,270.2c-1.1,0.1-0.9-0.6-0.9-1.3c0.1-6.4,0.3-12.8,0.3-19.2c-0.1-19.7-0.3-39.5-0.3-59.2
		c0-13.5,0.2-27.1,0.6-40.6c0.1-3.8,1-7.6,1.5-11.4c4.3,0,8.6-0.1,12.8-0.1c4.3,0,8.6-0.1,12.8-0.1c0.4,0.2,0.7,0.7,1.1,0.7
		c2.8,0.1,5.6,0.1,8.3,0c0.4,0,0.7-0.4,1.1-0.7c0.7,0,1.5,0.1,2.2,0.1c7.8,0,15.7,0,23.5,0.1c1.9,8.1,1.9,16.5,1.9,24.7
		c-0.1,28.4-0.4,56.8-0.5,85.3c0,6.7,0.2,13.5,0.2,20.2c0,0.5-0.2,1-0.3,1.5c-5.7,0-11.5,0-17.2,0c-0.9,0.1-1.3-0.2-1.4-1.2
		c-2.7-20-5.5-40.1-8.3-60.1c-1.6-11.9-3.3-23.8-4.9-35.6c-0.1-0.6-0.2-1.3-0.5-1.9c-0.7,5.1-1.4,10.2-2.2,15.3
		c-2,13.9-3.9,27.8-5.9,41.7c-1.8,12.5-3.5,24.9-5.2,37.4c-0.2,1.1-0.4,2.3-0.5,3.4c-0.1,0.9-0.4,1.1-1.2,1
		C60.6,270.2,54.9,270.2,49.2,270.2z"/>
	<path class="st6" d="M51.1,56.5c4-0.9,8.1-1.6,12.3-1.2c0.2,1,0.1,2.1,0.5,3c2.3,5,4.7,9.9,7.1,14.9c0.4,0.8,0.8,1.6,1.1,2.4
		c1.1-2.1,2.2-4,3.2-5.9c1,1,2,2.1,3.1,3.1c0.9,0.8,1,1.6,0.9,2.7c-0.4,3.3-0.8,6.6-1.1,9.9c-0.6,5.2-1.2,10.4-1.7,15.6
		c-0.2,1.6-0.7,3.4-0.1,4.7c1.3,2.9,3.2,5.6,4.9,8.6c1.5-2.5,2.9-4.8,4.4-7c0.9-1.4,1-2.7,0.8-4.3c-0.5-4.3-0.9-8.6-1.4-12.9
		c-0.6-5-1.1-10-1.6-15c-0.1-0.7,0.3-1.5,0.7-2.1c0.7-1,1.7-2,2.5-2.9c0.8,1.9,1.6,3.7,2.4,5.6c0.1-0.1,0.2-0.2,0.2-0.2
		c3-5.5,6.1-10.9,9.1-16.4c0.7-1.2,1.1-2.6,0.5-4c3.4,0.2,6.9,0.4,10.3,0.6c0.7,0,1.3,0.4,2,0.5c-1.3,0.5-2.7,0.8-3.9,1.4
		c-2.8,1.6-4.4,5.9-3.5,9.6c1.6,7.1,3.3,14.1,4.9,21.2c-0.2,0.3-0.5,0.5-0.5,0.8c-0.7,8.2-0.6,16.4,0.7,24.6
		c1,6.7,1.7,13.4,2.5,20.2c-8.3,0-16.6,0-24.9,0c-0.4-0.3-0.7-0.8-1.1-0.8c-2.6-0.1-5.2-0.1-7.8,0c-0.6,0-1.1,0.5-1.7,0.8
		c-8,0-16,0-23.9,0c-0.3,0-0.6-0.2-0.9-0.3c0.4-4,0.8-7.9,1.4-11.9c1.4-9.4,2.8-18.8,2.2-28.3c-0.1-1.4-0.4-2.8-0.6-4.2
		c-0.3-4.9,0.5-9.6,1.6-14.3c0.8-3.6,1.5-7.2,1.2-11c-0.3-2.9-1.3-5-4-6.3C52.2,57.3,51.7,56.9,51.1,56.5z"/>
	<path class="st2" d="M215.5,19.3c0,12.7,0,25.4,0,38.1c-15.3,0-30.7,0-46,0c-2.8,0-5.1-0.8-7.2-2.6c-5.7-4.9-11.5-9.6-17.3-14.4
		c-2.2-1.8-2.2-3.6,0.2-5.4c6-4.6,12-9.2,17.9-13.8c1.7-1.3,3.5-1.9,5.5-1.9c15.3,0,30.7,0,46,0C214.9,19.3,215.2,19.3,215.5,19.3z"
		/>
	<path class="st7" d="M61.8,21.8c0,2.4,0,4.7,0,7.1c0.2,0.1,0.3,0.1,0.5,0.2c1-1.5,2.1-3,3-4.5c1.1-1.8,1.9-3.8,3-5.5
		c2.2-3.6,5-4.7,9.1-3.6c0.7,0.2,1.4,0.4,2.1,0.7c2.4,0.8,4.7,1,7.2,0.2c0.9-0.3,2.1-0.4,2.9,0c2.6,1.2,5,2.6,6.5,5.3
		c1.1,2.1,2.4,4,3.6,6c0.3,0.4,0.6,0.8,0.9,1.2c0.2,0,0.3-0.1,0.5-0.1c0-2.3,0-4.6,0-6.8c2.8-0.1,4,1.5,3.4,4.2
		c-0.4,1.9-1.3,3.5-3.1,4.5c-0.5,0.3-0.8,1-1,1.5c-1.2,5.8-3.7,10.8-8.4,14.5c-0.1,0.1-0.2,0.2-0.4,0.3c-0.8,0.5-2.1,1-2.2,1.5
		c-0.1,1.3,0.5,2.6,0.8,3.9c-0.6,4.7-3.5,7.7-7.4,10.1c-1.3,0.8-2.2,0.6-3.4-0.1c-4-2.4-6.5-5.8-7.4-10.4c0.3-0.9,0.7-1.9,0.9-2.8
		c0.1-0.5-0.3-1.3-0.8-1.5c-5.4-3.2-8.1-8.2-9.6-14c-0.4-1.5-0.8-2.6-2.1-3.7c-1.2-1-2-2.7-2.4-4.3C57.5,23,58.9,21.8,61.8,21.8z"/>
	<path class="st8" d="M215.5,270.7c4,0,8.1,0,12.1,0c8.4,0.5,16.7,1.5,24.4,5.1c5.3,2.5,9.7,5.9,12.2,11.4c-0.7,0.1-1.3,0.3-2,0.3
		c-27.9,0-55.7,0-83.6,0c1.5-3.9,4.3-6.7,7.6-9c5.3-3.7,11.4-5.5,17.7-6.6C207.7,271.4,211.6,271.2,215.5,270.7z"/>
	<path class="st7" d="M124.3,91.9c0.3,2.2,0.6,4.4,0.9,6.6c0.9,5.9,1.8,11.8,2.7,17.7c0.4,2.5,0.8,5,0.9,7.5c0.2,4-0.1,8,0.1,12
		c0.2,3.4,0.6,6.8,1.2,10.2c0.9,5,0.4,9.7-1.4,14.4c-1,2.5-2.2,4.9-3.4,7.3c-0.6,1-1.5,1.9-2.1,2.6c-0.9-0.6-1.7-1-2.2-1.6
		c-0.3-0.4-0.2-1.2-0.4-2c-2-0.3-1.4-1.8-1.2-3.1c0.1-0.7,0.4-1.4-0.6-1.8c-0.3-0.1-0.5-0.9-0.4-1.3c0.4-2.3,0.9-4.7,1.4-7
		c0.1-0.4,0.3-0.9,0.4-1.3c0.2-2.9,0.6-5.7,0.6-8.6c0-5-1.2-9.9-3-14.6c-1.7-4.7-2.8-9.5-3.1-14.5c-0.2-3.3-1.2-6.6-2-9.9
		c-0.7-2.9-1.4-5.8-2.2-8.7C115.1,94.4,119.7,93.1,124.3,91.9z"/>
	<path class="st9" d="M124.3,91.9c-4.6,1.3-9.2,2.6-13.8,3.9c-0.6-2.4-1.2-4.9-1.9-7.3c-1.6-7-3.3-14.1-4.9-21.2
		c-0.8-3.7,0.7-8,3.5-9.6c1.2-0.7,2.6-1,3.9-1.4c6.9,1,10.3,4.3,11.6,12.1c0.6,3.6,0.9,7.3,1.1,11C124.1,83.5,124.2,87.7,124.3,91.9
		z"/>
	<path class="st2" d="M49.2,270.2c5.7,0,11.3,0,17,0c1.3,4.6,2.2,9.2,1.8,14c-0.1,1.3-0.5,2.1-2,2.3c-4.1,0.3-8.1,0.7-12.2,1.1
		c-5.3,0-10.6,0-15.8,0c-0.9-0.1-1.8-0.1-2.7-0.3c-2.8-0.5-4.5-2.3-4.8-5.1c-0.2-1.4,0.6-2.4,1.8-2.7c1.7-0.5,3.5-0.8,5.2-1.1
		c0.1,0,0.3,0,0.4,0C43.9,278.6,47.1,275.2,49.2,270.2z"/>
	<path class="st2" d="M96.3,270.2c5.7,0,11.5,0,17.2,0c1.4,2.1,2.5,4.5,4.3,6.2c1.2,1.1,3.5,1.2,5.3,1.6c1.8,0.4,3.6,0.4,5.3,0.8
		c1.6,0.3,3.4,0.6,3.7,2.7c0.2,1.9-1.3,4.6-3.1,5.2c-1.3,0.5-2.8,0.8-4.2,0.8c-8.7,0.2-17.5,0.4-26.2-0.7c-4-0.5-4.5-1-4.1-5.1
		C94.9,277.7,95.7,274,96.3,270.2z"/>
	<path class="st9" d="M72.1,51.8c0.8,4.6,3.4,8,7.4,10.4c1.2,0.7,2.1,0.9,3.4,0.1c3.9-2.4,6.7-5.4,7.4-10.1c2.8-1.3,7.4,0.2,8.6,2.8
		c0.6,1.4,0.2,2.7-0.5,4c-3,5.5-6.1,10.9-9.1,16.4c0,0.1-0.1,0.1-0.2,0.2c-0.8-1.9-1.6-3.7-2.4-5.6c-1.4-1.9-2.7-3.8-4.1-5.6
		c-0.6-0.8-1.5-1-2.3-0.1c-1.6,1.8-3.2,3.6-4.8,5.5c-1.1,1.9-2.1,3.8-3.2,5.9c-0.4-0.8-0.8-1.6-1.1-2.4c-2.4-4.9-4.8-9.9-7.1-14.9
		c-0.4-0.9-0.4-2-0.5-3c1.3-2.8,3.8-3.3,6.5-3.5C70.6,51.8,71.4,51.8,72.1,51.8z"/>
	<path class="st1" d="M86.6,133.9c8.3,0,16.6,0,24.9,0c0.3,1.5,0.5,3,0.8,4.5c-7.8,0-15.7,0-23.5-0.1c-0.7,0-1.5,0-2.2-0.1
		C86.5,136.9,86.6,135.4,86.6,133.9z"/>
	<path class="st6" d="M178.7,287.6c27.9,0,55.7,0,83.6,0c0.7,0,1.3-0.2,2-0.3c0.1,0.2,0.1,0.4,0.2,0.6c-0.4,0-0.9,0.1-1.3,0.1
		c-27.7,0-55.4,0-83.1,0c-0.4,0-0.9,0-1.3-0.1C178.6,287.7,178.6,287.7,178.7,287.6z"/>
	<path class="st6" d="M38,287.6c5.3,0,10.6,0,15.8,0c0,0.1,0,0.2,0,0.2c-5.3,0-10.6,0-15.8,0C38,287.8,38,287.7,38,287.6z"/>
	<path class="st7" d="M52.3,95.7c-1.2,4.8-2.4,9.6-3.5,14.4c-0.5,2.4-0.9,4.8-1,7.2c-0.1,3.8-1.3,7.2-2.5,10.7
		c-1.8,5.2-3.6,10.5-3.1,16c0.4,4.7,0.4,9.4,2,14c0.4,1.3,1.2,3-0.7,4.1c-0.2,0.1,0,0.8,0.1,1.2c0.4,2.1,0.1,2.7-1.4,3.2
		c-0.2,0.9,0.4,2.3-1.4,2.4c-0.2,0-0.4,0.8-0.7,1.5c-0.9-0.9-1.7-1.5-2.2-2.3c-2.3-4.1-4.6-8.3-5.2-13c-0.4-3.4-0.4-6.9,0.1-10.3
		c0.8-4.6,1.1-9.1,1.1-13.7c0-5,0-10,0.8-14.9c1.2-6.9,2.1-13.9,3.1-20.8c0.2-1.3,0.4-2.6,0.6-3.8C43.1,93.1,47.7,94.4,52.3,95.7z"
		/>
	<path class="st9" d="M52.3,95.7c-4.6-1.3-9.2-2.7-13.8-4c0.5-7.7,0.8-15.4,1.6-23.1c0.3-2.6,1.5-5.2,2.7-7.5
		c1.7-3.2,4.6-4.8,8.3-4.7c0.6,0.4,1.1,0.8,1.7,1.1c2.7,1.3,3.8,3.4,4,6.3c0.3,3.8-0.4,7.4-1.2,11c-1,4.7-1.8,9.5-1.6,14.3
		c-0.4,1.7-0.8,3.3-1.2,5C52.8,94.8,52.5,95.2,52.3,95.7z"/>
	<path class="st1" d="M51.1,133.7c0.3,0.1,0.6,0.3,0.9,0.3c8,0,16,0,23.9,0c0,1.5,0,3,0.1,4.4c-4.3,0-8.6,0.1-12.8,0.1
		c-4.3,0-8.6,0.1-12.8,0.1C50.6,136.9,50.9,135.3,51.1,133.7z"/>
	<path class="st4" d="M18.5,60.2c2.5-1,4.8-1.9,7.3-2.8c0.9,2.4,1.8,4.7,2.8,7.3c-2.4,0.9-4.8,1.9-7.3,2.8
		C20.4,65.1,19.5,62.7,18.5,60.2z"/>
	<path class="st4" d="M38.8,30.6c-1.9,0.2-3.6,0.4-5.6,0.7c-0.2-1.8-0.5-3.6-0.7-5.6c1.9-0.2,3.7-0.5,5.6-0.7
		C38.3,26.9,38.5,28.7,38.8,30.6z"/>
	<path class="st8" d="M76,138.4c0-1.5,0-3-0.1-4.4c0.6-0.3,1.1-0.8,1.7-0.8c2.6-0.1,5.2-0.1,7.8,0c0.4,0,0.7,0.5,1.1,0.8
		c0,1.5,0,3-0.1,4.4c-0.4,0.2-0.7,0.6-1.1,0.7c-2.8,0.1-5.6,0.1-8.3,0C76.8,139,76.4,138.6,76,138.4z"/>
	<path class="st0" d="M75.4,69.8c1.6-1.8,3.2-3.7,4.8-5.5c0.8-0.9,1.6-0.7,2.3,0.1c1.4,1.8,2.8,3.7,4.1,5.6c-0.8,1-1.8,1.9-2.5,2.9
		c-0.4,0.6-0.7,1.4-0.7,2.1c0.5,5,1.1,10,1.6,15c0.5,4.3,0.9,8.6,1.4,12.9c0.2,1.5,0.1,2.9-0.8,4.3c-1.5,2.2-2.9,4.6-4.4,7
		c-1.7-3-3.6-5.6-4.9-8.6c-0.6-1.3-0.1-3.1,0.1-4.7c0.5-5.2,1.1-10.4,1.7-15.6c0.4-3.3,0.7-6.6,1.1-9.9c0.1-1.1,0-1.9-0.9-2.7
		C77.3,71.9,76.4,70.8,75.4,69.8z"/>
</g>
</svg>
