<?xml version="1.0" encoding="utf-8"?>
<!-- Generator: Adobe Illustrator 23.0.3, SVG Export Plug-In . SVG Version: 6.00 Build 0)  -->
<svg version="1.1" id="Vrstva_1" xmlns="http://www.w3.org/2000/svg" xmlns:xlink="http://www.w3.org/1999/xlink" x="0px" y="0px"
	 viewBox="0 0 100 100" style="enable-background:new 0 0 100 100;" xml:space="preserve">
<style type="text/css">
	.st0{fill:#D96718;}
	.st1{fill:#E7701A;}
	.st2{fill:#BA5419;}
	.st3{fill:#F19856;}
	.st4{fill:#FADC15;}
</style>
<g>
	<path class="st0" d="M80.89,4.43C80.9,4.62,80.92,4.81,80.92,5c0,30.16,0,60.33,0,90.49c0,0.21-0.03,0.42-0.04,0.63
		c-0.07,0.02-0.13,0.04-0.2,0.06c-0.56,0-1.13,0-1.69,0c-0.03-0.03-0.06-0.03-0.09-0.01c-0.09,0.01-0.19,0.03-0.28,0.04
		c-1.27,0.01-2.54,0.02-3.81,0.02c-0.51,0-1.02-0.01-1.53-0.01c-15.64,0-31.28,0-46.92,0c-0.38,0-0.76,0.01-1.14,0.02
		c-0.89,0-1.79,0-2.68,0.02c-0.34,0.01-0.69,0.08-1.03,0.12c-0.43-0.05-0.85-0.12-1.28-0.15c-0.35-0.02-0.71-0.01-1.13-0.01
		c0-0.27,0-0.47,0-0.68c0-30.18,0-60.36,0-90.54c0-0.19,0.02-0.38,0.02-0.57C39.71,4.43,60.3,4.43,80.89,4.43z M20.74,64.1
		c-0.08,0.18-0.23,0.37-0.23,0.55c-0.02,0.99-0.02,1.98,0,2.97c0,0.18,0.16,0.36,0.24,0.54c0,8.3,0,16.61-0.02,24.91
		c0,0.49,0.13,0.65,0.64,0.65c19.09-0.01,38.17-0.01,57.26,0c0.52,0,0.64-0.16,0.63-0.65c-0.01-8.3-0.01-16.61-0.01-24.91
		c0.08-0.16,0.22-0.32,0.22-0.48c0.02-1.03,0.02-2.05,0-3.08c0-0.16-0.14-0.33-0.21-0.49c0-0.3-0.01-0.59-0.01-0.89
		c0-14.95,0-29.9-0.01-44.85c0-0.27-0.08-0.53-0.12-0.8c0.12-0.17,0.33-0.34,0.34-0.51c0.03-1.01,0.03-2.02,0.01-3.02
		c0-0.16-0.15-0.32-0.23-0.49c0-2.24-0.02-4.49,0.02-6.73c0.01-0.57-0.13-0.75-0.73-0.75c-19.04,0.02-38.08,0.02-57.12,0
		c-0.51,0-0.7,0.12-0.69,0.66c0.03,2.27,0.01,4.53,0.02,6.8c-0.08,0.18-0.24,0.36-0.24,0.54c-0.02,0.99-0.02,1.97,0,2.96
		c0,0.18,0.16,0.36,0.24,0.54c0,0.23-0.01,0.47-0.01,0.7C20.75,33.55,20.75,48.82,20.74,64.1z"/>
	<path class="st1" d="M19.07,3.67c-0.19-0.12-0.49-0.2-0.56-0.37c-0.36-0.87-0.66-1.77-0.98-2.66c0.3-0.05,0.6-0.14,0.91-0.14
		C39.51,0.5,60.57,0.5,81.63,0.5c0.19,0,0.39-0.02,0.57,0.02c0.09,0.02,0.16,0.15,0.24,0.23c-0.31,0.83-0.59,1.68-0.93,2.49
		c-0.08,0.19-0.38,0.29-0.58,0.43c-0.25,0-0.51-0.01-0.76-0.01c-14.3,0-28.61,0-42.91,0C31.2,3.67,25.14,3.67,19.07,3.67z"/>
	<path class="st2" d="M19.07,3.67c6.06,0,12.12-0.01,18.18-0.01c14.3,0,28.61,0,42.91,0c0.25,0,0.51,0.01,0.76,0.01
		c-0.01,0.25-0.03,0.5-0.04,0.76c-20.59,0-41.19,0-61.78,0C19.1,4.18,19.09,3.93,19.07,3.67z"/>
	<path class="st3" d="M82.44,0.75c-0.08-0.08-0.15-0.21-0.24-0.23c-0.18-0.04-0.38-0.02-0.57-0.02c-21.06,0-42.12,0-63.18,0.01
		c-0.3,0-0.6,0.09-0.91,0.14C17.47,0.46,17.39,0.28,17.28,0c21.85,0,43.59,0,65.44,0C82.61,0.3,82.53,0.52,82.44,0.75z"/>
	<path class="st2" d="M74.8,96.23c1.27-0.01,2.54-0.02,3.81-0.02c-0.1,1.05-0.23,2.1-0.31,3.15c-0.04,0.49-0.24,0.65-0.72,0.63
		c-0.65-0.04-1.31,0.03-1.96-0.03c-0.19-0.02-0.5-0.27-0.52-0.45C74.96,98.42,74.89,97.33,74.8,96.23z"/>
	<path class="st2" d="M21.5,96.37c0.34-0.04,0.69-0.11,1.03-0.12c0.89-0.02,1.79-0.01,2.68-0.02c-0.09,0.98-0.21,1.96-0.25,2.95
		c-0.02,0.63-0.26,0.86-0.89,0.81c-0.59-0.05-1.19-0.03-1.78-0.01c-0.37,0.01-0.54-0.14-0.57-0.51
		C21.66,98.44,21.58,97.41,21.5,96.37z"/>
	<path class="st2" d="M80.68,96.18c0.07-0.02,0.13-0.04,0.2-0.06C80.81,96.14,80.74,96.16,80.68,96.18z"/>
	<path class="st2" d="M78.89,96.17c0.03-0.02,0.06-0.02,0.09,0.01c0,0-0.05,0.02-0.05,0.02L78.89,96.17z"/>
	<path class="st2" d="M79.14,17.57c0.04,0.27,0.12,0.53,0.12,0.8c0.01,14.95,0.01,29.9,0.01,44.85c0,0.3,0.01,0.59,0.01,0.89
		c-0.5-0.06-0.65,0.19-0.64,0.66c0.02,0.92,0.02,1.84,0,2.76c-0.01,0.47,0.18,0.66,0.63,0.63c0,8.3,0,16.61,0.01,24.91
		c0,0.49-0.12,0.65-0.63,0.65c-19.09-0.01-38.17-0.01-57.26,0c-0.51,0-0.64-0.15-0.64-0.65c0.02-8.3,0.01-16.61,0.02-24.91
		c0.13,0,0.25,0,0.38,0c0,2.41,0,4.83,0,7.24c0.06,0.03,0.11,0.07,0.17,0.1c0.07-0.12,0.15-0.25,0.22-0.37c8.88,0,17.76,0,26.64,0
		c0.95,0,0.95,0,0.95-0.93c0-21.32,0-42.63,0-63.95c0-1.1-0.01-2.2-0.01-3.31c0.1-0.14,0.21-0.28,0.32-0.43c-9.45,0-18.84,0-28.28,0
		c0,2.37,0,4.7,0,7.02c-0.13-0.01-0.26-0.01-0.39-0.02c0-2.27,0.01-4.53-0.02-6.8c-0.01-0.54,0.17-0.66,0.69-0.66
		c19.04,0.01,38.08,0.01,57.12,0c0.6,0,0.74,0.18,0.73,0.75c-0.03,2.24-0.01,4.49-0.02,6.73c-0.46-0.04-0.64,0.16-0.63,0.63
		c0.02,0.92,0.01,1.85,0,2.77C78.63,17.31,78.72,17.57,79.14,17.57z M21.51,84.04c18.63,0,37.25,0,55.88,0c0.21,0,0.43-0.02,0.64,0
		c0.37,0.03,0.47-0.14,0.47-0.49c-0.02-2.18-0.02-4.36-0.03-6.55c0.08-0.13,0.17-0.25,0.28-0.42c-19.24,0-38.39,0-57.57,0
		c0,2.59,0,5.14,0,7.73C21.3,84.21,21.41,84.12,21.51,84.04z M21.51,92.94c0.31-0.04,0.62-0.11,0.93-0.11
		c18.43-0.01,36.86-0.01,55.29,0.01c0.61,0,0.79-0.16,0.78-0.77c-0.04-2.08-0.01-4.15-0.01-6.23c0.06-0.11,0.13-0.23,0.18-0.33
		c-19.2,0-38.35,0-57.48,0c0,2.58,0,5.09,0,7.66C21.34,93.06,21.42,93,21.51,92.94z M78.49,6.87c0.07-0.1,0.15-0.21,0.24-0.34
		c-9.44,0-18.82,0-28.2,0c0,22.96,0,45.87,0,68.85c0.15-0.11,0.25-0.18,0.34-0.25c9.01,0,18.02,0,27.02,0.02
		c0.5,0,0.6-0.17,0.59-0.63c-0.02-3.56-0.01-7.12-0.01-10.68C78.49,44.85,78.49,25.86,78.49,6.87z"/>
	<path class="st2" d="M20.74,64.1c0-15.28,0-30.55,0-45.83c0-0.23,0-0.47,0.01-0.7c0.06-0.01,0.13-0.01,0.19-0.02l0,0.02l0.01-0.02
		c0.06,0.01,0.11,0.02,0.17,0.02c0.01,0.36,0.02,0.72,0.02,1.08c0,15.15,0,30.3,0.01,45.45C21.01,64.11,20.88,64.1,20.74,64.1z"/>
	<path class="st4" d="M79.26,68.16c-0.45,0.03-0.64-0.16-0.63-0.63c0.02-0.92,0.02-1.84,0-2.76c-0.01-0.47,0.14-0.72,0.64-0.66
		c0.07,0.16,0.21,0.32,0.21,0.49c0.02,1.03,0.02,2.05,0,3.08C79.48,67.84,79.34,68,79.26,68.16z"/>
	<path class="st4" d="M20.74,64.1c0.13,0,0.27,0.01,0.4,0.01c0.08,0.21,0.21,0.42,0.22,0.63c0.02,0.96,0.02,1.93,0,2.89
		c0,0.18-0.15,0.36-0.23,0.54c-0.13,0-0.25,0-0.38,0c-0.08-0.18-0.24-0.36-0.24-0.54c-0.02-0.99-0.02-1.98,0-2.97
		C20.52,64.47,20.66,64.28,20.74,64.1z"/>
	<path class="st4" d="M20.94,17.55c-0.06,0.01-0.13,0.01-0.19,0.02c-0.08-0.18-0.24-0.36-0.24-0.54c-0.02-0.99-0.03-1.97,0-2.96
		c0-0.18,0.16-0.36,0.24-0.54c0.13,0.01,0.26,0.01,0.39,0.02c0.08,0.18,0.22,0.36,0.23,0.55c0.02,0.98,0.02,1.96,0,2.94
		c0,0.18-0.15,0.36-0.24,0.54c-0.06-0.01-0.11-0.02-0.17-0.02C20.96,17.55,20.94,17.55,20.94,17.55z"/>
	<path class="st4" d="M79.14,17.57c-0.42-0.01-0.51-0.26-0.51-0.63c0.01-0.92,0.02-1.85,0-2.77c-0.01-0.46,0.17-0.66,0.63-0.63
		c0.08,0.16,0.22,0.32,0.23,0.49c0.02,1.01,0.03,2.02-0.01,3.02C79.47,17.24,79.26,17.4,79.14,17.57z"/>
	<path class="st0" d="M78.49,6.87c0,18.99,0,37.98-0.01,56.97c0,3.56-0.01,7.12,0.01,10.68c0,0.46-0.1,0.63-0.59,0.63
		c-9.01-0.02-18.02-0.02-27.02-0.02c0-0.28,0.01-0.55,0.01-0.83c0-22.14,0-44.28,0-66.42c0-0.29,0-0.57,0-0.92c0.38,0,0.65,0,0.92,0
		c8.47,0,16.95,0,25.42,0C77.65,6.96,78.07,6.9,78.49,6.87z M51.4,58.63c0.07,0.03,0.15,0.06,0.22,0.09
		c8.75-17.04,17.49-34.07,26.3-51.23c-0.35,0-0.56,0-0.76,0c-8.33,0-16.66,0.01-24.99-0.02c-0.67,0-0.79,0.2-0.79,0.82
		c0.02,16.55,0.01,33.1,0.01,49.65C51.4,58.17,51.4,58.4,51.4,58.63z"/>
	<path class="st0" d="M49.1,6.95c0,1.1,0.01,2.2,0.01,3.31c0,21.32,0,42.63,0,63.95c0,0.93,0,0.93-0.95,0.93
		c-8.88,0-17.76,0-26.64,0c0-22.7,0-45.4,0-68.18c0.35,0,0.62,0,0.89,0C31.31,6.96,40.2,6.96,49.1,6.95z M48.6,7.48
		c-0.33,0-0.55,0-0.78,0c-8.29,0-16.57,0-24.86,0c-0.93,0-0.93,0-0.93,0.95c0,12.91,0,25.81,0,38.72c0,3.58,0,7.16,0,10.75
		c0,0.23,0.04,0.46,0.06,0.69c0.08,0.02,0.16,0.03,0.24,0.05C31.07,41.62,39.81,24.6,48.6,7.48z M46.71,41.06c0,0.7,0.01,1.4,0,2.09
		c-0.01,0.44,0.06,0.73,0.61,0.73c0.52,0.01,0.88-0.1,0.87-0.7c-0.02-1.5-0.05-3-0.05-4.5c0-0.6-0.4-0.54-0.78-0.54
		c-0.43,0-0.67,0.15-0.65,0.64C46.73,39.53,46.71,40.3,46.71,41.06z"/>
	<path class="st0" d="M78.49,85.83c0,2.08-0.03,4.15,0.01,6.23c0.01,0.61-0.16,0.77-0.78,0.77c-18.43-0.02-36.86-0.01-55.29-0.01
		c-0.31,0-0.62,0.07-0.93,0.11c0-2.1,0.03-4.19,0-6.29c-0.01-0.64,0.17-0.83,0.82-0.83C41.05,85.83,59.77,85.83,78.49,85.83z
		 M76.84,86.55c0-0.02,0-0.05,0-0.07c-0.14-0.01-0.29-0.02-0.43-0.02c-8.62-0.04-17.23-0.09-25.85-0.12c-1.01,0-2.02,0.11-3.03,0.11
		c-8.18,0.01-16.36,0.01-24.53,0.01c-0.19,0-0.4-0.05-0.57,0.02c-0.15,0.06-0.37,0.23-0.37,0.36c-0.02,1.69-0.02,3.39,0,5.08
		c0,0.13,0.19,0.37,0.29,0.36c0.97-0.06,1.93-0.15,2.89-0.25c1.82-0.19,3.63-0.41,5.45-0.61c1.36-0.15,2.72-0.26,4.08-0.41
		c1.78-0.19,3.55-0.41,5.32-0.61c1.15-0.13,2.3-0.24,3.45-0.36c1.32-0.14,2.64-0.27,3.95-0.4c0.65-0.06,1.3-0.1,1.95-0.17
		c1.83-0.19,3.66-0.4,5.49-0.59c1-0.11,2.01-0.18,3.01-0.29c2.13-0.23,4.26-0.49,6.39-0.72c1-0.11,2.01-0.18,3.01-0.29
		c1.8-0.19,3.59-0.41,5.39-0.6C74.09,86.82,75.46,86.69,76.84,86.55z"/>
	<path class="st0" d="M78.46,77.01c0.01,2.18,0.01,4.36,0.03,6.55c0,0.35-0.1,0.52-0.47,0.49c-0.21-0.02-0.42,0-0.64,0
		c-18.63,0-37.25,0-55.88,0c0-2.32,0-4.64,0-7c0.38,0,0.63,0,0.88,0c17.67,0,35.35,0,53.02,0C76.43,77.03,77.45,77.02,78.46,77.01z
		 M76.82,77.69c0-0.04,0-0.09-0.01-0.13c-0.23,0-0.46,0-0.69,0c-7.95,0-15.89,0-23.84,0c-9.85,0-19.7,0-29.56-0.01
		c-0.55,0-0.73,0.13-0.71,0.71c0.04,1.46,0.01,2.92,0.01,4.39c0,0.79,0.11,0.85,0.88,0.76c1.92-0.23,3.84-0.42,5.77-0.62
		c0.98-0.11,1.96-0.22,2.94-0.33c1.27-0.14,2.55-0.3,3.82-0.43c1.42-0.15,2.85-0.26,4.27-0.41c1.44-0.15,2.88-0.33,4.32-0.48
		c1.19-0.13,2.38-0.24,3.57-0.36c1.28-0.13,2.55-0.27,3.83-0.4c1.36-0.14,2.72-0.26,4.08-0.42c1.27-0.14,2.54-0.34,3.82-0.47
		c1.9-0.19,3.81-0.32,5.72-0.53c2.05-0.22,4.09-0.52,6.13-0.74C73.05,78,74.94,77.86,76.82,77.69z"/>
	<path class="st3" d="M78.49,6.87c-0.42,0.03-0.84,0.09-1.26,0.09c-8.47,0-16.95,0-25.42,0c-0.27,0-0.54,0-0.92,0
		c0,0.34,0,0.63,0,0.92c0,22.14,0,44.28,0,66.42c0,0.28-0.01,0.55-0.01,0.83c-0.1,0.07-0.2,0.14-0.34,0.25c0-22.98,0-45.89,0-68.85
		c9.38,0,18.75,0,28.2,0C78.64,6.66,78.57,6.76,78.49,6.87z"/>
	<path class="st3" d="M49.1,6.95c-8.9,0-17.79,0.01-26.69,0.01c-0.27,0-0.54,0-0.89,0c0,22.78,0,45.48,0,68.18
		c-0.07,0.12-0.15,0.25-0.22,0.37c-0.06-0.03-0.11-0.07-0.17-0.1c0-2.41,0-4.83,0-7.24c0.08-0.18,0.23-0.36,0.23-0.54
		c0.02-0.96,0.02-1.93,0-2.89c-0.01-0.21-0.14-0.42-0.22-0.63c0-15.15,0-30.3-0.01-45.45c0-0.36-0.01-0.72-0.02-1.08
		c0.08-0.18,0.23-0.36,0.24-0.54c0.02-0.98,0.02-1.96,0-2.94c0-0.18-0.15-0.36-0.23-0.55c0-2.33,0-4.65,0-7.02
		c9.44,0,18.83,0,28.28,0C49.31,6.68,49.2,6.81,49.1,6.95z"/>
	<path class="st3" d="M78.46,77.01c-1.02,0.01-2.03,0.02-3.05,0.02c-17.67,0-35.35,0-53.02,0c-0.25,0-0.51,0-0.88,0
		c0,2.36,0,4.68,0,7c-0.11,0.09-0.21,0.18-0.34,0.28c0-2.59,0-5.14,0-7.73c19.18,0,38.33,0,57.57,0
		C78.63,76.76,78.55,76.88,78.46,77.01z"/>
	<path class="st3" d="M78.49,85.83c-18.72,0-37.45,0-56.17-0.01c-0.65,0-0.83,0.19-0.82,0.83c0.03,2.1,0.01,4.19,0,6.29
		c-0.09,0.06-0.17,0.12-0.31,0.22c0-2.56,0-5.08,0-7.66c19.13,0,38.28,0,57.48,0C78.62,85.61,78.56,85.72,78.49,85.83z"/>
	<polygon class="st3" points="20.94,17.55 20.96,17.55 20.95,17.58 	"/>
	<path class="st1" d="M51.4,58.63c0-0.23,0-0.46,0-0.69c0-16.55,0-33.1-0.01-49.65c0-0.62,0.12-0.82,0.79-0.82
		c8.33,0.03,16.66,0.02,24.99,0.02c0.2,0,0.41,0,0.76,0c-8.81,17.16-17.56,34.2-26.3,51.23C51.55,58.69,51.48,58.66,51.4,58.63z
		 M51.88,40.99c0,0.76,0.02,1.53-0.01,2.29c-0.02,0.5,0.22,0.61,0.66,0.6c0.43-0.01,0.79-0.01,0.78-0.62c-0.03-1.5-0.02-3.01,0-4.51
		c0.01-0.57-0.33-0.6-0.74-0.61c-0.46-0.02-0.72,0.1-0.7,0.64C51.91,39.51,51.88,40.25,51.88,40.99z"/>
	<path class="st1" d="M48.6,7.48C39.81,24.6,31.07,41.62,22.33,58.64c-0.08-0.02-0.16-0.03-0.24-0.05
		c-0.02-0.23-0.06-0.46-0.06-0.69c0-3.58,0-7.16,0-10.75c0-12.91,0-25.81,0-38.72c0-0.95,0-0.95,0.93-0.95c8.29,0,16.57,0,24.86,0
		C48.04,7.48,48.27,7.48,48.6,7.48z"/>
	<path class="st4" d="M46.71,41.06c0-0.76,0.02-1.52-0.01-2.28c-0.02-0.49,0.22-0.64,0.65-0.64c0.38,0,0.78-0.05,0.78,0.54
		c0,1.5,0.03,3,0.05,4.5c0.01,0.6-0.35,0.71-0.87,0.7c-0.54-0.01-0.62-0.29-0.61-0.73C46.72,42.45,46.71,41.76,46.71,41.06z"/>
	<path class="st1" d="M76.84,86.55c-1.37,0.14-2.75,0.27-4.12,0.42c-1.8,0.19-3.59,0.41-5.39,0.6c-1,0.11-2.01,0.18-3.01,0.29
		c-2.13,0.23-4.26,0.49-6.39,0.72c-1,0.11-2.01,0.19-3.01,0.29c-1.83,0.19-3.66,0.4-5.49,0.59c-0.65,0.07-1.3,0.1-1.95,0.17
		c-1.32,0.13-2.64,0.27-3.95,0.4c-1.15,0.12-2.3,0.23-3.45,0.36c-1.77,0.2-3.55,0.42-5.32,0.61c-1.36,0.15-2.72,0.26-4.08,0.41
		c-1.82,0.2-3.63,0.41-5.45,0.61c-0.96,0.1-1.93,0.19-2.89,0.25c-0.09,0.01-0.29-0.23-0.29-0.36c-0.02-1.69-0.02-3.39,0-5.08
		c0-0.13,0.22-0.3,0.37-0.36c0.17-0.06,0.38-0.02,0.57-0.02c8.18,0,16.36,0,24.53-0.01c1.01,0,2.02-0.12,3.03-0.11
		c8.62,0.03,17.23,0.08,25.85,0.12c0.14,0,0.29,0.01,0.43,0.02C76.83,86.5,76.84,86.53,76.84,86.55z M49.94,88.36
		c0.72,0,1.44-0.02,2.16,0.01c0.58,0.02,0.58-0.36,0.58-0.76c0-0.38,0.06-0.79-0.54-0.78c-1.42,0.02-2.84,0.01-4.26,0
		c-0.59,0-0.55,0.4-0.56,0.78c0,0.4,0.01,0.78,0.58,0.76C48.59,88.34,49.27,88.36,49.94,88.36z"/>
	<path class="st1" d="M76.82,77.69c-1.88,0.17-3.77,0.31-5.64,0.51c-2.05,0.22-4.09,0.52-6.13,0.74c-1.9,0.2-3.81,0.34-5.72,0.53
		c-1.27,0.13-2.54,0.32-3.82,0.47c-1.36,0.15-2.72,0.28-4.08,0.42c-1.28,0.13-2.55,0.27-3.83,0.4c-1.19,0.12-2.38,0.24-3.57,0.36
		c-1.44,0.16-2.88,0.33-4.32,0.48c-1.42,0.15-2.85,0.26-4.27,0.41c-1.28,0.13-2.55,0.28-3.82,0.43c-0.98,0.11-1.96,0.23-2.94,0.33
		c-1.92,0.21-3.85,0.4-5.77,0.62c-0.77,0.09-0.87,0.03-0.88-0.76c0-1.46,0.03-2.92-0.01-4.39c-0.02-0.57,0.16-0.71,0.71-0.71
		c9.85,0.02,19.7,0.01,29.56,0.01c7.95,0,15.89,0,23.84,0c0.23,0,0.46,0,0.69,0C76.81,77.6,76.82,77.65,76.82,77.69z M50,79.47
		c0.7,0,1.4-0.03,2.09,0.01c0.57,0.03,0.61-0.31,0.6-0.73c-0.01-0.4,0.06-0.82-0.58-0.81c-1.4,0.02-2.79,0.03-4.19,0
		c-0.57-0.01-0.61,0.31-0.6,0.73c0.01,0.4-0.06,0.83,0.58,0.81C48.6,79.44,49.3,79.47,50,79.47z"/>
	<path class="st4" d="M51.88,40.99c0-0.74,0.02-1.48-0.01-2.22c-0.02-0.53,0.24-0.66,0.7-0.64c0.41,0.02,0.75,0.05,0.74,0.61
		c-0.02,1.5-0.03,3.01,0,4.51c0.01,0.61-0.35,0.61-0.78,0.62c-0.44,0.01-0.68-0.1-0.66-0.6C51.9,42.52,51.88,41.76,51.88,40.99z"/>
	<path class="st4" d="M49.94,88.36c-0.68,0-1.36-0.02-2.03,0.01c-0.58,0.02-0.59-0.35-0.58-0.76c0-0.39-0.03-0.79,0.56-0.78
		c1.42,0.01,2.84,0.01,4.26,0c0.6-0.01,0.54,0.4,0.54,0.78c0,0.4,0,0.78-0.58,0.76C51.38,88.34,50.66,88.36,49.94,88.36z"/>
	<path class="st4" d="M50,79.47c-0.7,0-1.4-0.02-2.1,0.01c-0.64,0.03-0.57-0.4-0.58-0.81c-0.01-0.42,0.03-0.74,0.6-0.73
		c1.4,0.03,2.79,0.02,4.19,0c0.64-0.01,0.57,0.41,0.58,0.81c0.01,0.42-0.03,0.76-0.6,0.73C51.39,79.44,50.7,79.47,50,79.47z"/>
</g>
</svg>
