<?xml version="1.0" encoding="utf-8"?>
<!-- Generator: Adobe Illustrator 23.0.3, SVG Export Plug-In . SVG Version: 6.00 Build 0)  -->
<svg version="1.1" id="Vrstva_1" xmlns="http://www.w3.org/2000/svg" xmlns:xlink="http://www.w3.org/1999/xlink" x="0px" y="0px"
	 viewBox="0 0 100 100" style="enable-background:new 0 0 100 100;" xml:space="preserve">
<style type="text/css">
	.st0{fill:#040303;}
	.st1{fill:#914E16;}
	.st2{fill:#78B82D;}
	.st3{fill:#B56B18;}
	.st4{fill:#71AB2F;}
	.st5{fill:#508130;}
</style>
<path class="st0" d="M19-137c-0.32,0.25-0.63,0.49-0.95,0.74c-0.02-0.25-0.04-0.49-0.05-0.74C18.33-137,18.67-137,19-137z"/>
<path class="st0" d="M57-137c-0.02,0.25-0.04,0.49-0.05,0.74c-0.32-0.25-0.63-0.49-0.95-0.74C56.33-137,56.67-137,57-137z"/>
<path class="st0" d="M17,375c0.02-0.25,0.03-0.5,0.05-0.75c0.32,0.25,0.63,0.5,0.95,0.75C17.67,375,17.33,375,17,375z"/>
<path class="st0" d="M56,375c0.32-0.25,0.63-0.5,0.95-0.74c0.02,0.25,0.04,0.5,0.05,0.74C56.67,375,56.33,375,56,375z"/>
<g>
	<path class="st1" d="M66.02,74.81c-0.55,3.51-1.1,7.02-1.65,10.52c-0.71,4.46-1.43,8.92-2.14,13.38c-0.14,0.9-0.58,1.28-1.62,1.28
		c-7.42,0.01-14.83,0.01-22.25,0c-0.96,0-1.46-0.38-1.58-1.18c-0.7-4.38-1.39-8.76-2.08-13.14c-0.51-3.24-1.03-6.47-1.55-9.71
		c-0.04-0.25-0.05-0.5-0.08-0.75c0-0.52,0.45-0.39,0.79-0.39c6.82-0.01,13.63,0.01,20.45-0.01c3.65-0.01,7.3-0.08,10.96-0.11
		C65.5,74.69,65.76,74.77,66.02,74.81z"/>
	<path class="st2" d="M48.02,47.53c-2.93-0.28-5.76-0.84-8.41-1.97c-4.37-1.88-6.82-4.96-7.54-9.07c-0.23-1.34-0.27-2.7-0.4-4.05
		c5.97-0.54,13.12,1.05,16.32,8.16c0-2.96,0-5.81,0-8.66c-1.35-0.23-2.7-0.42-4.02-0.69c-2.73-0.57-5.27-1.49-7.42-3.09
		c-2.93-2.18-4.25-5.05-4.64-8.28c-0.12-1.03-0.13-2.08-0.18-3.11c5.32-0.41,12.73,0.57,16.36,8.03c0-1.31,0-2.62,0-3.93
		c0.02,0.21,0.07,0.41,0.07,0.62c-0.04,1.67-0.12,3.35-0.11,5.02c0.01,2.53,0.11,5.07,0.11,7.6c-0.01,4.15-0.08,8.3-0.12,12.44
		C48.02,46.86,48.02,47.19,48.02,47.53z"/>
	<path class="st3" d="M66.02,74.81c-0.25-0.04-0.51-0.11-0.76-0.11c-3.65,0.03-7.3,0.1-10.96,0.11c-6.82,0.02-13.63,0.01-20.45,0.01
		c-0.33,0-0.79-0.13-0.79,0.39c-0.07-0.42-0.36-0.49-0.82-0.48c-1.61,0.05-2.1-0.38-2.1-1.76c0-1.61,0-3.23,0-4.84
		c0-1.12,0.56-1.59,1.88-1.59c5.22,0,10.43,0,15.65,0c0.12,0,0.24-0.01,0.36-0.02c1.32,0,2.63,0,3.95,0
		c4.92,0.01,9.84,0.01,14.76,0.02c1.6,0,2.09,0.41,2.09,1.8c0,1.59,0,3.18,0,4.77c0,1.19-0.51,1.63-1.88,1.65
		C66.64,74.76,66.33,74.79,66.02,74.81z"/>
	<path class="st4" d="M51.98,58.06c0.37-0.73,0.71-1.46,1.11-2.18c2.55-4.58,6.86-6.99,12.67-7.49c1.37-0.12,2.76-0.12,4.2-0.18
		c0.12,1.98-0.01,3.83-0.48,5.65c-1.41,5.35-5.49,8.49-11.42,9.98c-1.98,0.5-4.04,0.73-6.07,1.08
		C51.98,62.63,51.98,60.34,51.98,58.06z"/>
	<path class="st2" d="M48.02,64.88c-3.38-0.33-6.67-0.96-9.72-2.34c-4.49-2.03-7.03-5.27-7.83-9.52c-0.29-1.54-0.32-3.11-0.47-4.67
		c6.94-0.51,14.59,1.32,17.98,9.39c0.04-0.44,0.07-0.75,0.09-1.06c-0.02,0.68-0.05,1.36-0.05,2.04
		C48.02,60.79,48.02,62.84,48.02,64.88z"/>
	<path class="st5" d="M48.02,64.88c0-2.05,0-4.1,0.01-6.15c0-0.68,0.03-1.36,0.05-2.04c0-0.13,0-0.27,0.01-0.4
		c0.02-1.32,0.06-2.63,0.06-3.95c0-1.53-0.04-3.05-0.06-4.58c-0.02-0.08-0.05-0.16-0.07-0.25c0-0.34,0-0.67,0.01-1.01
		c0.04-4.15,0.11-8.3,0.12-12.44c0.01-2.53-0.1-5.07-0.11-7.6c-0.01-1.67,0.08-3.35,0.11-5.02c0-0.21-0.04-0.41-0.07-0.62
		c0-0.08,0.01-0.16,0.01-0.24c0.55,0.58,1.11,1.16,1.66,1.74c0.27-0.13,0.6-0.22,0.8-0.41c0.5-0.47,0.93-0.99,1.39-1.49
		c0.01,1.58,0.02,3.17,0.03,4.75c0,2.24,0,4.49,0,6.73c0,2.97-0.01,5.94-0.01,8.92c0,2.26,0,4.52,0,6.78
		c0,3.48,0.01,6.95,0.01,10.43c0,2.29,0,4.58,0,6.86c0,0.53,0,1.07,0,1.6c-1.32,0-2.63,0-3.95,0
		C48.03,65.97,48.03,65.43,48.02,64.88z"/>
	<path class="st4" d="M51.97,47.63c0-2.26,0-4.52,0-6.78c0.41-0.73,0.8-1.46,1.25-2.18c2.42-3.87,6.3-5.81,11.29-6.25
		c1.25-0.11,2.51-0.11,3.76-0.15c0.45,5.96-1.86,11.44-9.18,13.81c-2.1,0.68-4.37,0.96-6.56,1.43
		C52.34,47.54,52.15,47.58,51.97,47.63z"/>
	<path class="st4" d="M51.98,31.93c0-2.24,0-4.49,0-6.73c0.49-0.86,0.93-1.74,1.49-2.57c2.35-3.51,5.99-5.34,10.59-5.82
		c1.39-0.14,2.8-0.13,4.26-0.2c0.14,1.99-0.04,3.83-0.58,5.64c-1.39,4.59-5,7.3-10.12,8.63C55.77,31.35,53.86,31.58,51.98,31.93z"/>
	<path class="st4" d="M51.94,20.44c-0.46,0.5-0.9,1.02-1.39,1.49c-0.2,0.19-0.53,0.28-0.8,0.41c0.05-0.26,0.15-0.52,0.15-0.78
		c0.01-6.82,0-13.63,0.02-20.45c0-0.31,0.18-0.62,0.27-0.94c3.67,2.84,6.19,6.18,6.12,10.59c-0.04,2.97-1.36,5.62-3.17,8.1
		C52.75,19.4,52.34,19.92,51.94,20.44z"/>
	<path class="st2" d="M50.19,0.18c-0.09,0.31-0.27,0.62-0.27,0.94c-0.02,6.82-0.01,13.63-0.02,20.45c0,0.26-0.1,0.52-0.15,0.78
		c-0.55-0.58-1.11-1.16-1.66-1.74c-0.95-1.38-2.03-2.72-2.84-4.16c-2.76-4.94-2.07-9.59,1.88-13.87c0.75-0.82,1.63-1.55,2.46-2.32
		C49.74,0.12,49.93-0.2,50.19,0.18z"/>
	<path class="st2" d="M48.09,47.78c0.02,1.53,0.06,3.05,0.06,4.58c0,1.32-0.04,2.63-0.06,3.95C48.08,53.46,48.09,50.62,48.09,47.78z
		"/>
</g>
</svg>
