<?xml version="1.0" encoding="utf-8"?>
<!-- Generator: Adobe Illustrator 23.0.3, SVG Export Plug-In . SVG Version: 6.00 Build 0)  -->
<svg version="1.1" id="Vrstva_1" xmlns="http://www.w3.org/2000/svg" xmlns:xlink="http://www.w3.org/1999/xlink" x="0px" y="0px"
	 viewBox="0 0 100 100" style="enable-background:new 0 0 100 100;" xml:space="preserve">
<style type="text/css">
	.st0{fill:#514E45;}
	.st1{fill:#EAB684;}
	.st2{fill:#FBC607;}
	.st3{fill:#E5B70A;}
</style>
<g>
	<path class="st0" d="M67.12,62.46c0.14-0.07,0.31-0.24,0.41-0.21c2.52,1,5.04,2.03,7.58,3.06c-0.03,0.22-0.06,0.4-0.08,0.59
		c-1.26,5.19-2.04,10.44-2.06,15.83c0.38,0,0.64,0,0.9,0c1.2,0,1.44,0.21,1.52,1.4c0.39,5.61,0.77,11.23,1.15,16.84
		c-0.17,0.01-0.34,0.02-0.5,0.02c-17.35,0-34.7,0-52.04,0c-0.17,0-0.34-0.01-0.5-0.02c0.28-4.22,0.56-8.44,0.84-12.66
		c0.1-1.44,0.19-2.88,0.3-4.32c0.08-1.01,0.35-1.25,1.35-1.26c0.33,0,0.66,0,1.07,0c0-0.33,0.01-0.59,0-0.85
		c-0.14-2.28-0.16-4.57-0.48-6.83c-0.39-2.73-1.04-5.42-1.58-8.12c-0.03-0.19-0.06-0.38-0.1-0.62c2.03-0.82,4.07-1.65,6.1-2.48
		c0.49-0.2,0.97-0.42,1.47-0.58c0.11-0.04,0.28,0.12,0.42,0.19c0.03,0.21,0.05,0.42,0.08,0.64c0.23,1.82,0.46,3.64,0.69,5.45
		c0.14,4.32,0.28,8.65,0.43,12.97c0,0.06,0.06,0.12,0.09,0.17c10.59,0,21.16,0,31.65,0c0.22-4.47,0.44-8.88,0.66-13.3
		c0.04-0.19,0.09-0.37,0.11-0.56C66.77,66.04,66.95,64.25,67.12,62.46z"/>
	<path class="st1" d="M37.58,60.49c0.14-1.16,0.41-2.25-0.59-3.31c-2.62-2.76-4.2-6.08-4.66-9.89c-0.05-0.43-0.06-0.86-0.09-1.29
		c0-4.39-0.01-8.77-0.01-13.16c0.29-0.01,0.58-0.02,0.86-0.02c11.06,0,22.12,0,33.18,0c0.5,0,1.01,0.02,1.51,0.03
		c0,4.39-0.01,8.78-0.01,13.16c-0.16,4-1.62,7.49-4.17,10.54c-0.32,0.39-0.67,0.75-1,1.12c-0.11,0.12-0.27,0.27-0.27,0.41
		c0.01,0.81,0.06,1.61,0.1,2.41c-0.05,0.25-0.14,0.5-0.14,0.75c-0.01,1.3,0.02,2.6-0.03,3.89c-0.01,0.31-0.17,0.72-0.4,0.91
		c-0.78,0.67-1.6,1.3-2.45,1.89c-2.46,1.72-5.18,2.87-8.18,3.11c-5.15,0.41-9.36-1.8-13.14-5.04c-0.21-0.18-0.34-0.57-0.35-0.87
		c-0.04-1.3-0.01-2.6-0.02-3.9C37.72,61,37.63,60.74,37.58,60.49z"/>
	<path class="st2" d="M29.25,17.53c1.88-4.81,4.71-8.91,8.91-12c0.1,0.18,0.24,0.35,0.29,0.54c0.48,2.01,0.94,4.03,1.42,6.05
		c0.63,2.69,1.27,5.38,1.91,8.07c0.24,0.99,0.49,1.97,0.74,2.95c0.11-0.17,0.11-0.31,0.09-0.45c-0.18-1.49-0.38-2.98-0.54-4.47
		c-0.22-1.97-0.4-3.94-0.61-5.9c-0.18-1.68-0.35-3.37-0.56-5.04c-0.13-1.08-0.32-2.15-0.48-3.22c0.01-0.17,0.03-0.34,0.01-0.5
		c-0.12-1.15-0.13-1.17,0.92-1.63c5.84-2.56,11.67-2.61,17.5,0.08c0.63,0.29,0.98,0.6,0.71,1.35c-0.08,0.21,0,0.47,0,0.71
		c-0.16,1.08-0.33,2.15-0.46,3.23c-0.18,1.49-0.31,2.99-0.47,4.49c-0.22,2.02-0.45,4.03-0.69,6.04c-0.17,1.45-0.34,2.89-0.51,4.34
		c-0.02,0.16,0,0.32,0,0.48c0.47-1.33,0.76-2.67,1.08-4c0.73-3.04,1.48-6.08,2.22-9.12c0.33-1.36,0.65-2.73,0.97-4.1
		c3.26,2.31,5.67,5.36,7.56,8.85c1.88,3.48,3,7.21,3.54,11.12c0.04,0.26,0.03,0.53,0.04,0.79c-1.6,0.1-3.2,0.22-4.8,0.29
		c-1.89,0.08-3.79,0.15-5.68,0.14c-2.52-0.01-5.04-0.06-7.55-0.14c-2.27-0.07-4.55-0.13-6.81-0.3c-2.21-0.17-4.42-0.39-6.61-0.73
		c-3.15-0.48-6.28-1.11-9.01-2.88c-0.84-0.55-1.56-1.31-2.23-2.07C29.42,19.67,29.44,18.55,29.25,17.53z"/>
	<path class="st3" d="M79.46,67.88c3.85,1.42,7.53,3.07,9.88,6.71c1.75,2.71,2.76,5.7,3.38,8.82c1.06,5.36,1.18,10.79,1.19,16.22
		c0,0.09-0.02,0.18-0.04,0.32c-0.15,0.02-0.29,0.04-0.42,0.04c-4.88,0-9.76,0-14.64,0c-0.12,0-0.24-0.02-0.36-0.03
		c-0.12-0.68-0.28-1.36-0.36-2.04c-0.33-2.87-0.79-5.73-0.9-8.61c-0.15-4.19-0.13-8.38,0.52-12.55c0.42-2.71,0.85-5.42,1.64-8.06
		C79.42,68.44,79.42,68.16,79.46,67.88z"/>
	<path class="st3" d="M21.7,99.97c-3.65,0.01-7.31,0.02-10.96,0.03c-1.51,0-3.03,0-4.64,0c0-0.27,0-0.5,0-0.73
		c0.02-4.38,0.13-8.75,0.74-13.09c0.61-4.34,1.62-8.54,4.26-12.17c1.42-1.94,3.2-3.44,5.4-4.43c1.33-0.6,2.69-1.14,4.04-1.71
		c0.01,0.16-0.02,0.33,0.02,0.48c0.18,0.64,0.43,1.27,0.55,1.93c0.42,2.25,0.85,4.5,1.19,6.76c0.25,1.7,0.53,3.41,0.52,5.12
		c0,3.47,0.28,6.96-0.25,10.42c-0.19,1.27-0.28,2.56-0.43,3.84C22.01,97.6,21.85,98.78,21.7,99.97z"/>
	<path class="st2" d="M67.78,32.85c-0.5-0.01-1.01-0.03-1.51-0.03c-11.06,0-22.12,0-33.18,0c-0.29,0-0.58,0.02-0.86,0.02
		c-1.38,0-2.77,0-4.15,0c-0.48-0.01-0.95-0.02-1.43-0.02c-1.26-0.01-1.77-0.51-1.78-1.79c-0.01-0.69,0-1.39,0-2.08
		c0-1.29,0.47-1.77,1.76-1.79c0.12,0,0.24,0,0.36-0.01c0.24,0.01,0.48,0.02,0.72,0.02c14.86,0,29.72,0,44.58,0
		c0.24,0,0.48-0.01,0.72-0.02c1.35,0.03,1.82,0.5,1.82,1.82c0,0.77,0.01,1.53,0,2.3c-0.02,0.94-0.59,1.5-1.53,1.53
		c-0.45,0.01-0.91,0.02-1.36,0.02C70.55,32.85,69.16,32.85,67.78,32.85z"/>
	<path class="st3" d="M37.58,60.49c0.05,0.25,0.14,0.5,0.14,0.75c0.01,1.3-0.01,2.6,0.02,3.9c0.01,0.3,0.13,0.69,0.35,0.87
		c3.78,3.24,7.98,5.45,13.14,5.04c3-0.24,5.72-1.39,8.18-3.11c0.84-0.59,1.67-1.22,2.45-1.89c0.23-0.2,0.39-0.6,0.4-0.91
		c0.04-1.3,0.01-2.6,0.03-3.89c0-0.25,0.09-0.5,0.14-0.75c1.57,0.65,3.13,1.3,4.7,1.96c-0.18,1.79-0.35,3.58-0.53,5.37
		c-0.02,0.19-0.07,0.37-0.11,0.56c-0.02-0.21-0.04-0.42-0.07-0.74c-4.18,5.3-9.7,7.83-16.24,7.87c-6.55,0.04-12.15-2.34-16.41-7.65
		c-0.05,0.31-0.08,0.49-0.11,0.67c-0.23-1.82-0.46-3.64-0.69-5.45c-0.03-0.21-0.05-0.42-0.08-0.64
		C34.45,61.8,36.02,61.15,37.58,60.49z"/>
	<path class="st2" d="M21.7,99.97c0.15-1.18,0.31-2.36,0.45-3.55c0.15-1.28,0.24-2.57,0.43-3.84c0.53-3.46,0.24-6.95,0.25-10.42
		c0-1.71-0.27-3.42-0.52-5.12c-0.34-2.26-0.76-4.51-1.19-6.76c-0.12-0.65-0.37-1.28-0.55-1.93c-0.04-0.15-0.02-0.32-0.02-0.48
		c1.48-0.65,2.96-1.3,4.44-1.95c0.54,2.71,1.19,5.4,1.58,8.12c0.32,2.25,0.33,4.55,0.48,6.83c0.02,0.26,0,0.51,0,0.85
		c-0.41,0-0.74,0-1.07,0c-1,0.01-1.27,0.25-1.35,1.26c-0.11,1.44-0.2,2.88-0.3,4.32c-0.28,4.22-0.56,8.44-0.84,12.66
		C22.89,99.97,22.3,99.97,21.7,99.97z"/>
	<path class="st2" d="M79.46,67.88c-0.04,0.28-0.04,0.56-0.11,0.83c-0.79,2.64-1.22,5.34-1.64,8.06c-0.65,4.17-0.68,8.36-0.52,12.55
		c0.11,2.88,0.57,5.74,0.9,8.61c0.08,0.69,0.23,1.36,0.36,2.04c-0.63,0-1.26,0-1.9,0c-0.38-5.61-0.77-11.23-1.15-16.84
		c-0.08-1.19-0.31-1.4-1.52-1.4c-0.26,0-0.53,0-0.9,0c0.03-5.39,0.81-10.64,2.06-15.83C76.5,66.56,77.98,67.22,79.46,67.88z"/>
	<path class="st3" d="M73,27.18c-0.24,0.01-0.48,0.02-0.72,0.02c-14.86,0-29.72,0-44.58,0c-0.24,0-0.48-0.01-0.72-0.02
		c0.26-3.01,0.87-5.95,1.91-8.79c0.11-0.29,0.23-0.57,0.35-0.86c0.19,1.02,0.17,2.14,0.89,2.96c0.67,0.76,1.39,1.53,2.23,2.07
		c2.73,1.77,5.86,2.4,9.01,2.88c2.19,0.33,4.4,0.56,6.61,0.73c2.27,0.17,4.54,0.23,6.81,0.3c2.52,0.07,5.04,0.13,7.55,0.14
		c1.89,0,3.79-0.06,5.68-0.14c1.6-0.07,3.2-0.19,4.8-0.29C72.89,26.51,72.95,26.84,73,27.18z"/>
	<path class="st0" d="M28.07,32.85c1.38,0,2.77,0,4.15,0c0,4.39,0.01,8.77,0.01,13.16c-1.28-1.39-1.97-3.1-2.58-4.84
		C28.72,38.48,28.35,35.68,28.07,32.85z"/>
	<path class="st0" d="M67.78,32.85c1.38,0,2.77,0,4.15,0c-0.26,2.65-0.56,5.31-1.44,7.84c-0.51,1.44-1.2,2.81-1.86,4.19
		c-0.2,0.42-0.57,0.76-0.86,1.14C67.77,41.63,67.77,37.24,67.78,32.85z"/>
	<path class="st3" d="M40.42,4.05c0.16,1.07,0.35,2.14,0.48,3.22c0.2,1.68,0.38,3.36,0.56,5.04c0.21,1.97,0.39,3.94,0.61,5.9
		c0.16,1.49,0.36,2.98,0.54,4.47c0.02,0.14,0.02,0.28-0.09,0.45c-0.25-0.98-0.51-1.96-0.74-2.95c-0.64-2.69-1.28-5.38-1.91-8.07
		c-0.47-2.02-0.94-4.03-1.42-6.05c-0.05-0.19-0.19-0.36-0.29-0.54C38.91,5.04,39.67,4.55,40.42,4.05z"/>
	<path class="st3" d="M61.69,5.43c-0.32,1.37-0.64,2.74-0.97,4.1c-0.74,3.04-1.49,6.08-2.22,9.12c-0.32,1.33-0.61,2.66-1.08,4
		c0-0.16-0.02-0.32,0-0.48c0.17-1.45,0.34-2.89,0.51-4.34c0.23-2.01,0.46-4.03,0.69-6.04c0.16-1.49,0.3-2.99,0.47-4.49
		c0.13-1.08,0.31-2.15,0.46-3.23C60.27,4.52,60.98,4.97,61.69,5.43z"/>
	<path class="st2" d="M33.66,68.54c0.03-0.18,0.06-0.36,0.11-0.67c4.26,5.31,9.86,7.69,16.41,7.65c6.55-0.04,12.06-2.56,16.24-7.87
		c0.03,0.32,0.05,0.53,0.07,0.74c-0.22,4.41-0.44,8.83-0.66,13.3c-10.49,0-21.06,0-31.65,0c-0.03-0.05-0.09-0.11-0.09-0.17
		C33.94,77.19,33.8,72.86,33.66,68.54z"/>
</g>
</svg>
