<?xml version="1.0" encoding="utf-8"?>
<!-- Generator: Adobe Illustrator 23.0.3, SVG Export Plug-In . SVG Version: 6.00 Build 0)  -->
<svg version="1.1" id="Vrstva_1" xmlns="http://www.w3.org/2000/svg" xmlns:xlink="http://www.w3.org/1999/xlink" x="0px" y="0px"
	 viewBox="0 0 100 100" style="enable-background:new 0 0 100 100;" xml:space="preserve">
<style type="text/css">
	.st0{fill:#FDB301;}
	.st1{fill:#050303;}
	.st2{fill:#DAA876;}
	.st3{fill:#BD8E63;}
	.st4{fill:#E6B37C;}
	.st5{fill:#E5B27B;}
	.st6{fill:#D58650;}
	.st7{fill:#A75E31;}
	.st8{fill:#393939;}
	.st9{fill:#FEFEFE;}
	.st10{fill:#AF814D;}
	.st11{fill:#CBCBCB;}
	.st12{fill:#656565;}
	.st13{fill:#FDFDFD;}
</style>
<g>
	<path class="st0" d="M233.5-163.2c0.2,0.5,0.3,0.9,0.5,1.4c1.2,2.5,3.2,3.8,5.9,3.9c0.1,0,0.2,0,0.3,0c0,0.4,0,0.8-0.2,1.1
		c-0.5,0.8-0.5,1,0.1,1.8c0.2,0.3,0.2,0.9,0,1.1c0,0-0.1,0.1-0.1,0.1c-0.5,0.8-0.5,0.9,0,1.7c0.2,0.3,0.2,0.8,0,1.1
		c-0.1,0.1-0.1,0.2-0.2,0.3c-0.4,0.7-0.3,1.1,0.2,1.7c0.2,0.2,0.2,0.8,0.1,1c0,0.1-0.1,0.1-0.1,0.1c-0.5,0.6-0.4,1.1,0.1,1.7
		c0.2,0.2,0.2,0.7,0,1c0,0-0.1,0.1-0.1,0.1c-0.5,0.7-0.4,1.2,0.1,1.8c0.2,0.3,0.2,0.7,0,1c-0.6,0.8-0.5,1.2,0,2c0.2,0.3,0.2,0.7,0,1
		c-0.5,0.7-0.5,1.1,0,1.9c0.2,0.3,0.2,0.8,0,1.1c-0.5,0.6-0.5,1.2,0,1.8c0.2,0.2,0.2,0.8,0,1c-0.6,0.8-0.5,1.2,0,1.9
		c0.1,0.2,0.1,0.7,0,1c-0.6,0.8-0.6,1.3,0,2c0.1,0.2,0.1,0.6,0,0.8c-0.1,0.1-0.2,0.2-0.2,0.3c-0.4,0.7-0.4,1.2,0.2,1.8
		c0.2,0.3,0.2,0.6,0,0.9c-0.6,0.8-0.5,1.3,0,2c0.1,0.1,0.1,0.4,0.2,0.6c-0.6,0.1-1.2,0.2-1.7,0.4c-1.9,0.5-3.4,1.6-4.4,3.4
		c-0.5,0.9-0.8,1.9-0.9,2.9c0,0.1,0,0.2,0,0.3c0,0,0,0,0,0.1c-28.6,0-57.3,0-85.9,0c-0.2-0.8-0.3-1.6-0.6-2.3
		c-0.8-2.2-2.3-3.6-4.4-4.3c-0.6-0.2-1.2-0.3-1.8-0.4c-0.3-0.1-0.4-0.4-0.2-0.7c0.1-0.1,0.1-0.2,0.2-0.2c0.4-0.6,0.4-1.2-0.1-1.7
		c-0.3-0.4-0.3-0.7,0-1c0.6-0.7,0.5-1.2,0-2c-0.3-0.4-0.3-0.7,0-1.1c0.4-0.6,0.4-1.2,0-1.8c-0.3-0.4-0.3-0.8,0-1.2
		c0.4-0.6,0.4-1.1,0-1.7c-0.3-0.3-0.3-0.8,0-1.1c0.5-0.6,0.5-1.1,0.1-1.7c-0.3-0.5-0.3-0.8,0-1.3c0.5-0.7,0.4-1.2-0.1-1.8
		c-0.2-0.3-0.2-0.7,0-1c0.6-0.7,0.6-1.2,0-2c-0.2-0.3-0.2-0.7,0-1c0.5-0.6,0.5-1.2,0-1.8c-0.3-0.4-0.3-0.8,0-1.2
		c0.5-0.5,0.4-1,0-1.6c-0.3-0.4-0.3-0.8,0-1.2c0.5-0.7,0.5-1-0.1-1.8c-0.3-0.4-0.3-0.9,0-1.2c0.5-0.6,0.5-1,0-1.6
		c-0.3-0.4-0.3-0.9,0-1.3c0.5-0.7,0.5-0.9,0-1.7c-0.2-0.4-0.2-0.7-0.2-1.1c0.7-0.1,1.3-0.1,1.9-0.3c2.5-0.7,4-2.4,4.8-5
		c0.1-0.2,0.1-0.4,0.2-0.6c0.1-0.2,0.1-0.4,0.2-0.5c0.1-0.5,0.1-0.5,0.6-0.5c18.3,0,36.6,0,54.9,0c0.3,0,0.6,0,0.9,0
		c0.9,0,1.7,0,2.6,0c8.8,0,17.6,0,26.4,0c0.3,0,0.4,0.1,0.5,0.4C233.2-164.1,233.3-163.7,233.5-163.2
		C233.4-163.3,233.4-163.3,233.5-163.2C233.4-163.3,233.4-163.3,233.5-163.2C233.4-163.2,233.5-163.2,233.5-163.2z M190.3-159.2
		c-7.3,0-14.7,0-22,0c-4.1,0-8.2,0-12.3,0c-2.1,0-3.7,1.8-3.7,3.9c0,10.3,0,20.6,0,31c0,0.3,0,0.6,0.1,0.9c0.4,1.8,1.8,3,3.8,3
		c2.3,0,4.6,0,6.9,0c20.5,0,41,0,61.5,0c2.1,0,3.7-1.7,3.7-4c0-2.4,0-4.8,0-7.2c0-7.9,0-15.8,0-23.6c0-0.5-0.1-1.1-0.3-1.5
		c-0.7-1.6-1.9-2.4-3.6-2.4C213-159.2,201.6-159.2,190.3-159.2z"/>
	<path class="st1" d="M233.5-163.2C233.5-163.2,233.4-163.2,233.5-163.2C233.4-163.3,233.4-163.3,233.5-163.2
		C233.4-163.3,233.5-163.3,233.5-163.2z"/>
	<path class="st1" d="M190.3-159.2c11.4,0,22.8,0,34.1,0c1.7,0,2.9,0.7,3.6,2.4c0.2,0.5,0.3,1,0.3,1.5c0,7.9,0,15.8,0,23.6
		c0,2.4,0,4.8,0,7.2c0,2.3-1.6,4-3.7,4c-20.5,0-41,0-61.5,0c-2.3,0-4.6,0-6.9,0c-1.9,0-3.3-1.2-3.8-3c-0.1-0.3-0.1-0.6-0.1-0.9
		c0-10.3,0-20.6,0-31c0-2.1,1.6-3.9,3.7-3.9c4.1,0,8.2,0,12.3,0C175.6-159.2,182.9-159.2,190.3-159.2z M190.3-121.4
		c11.4,0,22.8,0,34.3,0c1.7,0,2.9-1.3,2.9-3.1c0-10.2,0-20.5,0-30.7c0-1.5-1-3.1-3-3.1c-22.8,0-45.5,0-68.3,0c-0.1,0-0.3,0-0.4,0
		c-1.5,0.2-2.6,1.4-2.6,3c0,10.3,0,20.5,0,30.8c0,1.7,1.2,3,2.9,3c2.8,0,5.6,0,8.4,0C173-121.4,181.6-121.4,190.3-121.4z"/>
	<path class="st0" d="M190.3-121.4c-8.6,0-17.3,0-25.9,0c-2.8,0-5.6,0-8.4,0c-1.6,0-2.9-1.3-2.9-3c0-10.3,0-20.5,0-30.8
		c0-1.6,1.1-2.9,2.6-3c0.1,0,0.3,0,0.4,0c22.8,0,45.5,0,68.3,0c2,0,3,1.6,3,3.1c0,10.2,0,20.5,0,30.7c0,1.8-1.2,3.1-2.9,3.1
		C213.1-121.4,201.7-121.4,190.3-121.4z M200.1-131.3c0-0.1-0.1-0.2-0.1-0.2c-1.6-3.1-3.2-6.3-4.8-9.4c-0.1-0.2-0.1-0.4,0-0.6
		c1.4-2.5,2.9-4.9,4.3-7.4c0.1-0.1,0.1-0.3,0.2-0.4c-1.3,0-2.6,0-3.9,0c-0.2,0-0.3,0.1-0.4,0.3c-0.8,1.6-1.5,3.3-2.3,4.9
		c-0.2,0.3-0.4,0.6-0.6,0.9c-0.2,0.2-0.5,0.2-0.6-0.1c-0.1-0.3-0.2-0.6-0.2-1c0-1.2,0-2.4,0-3.6c0-0.5,0-0.9,0-1.4
		c-1.3,0-2.5,0-3.8,0c0,6,0,12.1,0,18.1c1.3,0,2.7,0,4,0c0-0.1,0-0.2,0-0.4c0-1.3,0-2.7,0-4c0-0.6,0.3-1.2,0.6-1.7
		c0.3-0.4,0.6-0.4,0.8,0c0.2,0.4,0.5,0.8,0.6,1.3c0.6,1.5,1.1,3,1.6,4.5c0.1,0.2,0.1,0.3,0.3,0.3c1.3,0,2.7,0,4,0
		C200-131.3,200-131.3,200.1-131.3z M211.2-135c-1.8,0-3.6,0-5.4,0c0-1.3,0-2.7,0-4c1.7,0,3.3,0,4.9,0c0-1,0-2,0-3c-1.7,0-3.4,0-5,0
		c0-1.2,0-2.3,0-3.5c1.8,0,3.7,0,5.5,0c0-1.3,0-2.5,0-3.8c-3.2,0-6.3,0-9.5,0c0,6,0,12.1,0,18.1c3.2,0,6.3,0,9.5,0
		C211.2-132.5,211.2-133.8,211.2-135z M181.8-138c0,0.5,0,0.9,0,1.4c0,0.7-0.1,1.3-0.4,1.9c-0.2,0.4-0.5,0.6-1,0.7
		c-1.1,0-2-0.8-2-2.1c0-2.8,0-5.6,0-8.4c0-0.4,0.1-0.8,0.3-1.1c0.4-0.9,2-1.1,2.5-0.2c0.2,0.4,0.4,0.8,0.5,1.2
		c0.1,0.5,0.1,1,0.2,1.5c1.2,0,2.5,0,3.7,0c0.1-1.2-0.3-3.2-1.1-4.3c-0.3-0.5-0.6-0.9-1.1-1.2c-2.2-1.2-4.3-1.1-6.5,0.1
		c-0.5,0.3-0.9,0.7-1.3,1.3c-0.7,1.2-0.9,2.6-0.9,4c0,2,0,4,0,6c0,1,0.2,2,0.6,2.9c0.5,1.2,1.2,2.2,2.4,2.7c1.1,0.5,2.2,0.7,3.4,0.5
		c1.1-0.2,2.1-0.5,2.9-1.3c1.1-1.1,1.7-2.5,1.8-4.1c0-0.5,0-1-0.1-1.6C184.3-138,183.1-138,181.8-138z M216.1-145.8
		c0,5,0,9.9,0,14.8c1.4,0,2.8,0,4.2,0c0-4.9,0-9.8,0-14.7c1.2,0,2.4,0,3.5,0c0-1.3,0-2.5,0-3.7c-3.7,0-7.3,0-11,0c0,1.2,0,2.4,0,3.6
		C213.9-145.8,215-145.8,216.1-145.8z M166.6-145.7c0-1.3,0-2.5,0-3.7c-3.3,0-6.6,0-9.9,0c0,1.2,0,2.4,0,3.6c1,0,1.9,0,2.9,0
		c0,4.9,0,9.8,0,14.7c1.3,0,2.5,0,3.8,0c0-4.9,0-9.8,0-14.6C164.5-145.7,165.5-145.7,166.6-145.7z M172.6-131c0-6.1,0-12.2,0-18.3
		c-1.4,0-2.7,0-4.1,0c0,6.1,0,12.2,0,18.3C169.9-131,171.2-131,172.6-131z"/>
	<path class="st1" d="M200.1-131.3c-0.1,0-0.1,0-0.2,0c-1.3,0-2.7,0-4,0c-0.2,0-0.3-0.1-0.3-0.3c-0.5-1.5-1.1-3-1.6-4.5
		c-0.2-0.4-0.4-0.9-0.6-1.3c-0.3-0.4-0.6-0.4-0.8,0c-0.4,0.5-0.6,1-0.6,1.7c0,1.3,0,2.7,0,4c0,0.1,0,0.2,0,0.4c-1.3,0-2.7,0-4,0
		c0-6,0-12.1,0-18.1c1.3,0,2.5,0,3.8,0c0,0.5,0,0.9,0,1.4c0,1.2,0,2.4,0,3.6c0,0.3,0.1,0.7,0.2,1c0.1,0.3,0.4,0.4,0.6,0.1
		c0.2-0.3,0.5-0.6,0.6-0.9c0.8-1.6,1.5-3.3,2.3-4.9c0.1-0.2,0.2-0.3,0.4-0.3c1.3,0,2.6,0,3.9,0c-0.1,0.2-0.2,0.3-0.2,0.4
		c-1.4,2.5-2.9,4.9-4.3,7.4c-0.1,0.2-0.1,0.4,0,0.6c1.6,3.1,3.2,6.3,4.8,9.4C200-131.5,200.1-131.4,200.1-131.3z"/>
	<path class="st1" d="M211.2-135c0,1.3,0,2.5,0,3.8c-3.2,0-6.3,0-9.5,0c0-6,0-12,0-18.1c3.2,0,6.3,0,9.5,0c0,1.2,0,2.5,0,3.8
		c-1.8,0-3.7,0-5.5,0c0,1.2,0,2.3,0,3.5c1.7,0,3.3,0,5,0c0,1,0,2,0,3c-1.6,0-3.3,0-4.9,0c0,1.3,0,2.7,0,4
		C207.6-135,209.4-135,211.2-135z"/>
	<path class="st1" d="M181.8-138c1.3,0,2.5,0,3.8,0c0,0.5,0.1,1,0.1,1.6c-0.1,1.6-0.7,3-1.8,4.1c-0.8,0.8-1.8,1.1-2.9,1.3
		c-1.2,0.2-2.3,0-3.4-0.5c-1.2-0.5-1.9-1.5-2.4-2.7c-0.4-0.9-0.6-1.9-0.6-2.9c0-2,0-4,0-6c0-1.4,0.2-2.8,0.9-4
		c0.3-0.5,0.7-1,1.3-1.3c2.2-1.2,4.3-1.3,6.5-0.1c0.5,0.3,0.8,0.7,1.1,1.2c0.7,1.1,1.2,3.1,1.1,4.3c-1.2,0-2.5,0-3.7,0
		c0-0.5-0.1-1-0.2-1.5c-0.1-0.4-0.3-0.9-0.5-1.2c-0.5-0.9-2.1-0.7-2.5,0.2c-0.2,0.3-0.3,0.7-0.3,1.1c0,2.8,0,5.6,0,8.4
		c0,1.2,0.9,2.1,2,2.1c0.5,0,0.8-0.2,1-0.7c0.3-0.6,0.4-1.3,0.4-1.9C181.9-137.1,181.8-137.5,181.8-138z"/>
	<path class="st1" d="M216.1-145.8c-1.1,0-2.2,0-3.2,0c0-1.2,0-2.4,0-3.6c3.7,0,7.3,0,11,0c0,1.2,0,2.4,0,3.7c-1.2,0-2.3,0-3.5,0
		c0,4.9,0,9.8,0,14.7c-1.4,0-2.8,0-4.2,0C216.1-135.9,216.1-140.8,216.1-145.8z"/>
	<path class="st1" d="M166.6-145.7c-1.1,0-2.1,0-3.2,0c0,4.9,0,9.8,0,14.6c-1.3,0-2.5,0-3.8,0c0-4.9,0-9.8,0-14.7c-1,0-1.9,0-2.9,0
		c0-1.2,0-2.4,0-3.6c3.3,0,6.6,0,9.9,0C166.6-148.1,166.6-146.9,166.6-145.7z"/>
	<path class="st1" d="M172.6-131c-1.4,0-2.7,0-4.1,0c0-6.1,0-12.2,0-18.3c1.3,0,2.7,0,4.1,0C172.6-143.3,172.6-137.1,172.6-131z"/>
</g>
<g>
	<path class="st2" d="M62.8-148.8c-0.2,2.9-0.4,5.8-0.6,8.7c-0.3,4.7-0.7,9.5-1,14.2c-0.4,5.3-0.8,10.7-1.2,16
		c0,0.4-0.1,0.6-0.6,0.8c-12.7,3.8-25.3,7.6-38,11.4c-0.1,0-0.2,0-0.3,0c0-15.3,0-30.7,0-46c0-0.2,0-0.4,0-0.5c0,0,0.1,0,0.1,0
		l0.1,0c0.3,0.1,0.6,0.2,0.9,0.4c4,2.4,8.1,4.7,12.1,7.1c0.4,0.3,0.8,0.3,1.3,0.1c1.8-0.8,3.6-1.6,5.4-2.4
		c5.2-2.3,10.3-4.6,15.5-6.9C58.6-147,60.7-147.9,62.8-148.8z"/>
	<path class="st3" d="M21.2-144.3c0,0.2,0,0.4,0,0.5c0,15.3,0,30.7,0,46c-2.6-0.8-5.2-1.5-7.8-2.3c-6.8-2-13.7-4.1-20.5-6.2
		c-0.2-0.1-0.4-0.2-0.6-0.2c0-0.2,0.1-0.4,0.1-0.6c0.1-1-0.3-1.8-1.2-2.3c-0.8-0.4-1.8-0.3-2.5,0.4c-0.4,0.4-0.7,0.7-1.1,1.1
		c-1.6-0.5-3.2-0.9-4.7-1.4c-0.4-0.1-0.5-0.3-0.5-0.7c-0.2-2.9-0.4-5.8-0.6-8.7c-0.4-5.3-0.8-10.6-1.2-16c-0.3-4.8-0.7-9.6-1-14.3
		c1.5,0.7,3,1.3,4.5,2c7.6,3.4,15.1,6.7,22.7,10.1c0.5,0.2,0.9,0.2,1.3-0.1c2.2-1.3,4.4-2.6,6.7-3.9c2.1-1.2,4.2-2.5,6.2-3.7
		c0.1,0,0.1,0,0.2,0C21.2-144.4,21.2-144.3,21.2-144.3z M4.7-123.9c-1.2,0-2.2,1-2.2,2.1c0,1.2,1,2.2,2.2,2.2c1,0,2.1-1.1,2.1-2.1
		C6.7-122.7,6-124,4.7-123.9z M-1.4-113.7c-0.2,0.2-0.4,0.3-0.5,0.4c-0.7,0.7-1.5,0.8-2,0.2c-0.6-0.6-0.6-1.4,0.1-2.1
		c0.3-0.3,0.7-0.6,0.9-1c0.1-0.1,0.1-0.4,0.1-0.6c-0.2,0-0.5,0-0.6,0.1c-0.5,0.4-0.9,0.8-1.3,1.3c-0.6,0.7-0.6,1.5-0.3,2.3
		c0.3,0.8,1,1.2,1.8,1.1c0.6,0,1.1-0.2,1.6-0.4c0.2,0.2,0.5,0.3,0.7,0.5c0.2-0.2,0.4-0.5,0.5-0.7c0.3-0.8,0.1-1.6-0.5-2.2
		c-0.4-0.4-0.7-0.8-1.1-1.1c-0.1-0.1-0.4-0.1-0.6-0.1c0,0.2,0,0.5,0.1,0.6c0.3,0.4,0.7,0.7,1,1.1c0.4,0.4,0.6,0.9,0.3,1.5
		C-1.3-113.1-1.3-113.4-1.4-113.7z M8.6-126.3c-0.4,0.4-0.9,0.8-1.2,1.2c-0.1,0.2-0.1,0.5-0.1,0.7c0.2,0,0.5,0,0.7-0.1
		c0.5-0.5,1-1.1,1.5-1.6c0.1-0.1,0-0.5-0.1-0.6c-0.9-0.8-2.1-0.7-2.9,0.2c-0.8,0.9-0.8,2.1,0,2.9c0.8,0.8,2.1,0.9,3,0.2
		c0.7-0.6,0.9-1.8,0.3-2.6c-0.2,0.5-0.4,0.8-0.5,1.2c-0.1,0.6-0.5,1-1,1.1c-0.6,0.1-1.1-0.1-1.4-0.6C6.5-125,6.6-125.6,7-126
		C7.4-126.4,7.9-126.7,8.6-126.3z M-8.6-110.5c0.1,0.2,0.3,0.8,0.6,1.2c0.3,0.4,0.8,0.8,1.2,1.2c0.1,0.1,0.4,0.1,0.6,0.2
		c0-0.2,0-0.5-0.1-0.7c-0.3-0.4-0.7-0.7-1.1-1.1c-0.6-0.6-0.5-1.4,0.1-1.9c0.6-0.6,1.2-0.6,1.9,0c0.4,0.4,0.7,0.8,1.1,1.1
		c0.1,0.1,0.4,0,0.6,0.1c0-0.2,0.1-0.5,0-0.6c-0.4-0.4-0.8-0.9-1.2-1.2c-0.7-0.6-1.5-0.7-2.4-0.3C-8.1-112.2-8.5-111.6-8.6-110.5z
		 M0.5-120c0,0.3,0,0.4,0.1,0.6c0.3,1.1,1.2,1.7,2,2.4c0.1,0.1,0.3,0,0.4-0.1c0.1-0.2,0.1-0.4,0.1-0.5c-0.2-0.3-0.5-0.6-0.7-0.8
		c-0.7-0.6-1.2-1.3-0.7-2.3c0.1-0.1-0.1-0.3-0.2-0.5c-0.2,0.1-0.4,0.1-0.5,0.2C0.7-120.6,0.6-120.2,0.5-120z M-0.8-117.8
		c-0.1,0.1-0.3,0.2-0.3,0.3c0,0.1,0,0.4,0.1,0.5c0.5,0.5,1,1.1,1.6,1.6c0.1,0.1,0.4,0.1,0.7,0.1c0-0.2,0-0.5-0.1-0.7
		c-0.5-0.5-1-1-1.5-1.5C-0.5-117.6-0.6-117.7-0.8-117.8z M-0.3-119c-0.3-0.1-0.6-0.2-0.7-0.1c-0.6,0.5-1.1,1.1-1.7,1.7
		c-0.1,0.1,0,0.3,0.1,0.5c0.1,0.1,0.3,0.1,0.4,0c0.6-0.5,1.1-1.1,1.7-1.7C-0.4-118.7-0.4-118.8-0.3-119z"/>
	<path class="st4" d="M21.2-144.4c-0.1,0-0.1,0-0.2,0c0,0,0-0.1,0-0.1c0,0,0.1,0,0.1,0c1.6-0.5,3.1-0.9,4.7-1.4
		c2.5-0.7,5-1.5,7.4-2.3c0.4-0.1,0.7-0.2,1.1-0.3c0,0,0.1,0,0.1,0c9.4-2.8,18.8-5.6,28.2-8.5c0.1,0,0.2-0.1,0.4-0.2
		c-1.2-0.4-2.3-0.7-3.4-1c-4.7-1.4-9.4-2.8-14-4.2c-0.4-0.1-0.8-0.2-1.2-0.3c-0.8-0.3-1.6-0.5-2.4-0.8c-6.9-2.1-13.9-4.2-20.8-6.2
		c0,0,0-0.1,0-0.1c3.1-1.8,6.2-3.7,9.3-5.5c1.2-0.7,2.5-1.4,3.7-2.2c0.4-0.2,0.7-0.2,1.1,0c4.9,2.2,9.9,4.4,14.8,6.6
		c0.2,0.1,0.5,0.2,0.8,0.3c0.7,0.3,1.5,0.7,2.2,1c2.6,1.2,5.1,2.3,7.7,3.5c3.4,1.5,6.8,3,10.3,4.6c-2.6,1.5-5.2,3.1-7.8,4.6
		c2.6,1.5,5.1,3,7.7,4.6c-0.2,0.1-0.4,0.2-0.6,0.3c-2.3,1-4.7,2.1-7,3.1c-0.3,0.1-0.6,0.3-0.8,0.4c-2.1,0.9-4.2,1.8-6.3,2.7
		c-5.2,2.3-10.3,4.6-15.5,6.9c-1.8,0.8-3.6,1.6-5.4,2.4c-0.4,0.2-0.8,0.2-1.3-0.1c-4-2.4-8.1-4.8-12.1-7.1c-0.3-0.2-0.6-0.3-0.9-0.4
		C21.3-144.3,21.2-144.4,21.2-144.4z"/>
	<path class="st5" d="M21.1-144.5c0,0,0,0.1,0,0.1c-2.1,1.2-4.2,2.5-6.2,3.7c-2.2,1.3-4.5,2.6-6.7,3.9c-0.5,0.3-0.9,0.3-1.3,0.1
		c-7.6-3.4-15.1-6.7-22.7-10.1c-1.5-0.7-3-1.3-4.5-2c-2.3-1-4.6-2.1-7-3.1c-0.4-0.2-0.9-0.4-1.5-0.7c2.6-1.6,5.2-3,7.8-4.6
		c-2.6-1.5-5.1-3-7.8-4.6c1.6-0.7,3.1-1.4,4.6-2.1c10.4-4.6,20.8-9.2,31.2-13.8c0.3-0.1,0.7-0.1,0.9,0c4.4,2.5,8.7,5.1,13,7.7
		c0.1,0,0.1,0.1,0.2,0.1c-0.3,0.1-0.6,0.3-0.9,0.4c-8.1,2.4-16.2,4.9-24.2,7.3c-4.3,1.3-8.6,2.6-12.9,3.9c-1.2,0.4-2.4,0.7-3.8,1.2
		c0.3,0.1,0.5,0.2,0.7,0.2c5.7,1.7,11.4,3.4,17.2,5.1c5.2,1.6,10.4,3.1,15.6,4.7C15.4-146.3,18.2-145.4,21.1-144.5z"/>
	<path class="st6" d="M21.1-144.5c-2.8-0.9-5.6-1.7-8.4-2.6c-5.2-1.6-10.4-3.1-15.6-4.7c-5.7-1.7-11.4-3.4-17.2-5.1
		c-0.2,0-0.3-0.1-0.7-0.2c1.4-0.4,2.6-0.8,3.8-1.2c4.3-1.3,8.6-2.6,12.9-3.9c8.1-2.4,16.2-4.8,24.2-7.3c0.3-0.1,0.6-0.2,0.9-0.4
		c0.1,0,0.1,0,0.2,0c0,0,0,0.1,0,0.1c0,0.2-0.1,0.5-0.1,0.7c0,8.1,0,16.3,0,24.4C21.2-144.6,21.1-144.5,21.1-144.5z"/>
	<path class="st7" d="M21.2-144.6c0-8.1,0-16.3,0-24.4c0-0.2,0.1-0.5,0.1-0.7c6.9,2.1,13.9,4.2,20.8,6.2c0.8,0.2,1.6,0.5,2.4,0.8
		c0.5,0.6,1,1.3,1.5,1.9c0.1,0.1,0.4,0.1,0.7,0.1c0-0.2,0-0.5-0.1-0.6c-0.2-0.3-0.5-0.6-0.8-1c4.7,1.4,9.4,2.8,14,4.2
		c1.1,0.3,2.2,0.6,3.4,1c-0.2,0.1-0.3,0.2-0.4,0.2c-9.4,2.8-18.8,5.6-28.2,8.5c0,0-0.1,0-0.1,0c0.4-0.4,0.9-0.8,1.2-1.2
		c0.6-0.7,0.7-1.6,0.2-2.5c-0.4-0.8-1.3-1.1-2.1-1c-1.2,0.2-1.6,1.3-2.4,2c0.4,0,0.8-0.1,1.2-0.3c0.2-0.1,0.4-0.4,0.6-0.6
		c0.6-0.5,1.3-0.5,1.8,0c0.6,0.5,0.7,1.1,0.2,1.8c-0.3,0.4-0.7,0.8-1.2,1.4c-0.4-0.5-0.8-0.9-1.2-1.3c-0.4-0.5-0.9-0.7-1.7-0.4
		c0.4,0.4,0.7,0.6,1,0.9c0.5,0.5,0.9,1,1.3,1.5c-2.5,0.8-5,1.5-7.4,2.3C24.3-145.5,22.8-145,21.2-144.6z M42.3-156.3
		C42.4-156.3,42.4-156.2,42.3-156.3c0.2,0.3,0.3,0.5,0.4,0.7c0.2-0.2,0.4-0.3,0.5-0.5c0.4-0.8,0.3-1.5-0.3-2.2
		c-0.5-0.7-1.1-1.3-1.6-2c-0.1,0-0.2,0.1-0.3,0.1c0.4-0.4,0.8-0.7,1.2-1.1c-0.1,0.1-0.1,0.2-0.2,0.3c0.7,0.6,1.4,1.2,2.1,1.8
		c0.2,0.1,0.5,0.1,0.7,0.1c0-0.2,0-0.6-0.1-0.7c-0.6-0.7-1.2-1.4-1.8-2.1c-0.1,0.1,0,0,0-0.1c0.2-0.2,0.6-0.4,0.2-0.8
		c-0.4-0.4-0.6,0.1-0.8,0.3c-1.1,1.1-2.2,2.3-3.3,3.4c-0.9,1-0.6,2.7,0.6,3.3C40.7-155.3,41.5-155.7,42.3-156.3z M35.2-154.4
		c0,0.8,1.3,2.6,2,2.8c0.1,0,0.4,0,0.4-0.1c0.1-0.1,0.1-0.4,0-0.5c-0.4-0.4-0.7-0.8-1.1-1.3c-0.6-0.6-0.6-1.4,0-1.9
		c0.5-0.5,1.3-0.5,1.9,0.1c0.4,0.3,0.7,0.7,1.1,1c0.1,0.1,0.4,0,0.6,0.1c0-0.2,0.1-0.5,0-0.6c-0.3-0.4-0.7-0.8-1.1-1.2
		c-0.7-0.6-1.5-0.8-2.3-0.4C35.7-155.9,35.1-155.3,35.2-154.4z"/>
	<polygon class="st3" points="-12.4,-107.8 -2,-128 13.2,-132.2 14.4,-119.8 -7.7,-106.4 	"/>
	<polygon class="st7" points="44.5,-162.7 41.6,-163.3 35.6,-161.2 30.2,-151.8 30.2,-147.7 33.3,-148.2 34.5,-148.5 44.3,-153.9 
		47.2,-159.5 46.8,-161.9 45.8,-162.4 	"/>
</g>
<g>
	<path class="st8" d="M94.8,48.3c0,0.4,0,0.6,0,0.9c0,13.2,0,26.3,0,39.5c0,3.1-2.2,5.6-5.2,6c-3.7,0.5-6.8-2.2-6.9-6
		c0-1.3,0-2.7,0-4c0-0.6-0.2-0.8-0.7-1c-10-3-19.9-5.9-29.9-9c-1.5-0.5-2.8-0.5-4.3,0c-9.9,3-19.9,6-29.9,9c-0.6,0.2-0.7,0.4-0.7,1
		c0,1.6,0.1,3.1-0.1,4.7c-0.3,3.1-3.1,5.5-6.2,5.3c-3.2-0.2-5.8-2.8-5.8-6c0-11.5,0-23,0-34.5c0-2,0-4,0-6.1c-1.1,0-2.1,0-3.1,0
		c-1.4,0-2-0.6-2-2c0-5,0-10,0-15c0-1.3,0.6-2,2-2c7.4,0,14.8,0,22.2,0c0.5,0,0.8-0.2,1.1-0.6c0.6-0.8,0.7-1.6,0.4-2.5
		c-1-2.8-0.8-2.7,1.3-4.4c0.8-0.6,1.1-1.3,1-2.3c-0.1-2.8-0.1-2.8,2.5-3.9c0.9-0.4,1.4-0.9,1.7-1.9c0.7-2.7,0.7-2.7,3.5-3
		c0.9-0.1,1.6-0.4,2-1.3c0.2-0.5,0.6-0.9,0.9-1.4c0.4-0.7,1.1-1,1.9-0.8c0.7,0.1,1.5,0.2,2.2,0.4c0.5,0.1,0.8,0,1.1-0.3
		c0.5-0.5,1-0.9,1.5-1.3c0.8-0.7,1.6-0.8,2.5-0.3c0.6,0.3,1.3,0.6,1.9,0.9c0.2,0.1,0.6,0.1,0.8,0c0.7-0.3,1.4-0.6,2.1-1
		C53.3,5,54,5.1,54.7,5.7c0.2,0.2,0.4,0.4,0.7,0.6c1.5,1.3,1.5,1.3,3.5,1c0.4-0.1,0.7-0.1,1.1-0.2c0.7,0,1.2,0.3,1.6,0.9
		c0.4,0.7,0.8,1.4,1.3,2.1c0.1,0.2,0.4,0.4,0.6,0.4c0.8,0.2,1.6,0.3,2.5,0.4c0.8,0.1,1.3,0.6,1.5,1.4c0.2,0.8,0.4,1.6,0.7,2.4
		c0.1,0.2,0.3,0.5,0.5,0.6c0.7,0.3,1.3,0.7,2,0.9c1,0.4,1.4,1.1,1.4,2.1c0,0.7-0.1,1.4,0,2.1c0,0.3,0.2,0.6,0.4,0.8
		c0.5,0.5,1.1,1,1.7,1.5c0.7,0.6,0.9,1.3,0.6,2.2c-0.2,0.6-0.3,1.2-0.6,1.8c-0.2,0.6-0.1,1,0.2,1.5c0.4,0.8,1,1.1,1.9,1
		c7.2,0,14.4,0,21.6,0c1.5,0,2.1,0.6,2.1,2.1c0,4.9,0,9.8,0,14.8c0,1.5-0.6,2.1-2,2.1C96.9,48.3,95.9,48.3,94.8,48.3z M53.4,48.3
		c-12.1,0-24.1,0-36.2,0c0,3.9,0,7.8,0,11.6c0,0.6,0.2,0.9,0.8,1c10.5,3.1,21,6.3,31.5,9.4c0.3,0.1,0.6,0.1,0.9,0
		c5.1-1.5,10.2-3,15.3-4.6c5.5-1.6,11-3.3,16.4-4.9c0.2-0.1,0.5-0.3,0.5-0.5c0-1.2,0-2.3,0-3.6c-0.3,0-0.6,0-0.8,0
		c-8.8,0-17.6,0-26.3,0c-1.6,0-2.1-0.6-2.1-2.2C53.4,52.6,53.4,50.5,53.4,48.3z M96.5,32.8c-31,0-62,0-92.9,0c0,4,0,8,0,11.9
		c16.7,0,33.2,0,49.9,0c0-0.3,0-0.5,0-0.8c0-1.9,0-3.7,0-5.6c0-1.5,0.6-2.2,2.2-2.2c9.5,0,19,0,28.5,0c1.5,0,2.2,1,2.2,2.2
		c0,1.9,0,3.8,0,5.7c0,0.2,0,0.5,0,0.7c3.5,0,6.8,0,10.2,0C96.5,40.7,96.5,36.8,96.5,32.8z M29,29.3c3.1,0,5.9,0,8.7,0
		c0.5,0,0.4-0.3,0.5-0.6c1.1-5.6,6-9.7,11.6-9.7c5.8-0.1,10.7,3.8,12,9.4c0.1,0.3,0.1,0.6,0.2,0.9c3,0,5.9,0,8.9,0
		c-0.6-1.3-0.7-1.4-0.2-2.7c0.6-1.4,0.3-2.3-0.9-3c-1-0.6-1.3-1.5-1.2-2.6c0.1-0.5,0-1,0-1.4c0-0.4-0.1-0.6-0.5-0.7
		c-0.6-0.2-1.1-0.5-1.6-0.7c-0.8-0.3-1.2-0.8-1.4-1.6c-0.1-0.6-0.3-1.2-0.5-1.8c-0.1-0.2-0.3-0.4-0.5-0.5c-0.6-0.1-1.3-0.2-2-0.3
		c-0.7-0.1-1.2-0.4-1.6-1c-0.3-0.5-0.7-1-1-1.6c-0.2-0.5-0.5-0.5-1-0.4c-0.6,0.1-1.2,0.3-1.8,0.3c-0.5,0-1.1-0.2-1.6-0.4
		c-0.4-0.2-0.6-0.5-0.9-0.8c-1-0.9-1-1-2.2-0.3c-1.2,0.6-2.3,1-3.5,0.1c-1.1-0.8-2-0.6-2.8,0.4c-0.8,1-1.8,1.2-3,1
		c-1.7-0.4-1.8-0.3-2.7,1.2c-0.5,0.9-1.2,1.7-2.3,1.6c-1.7-0.1-2.4,0.8-2.6,2.4c-0.1,0.9-0.7,1.5-1.5,1.8c-0.7,0.3-1.6,0.4-1.9,0.9
		c-0.3,0.5-0.1,1.4-0.1,2.2c0.1,0.9-0.2,1.6-0.9,2.1c-0.2,0.1-0.4,0.4-0.6,0.5c-1,0.6-1.2,1.4-0.7,2.4C29.7,27.2,30,28.2,29,29.3z
		 M8.6,48.3c0,0.3,0,0.6,0,0.8c0,13.1,0,26.2,0,39.3c0,0.1,0,0.3,0,0.4c0.1,1.8,2.1,3,3.7,2.1c0.9-0.5,1.4-1.2,1.4-2.3
		c0-13.2,0-26.4,0-39.6c0-0.1,0-0.3,0-0.3c-0.1-0.2-0.3-0.4-0.4-0.4C11.8,48.3,10.2,48.3,8.6,48.3z M91.4,48.3c-1.7,0-3.2,0-4.7,0
		c-0.5,0-0.4,0.4-0.4,0.6c0,13.3,0,26.6,0,39.8c0,1,0.4,1.7,1.3,2.1c1.4,0.8,3.9,0.1,3.9-2.5c0-13.1,0-26.2,0-39.4
		C91.4,48.9,91.4,48.7,91.4,48.3z M82.7,64.4c-8.9,2.7-17.7,5.3-26.7,8c9,2.7,17.8,5.3,26.7,8C82.7,75,82.7,69.8,82.7,64.4z
		 M17.3,64.4c0,5.4,0,10.7,0,16c8.9-2.7,17.7-5.3,26.7-8C35,69.7,26.2,67.1,17.3,64.4z M82.7,53.4c0-4.6,0-9.2,0-13.7
		c-8.6,0-17.2,0-25.7,0c0,4.6,0,9.2,0,13.7C65.5,53.4,74.1,53.4,82.7,53.4z M58.4,29.3c-0.4-3.8-4.5-7-8.7-6.9
		c-3.9,0.2-7.9,3.5-8,6.9C47.2,29.3,52.8,29.3,58.4,29.3z"/>
	<path class="st9" d="M53.4,48.3c0,2.2,0,4.3,0,6.4c0,1.6,0.6,2.2,2.1,2.2c8.8,0,17.6,0,26.3,0c0.2,0,0.5,0,0.8,0c0,1.2,0,2.4,0,3.6
		c0,0.2-0.3,0.4-0.5,0.5c-5.5,1.7-10.9,3.3-16.4,4.9c-5.1,1.5-10.2,3.1-15.3,4.6c-0.3,0.1-0.6,0.1-0.9,0C39,67.3,28.5,64.1,18,61
		c-0.6-0.2-0.8-0.4-0.8-1c0-3.9,0-7.7,0-11.6C29.3,48.3,41.3,48.3,53.4,48.3z"/>
	<path class="st10" d="M96.5,32.8c0,4,0,7.9,0,12c-3.4,0-6.8,0-10.2,0c0-0.2,0-0.5,0-0.7c0-1.9,0-3.8,0-5.7c0-1.1-0.6-2.2-2.2-2.2
		c-9.5,0-19,0-28.5,0c-1.5,0-2.2,0.6-2.2,2.2c0,1.9,0,3.7,0,5.6c0,0.2,0,0.5,0,0.8c-16.7,0-33.3,0-49.9,0c0-4,0-7.9,0-11.9
		C34.5,32.8,65.4,32.8,96.5,32.8z"/>
	<path class="st11" d="M29,29.3c1.1-1.1,0.7-2.1,0.3-3.1c-0.5-1.1-0.3-1.9,0.7-2.4c0.2-0.1,0.4-0.3,0.6-0.5c0.7-0.5,1-1.2,0.9-2.1
		c0-0.7-0.2-1.6,0.1-2.2c0.3-0.5,1.2-0.7,1.9-0.9c0.9-0.3,1.4-0.9,1.5-1.8c0.2-1.6,0.9-2.5,2.6-2.4c1.2,0.1,1.8-0.7,2.3-1.6
		c0.9-1.6,0.9-1.6,2.7-1.2c1.2,0.3,2.2,0,3-1c0.8-1,1.7-1.2,2.8-0.4c1.2,0.9,2.3,0.5,3.5-0.1c1.2-0.7,1.2-0.6,2.2,0.3
		c0.3,0.3,0.6,0.6,0.9,0.8c0.5,0.2,1,0.4,1.6,0.4c0.6,0,1.2-0.1,1.8-0.3c0.5-0.1,0.8,0,1,0.4c0.3,0.6,0.6,1.1,1,1.6
		c0.4,0.6,0.9,0.9,1.6,1c0.7,0.1,1.3,0.1,2,0.3c0.2,0,0.5,0.3,0.5,0.5c0.2,0.6,0.4,1.2,0.5,1.8c0.2,0.8,0.6,1.4,1.4,1.6
		c0.6,0.2,1.1,0.5,1.6,0.7c0.3,0.1,0.5,0.3,0.5,0.7c0,0.5,0,1,0,1.4c-0.1,1.1,0.2,2,1.2,2.6c1.3,0.8,1.5,1.7,0.9,3
		c-0.6,1.4-0.5,1.4,0.2,2.7c-2.9,0-5.9,0-8.9,0c-0.1-0.3-0.1-0.6-0.2-0.9c-1.3-5.6-6.2-9.5-12-9.4c-5.6,0.1-10.5,4.2-11.6,9.7
		c-0.1,0.3,0,0.6-0.5,0.6C34.9,29.3,32,29.3,29,29.3z"/>
	<path class="st12" d="M8.6,48.3c1.6,0,3.1,0,4.7,0c0.2,0,0.3,0.3,0.4,0.4c0.1,0.1,0,0.2,0,0.3c0,13.2,0,26.4,0,39.6
		c0,1.1-0.5,1.8-1.4,2.3c-1.6,0.9-3.6-0.3-3.7-2.1c0-0.1,0-0.3,0-0.4c0-13.1,0-26.2,0-39.3C8.6,48.9,8.6,48.7,8.6,48.3z"/>
	<path class="st12" d="M91.4,48.3c0,0.3,0,0.6,0,0.8c0,13.1,0,26.2,0,39.4c0,2.6-2.4,3.3-3.9,2.5c-0.8-0.5-1.3-1.2-1.3-2.1
		c0-13.3,0-26.6,0-39.8c0-0.3-0.1-0.6,0.4-0.6C88.2,48.3,89.7,48.3,91.4,48.3z"/>
	<path class="st13" d="M82.7,64.4c0,5.4,0,10.6,0,16c-8.9-2.7-17.7-5.3-26.7-8C65,69.7,73.8,67.1,82.7,64.4z"/>
	<path class="st13" d="M17.3,64.4c8.9,2.7,17.7,5.3,26.7,8c-9,2.7-17.8,5.3-26.7,8C17.3,75,17.3,69.8,17.3,64.4z"/>
	<path class="st11" d="M82.7,53.4c-8.6,0-17.1,0-25.7,0c0-4.6,0-9.1,0-13.7c8.6,0,17.1,0,25.7,0C82.7,44.3,82.7,48.8,82.7,53.4z
		 M75.9,51.7c2.9,0,5.1-2.3,5.1-5.2c0-2.9-2.3-5.1-5.2-5.1c-2.9,0-5.1,2.3-5.1,5.2C70.7,49.4,73,51.7,75.9,51.7z M63.8,51.7
		c2.9,0,5.2-2.3,5.2-5.1c0-2.9-2.3-5.2-5.2-5.2c-2.9,0-5.2,2.3-5.2,5.1C58.6,49.4,60.9,51.7,63.8,51.7z"/>
	<path class="st11" d="M58.4,29.3c-5.6,0-11.1,0-16.7,0c0.1-3.3,4.1-6.7,8-6.9C53.8,22.3,58,25.5,58.4,29.3z"/>
	<path class="st8" d="M75.9,51.7c-2.9,0-5.2-2.3-5.2-5.1c0-2.9,2.3-5.2,5.1-5.2c2.9,0,5.2,2.3,5.2,5.1
		C81.1,49.4,78.8,51.7,75.9,51.7z M75.8,48.2c1,0,1.8-0.7,1.8-1.7c0-0.9-0.7-1.7-1.7-1.7c-1,0-1.7,0.7-1.8,1.6
		C74.1,47.5,74.8,48.2,75.8,48.2z"/>
	<path class="st8" d="M63.8,51.7c-2.9,0-5.2-2.3-5.2-5.2c0-2.9,2.3-5.2,5.2-5.1c2.9,0,5.2,2.3,5.2,5.2C69,49.4,66.7,51.7,63.8,51.7z
		 M65.5,46.6c0-1-0.7-1.8-1.7-1.8c-0.9,0-1.8,0.8-1.8,1.7c0,0.9,0.8,1.8,1.7,1.8C64.7,48.3,65.5,47.6,65.5,46.6z"/>
	<path class="st10" d="M75.8,48.2c-1,0-1.7-0.8-1.7-1.8c0-0.9,0.8-1.6,1.8-1.6c0.9,0,1.7,0.8,1.7,1.7C77.6,47.5,76.8,48.3,75.8,48.2
		z"/>
	<path class="st10" d="M65.5,46.6c0,0.9-0.8,1.7-1.7,1.7c-0.9,0-1.8-0.9-1.7-1.8c0-0.9,0.9-1.8,1.8-1.7
		C64.8,44.8,65.5,45.6,65.5,46.6z"/>
</g>
</svg>
