<?xml version="1.0" encoding="utf-8"?>
<!-- Generator: Adobe Illustrator 23.0.3, SVG Export Plug-In . SVG Version: 6.00 Build 0)  -->
<svg version="1.1" id="Vrstva_1" xmlns="http://www.w3.org/2000/svg" xmlns:xlink="http://www.w3.org/1999/xlink" x="0px" y="0px"
	 viewBox="0 0 100 100" style="enable-background:new 0 0 100 100;" xml:space="preserve">
<style type="text/css">
	.st0{fill:#040303;}
	.st1{fill:#E64C44;}
	.st2{fill:#C33123;}
	.st3{fill:#FDEEEC;}
	.st4{fill:#FAD6D3;}
</style>
<path class="st0" d="M19-137c-0.32,0.25-0.63,0.49-0.95,0.74c-0.02-0.25-0.04-0.49-0.05-0.74C18.33-137,18.67-137,19-137z"/>
<path class="st0" d="M57-137c-0.02,0.25-0.04,0.49-0.05,0.74c-0.32-0.25-0.63-0.49-0.95-0.74C56.33-137,56.67-137,57-137z"/>
<path class="st0" d="M17,375c0.02-0.25,0.03-0.5,0.05-0.75c0.32,0.25,0.63,0.5,0.95,0.75C17.67,375,17.33,375,17,375z"/>
<path class="st0" d="M56,375c0.32-0.25,0.63-0.5,0.95-0.74c0.02,0.25,0.04,0.5,0.05,0.74C56.67,375,56.33,375,56,375z"/>
<g>
	<path class="st1" d="M50.02,99.95C39.57,99.97,29.12,100,18.66,100c-1.53,0-2.54-0.84-2.91-2.29c-0.2-0.8-0.26-1.65-0.26-2.48
		c-0.01-15.76-0.01-31.53-0.01-47.29c0-0.71,0-1.43,0-2.44c-3.12,0.42-6,0.81-9.02,1.21c-0.04-0.74-0.08-1.29-0.08-1.83
		c0-9.73,0-19.45-0.01-29.18c0-0.87-0.03-1.56,1.08-1.9c7.77-2.42,15.51-4.91,23.27-7.38c0.16-0.05,0.33-0.03,0.5-0.04
		c0,4.56,0,9.13,0,13.92c0.87-0.26,1.5-0.43,2.12-0.64c5.56-1.82,11.12-3.65,16.68-5.47C50.02,42.77,50.02,71.36,50.02,99.95z
		 M21.89,34.25c0,3.57,0.01,7.14,0.01,10.72c0.08,0.11,0.16,0.22,0.24,0.33c2.84,0.98,5.67,1.99,8.52,2.92
		c0.43,0.14,1,0.06,1.45-0.08c2.49-0.8,4.99-1.6,7.44-2.52c0.46-0.17,1.01-0.88,1.01-1.35c0.07-3.34,0.01-6.69-0.02-10.04
		c0-1.99,0-3.98,0-5.98c-6.31,0-12.48,0-18.66,0C21.89,30.35,21.89,32.3,21.89,34.25z"/>
	<path class="st2" d="M50.02,99.95c0-28.59,0-57.17,0-85.76c6.19,2.01,12.37,4.03,18.78,6.11c0-4.78,0-9.35,0-13.91
		c7.92,2.51,15.85,5,23.76,7.57c0.45,0.15,1.03,0.87,1.03,1.33c0.05,10.28,0.03,20.56,0.02,30.85c0,0.11-0.06,0.21-0.14,0.51
		c-2.97-0.43-5.96-0.85-9.15-1.31c0,0.81,0,1.47,0,2.13c0,16.04,0,32.08,0,48.12c0,3.52-0.91,4.43-4.46,4.42
		C69.91,99.98,59.97,99.96,50.02,99.95z M58.06,45.29c2.84,0.99,5.67,2,8.52,2.95c0.44,0.14,1.01,0.08,1.46-0.06
		c2.49-0.8,4.99-1.61,7.44-2.54c0.46-0.17,1.01-0.87,1.02-1.34c0.07-3.35,0.01-6.7-0.01-10.05c0-1.99,0-3.97,0-5.99
		c-6.29,0-12.48,0-18.73,0c0,5.6,0,11.06,0.01,16.52C57.77,44.94,57.96,45.12,58.06,45.29z"/>
	<path class="st3" d="M68.8,6.38c0,4.57,0,9.14,0,13.91c-6.41-2.09-12.6-4.1-18.78-6.11c-5.56,1.82-11.12,3.65-16.68,5.47
		c-0.62,0.2-1.26,0.38-2.12,0.64c0-4.79,0-9.35,0-13.92c1.62-1.57,3.22-3.15,4.86-4.69c0.42-0.4,0.96-0.66,1.45-0.99
		c0.23,4.01,1.38,7.58,4.97,9.89c8.74,5.6,19.29,0.37,19.98-9.89c1.03,0.87,2.09,1.72,3.1,2.62C66.67,4.31,67.73,5.36,68.8,6.38z"/>
	<path class="st2" d="M62.48,0.69c-0.69,10.26-11.24,15.5-19.98,9.89c-3.59-2.3-4.74-5.87-4.97-9.89c0.41-0.23,0.82-0.66,1.23-0.66
		c7.49-0.04,14.99-0.04,22.48,0C61.65,0.03,62.06,0.46,62.48,0.69z"/>
	<path class="st3" d="M93.97,14.44c1.79,0.59,3.38,0.96,4.81,1.66c0.59,0.29,1.15,1.3,1.16,1.98c0.08,8.99,0.07,17.99,0.03,26.98
		c-0.01,1.9-0.83,2.45-2.7,2.07c-3.3-0.66-3.3-0.66-3.3-3.98c0-8.83,0-17.65,0-26.48C93.97,16.07,93.97,15.47,93.97,14.44z"/>
	<path class="st3" d="M6.04,14.58c0,0.69,0,1.13,0,1.57c0,9.55-0.03,19.11,0.03,28.66c0.01,1.54-0.57,2.05-1.99,2.17
		C0,47.32,0,47.35,0,43.1c0-8.04,0-16.09,0-24.13c0-2.38,0.28-2.74,2.57-3.41C3.64,15.25,4.71,14.95,6.04,14.58z"/>
	<path class="st3" d="M21.9,44.97c0-3.57-0.01-7.14-0.01-10.72c6.22,0,12.44,0,18.66-0.01c0.02,3.35,0.08,6.69,0.02,10.04
		c-0.01,0.47-0.56,1.18-1.01,1.35c-2.45,0.92-4.95,1.72-7.44,2.52c-0.45,0.14-1.02,0.22-1.45,0.08c-2.85-0.94-5.68-1.94-8.52-2.92
		C22.07,45.19,21.98,45.08,21.9,44.97z"/>
	<path class="st4" d="M40.56,34.24c-6.22,0-12.44,0-18.66,0.01c0-1.95,0-3.9,0-5.99c6.19,0,12.35,0,18.66,0
		C40.56,30.26,40.56,32.25,40.56,34.24z"/>
	<path class="st4" d="M21.9,44.97c0.08,0.11,0.16,0.22,0.24,0.33C22.07,45.19,21.98,45.08,21.9,44.97z"/>
	<path class="st3" d="M76.49,34.24c0.02,3.35,0.08,6.7,0.01,10.05c-0.01,0.47-0.56,1.17-1.02,1.34c-2.45,0.92-4.94,1.73-7.44,2.54
		c-0.45,0.15-1.02,0.2-1.46,0.06c-2.85-0.94-5.68-1.96-8.52-2.95c0-3.12,0.06-6.24-0.02-9.36c-0.03-1.33,0.42-1.73,1.73-1.71
		C65.34,34.27,70.91,34.24,76.49,34.24z"/>
	<path class="st4" d="M76.49,34.24c-5.57,0-11.14,0.03-16.72-0.03c-1.31-0.01-1.76,0.38-1.73,1.71c0.08,3.12,0.02,6.24,0.02,9.36
		c-0.1-0.17-0.29-0.35-0.29-0.52c-0.02-5.46-0.01-10.92-0.01-16.52c6.25,0,12.44,0,18.73,0C76.49,30.27,76.49,32.26,76.49,34.24z"/>
</g>
</svg>
